<?xml version="1.0" standalone="no"?>
<!DOCTYPE svg PUBLIC "-//W3C//DTD SVG 20010904//EN"
 "http://www.w3.org/TR/2001/REC-SVG-20010904/DTD/svg10.dtd">
<svg version="1.0" xmlns="http://www.w3.org/2000/svg"
 width="700.000000pt" height="700.000000pt" viewBox="0 0 700.000000 700.000000"
 preserveAspectRatio="xMidYMid meet">
<metadata>
Created by potrace 1.14, written by Peter Selinger 2001-2017
</metadata>
<g transform="translate(0.000000,700.000000) scale(0.100000,-0.100000)"
fill="#000000" stroke="none">
<path d="M5641 6589 c-337 -32 -679 -229 -873 -503 -41 -58 -144 -249 -160
-296 -2 -8 -46 10 -118 48 -133 70 -257 122 -294 122 -89 0 -138 -100 -81
-168 13 -16 46 -37 72 -47 82 -30 276 -132 363 -191 355 -237 658 -609 852
-1046 64 -146 149 -402 182 -548 53 -243 69 -388 70 -640 1 -210 -2 -246 -22
-340 -44 -200 -131 -421 -237 -601 -50 -85 -58 -114 -41 -154 18 -42 52 -65
97 -65 53 0 81 28 146 143 114 203 197 420 245 637 20 95 23 131 23 370 0 289
-11 400 -66 666 -16 78 -29 147 -29 153 0 7 22 11 59 11 122 0 315 47 459 111
165 74 394 260 407 331 9 46 -14 92 -56 114 -50 26 -87 12 -165 -62 -195 -184
-444 -284 -705 -284 -75 0 -76 1 -95 75 -5 22 -3 25 21 25 37 0 160 43 220 76
28 16 80 58 118 94 61 60 67 69 67 107 0 30 -7 50 -25 71 -48 57 -108 51 -180
-17 -80 -75 -156 -112 -262 -125 l-51 -6 -62 116 c-100 189 -194 331 -327 496
l-55 68 26 45 c41 69 121 142 203 182 65 32 83 37 172 41 163 8 273 -37 380
-154 88 -97 128 -210 118 -344 -8 -116 25 -170 103 -170 81 0 110 53 110 203
0 123 -16 194 -70 302 -104 211 -288 342 -528 375 -229 31 -479 -69 -613 -247
-23 -32 -46 -62 -50 -67 -4 -4 -40 20 -81 56 -40 35 -84 71 -97 80 l-24 17 23
63 c53 148 135 271 254 386 186 178 393 267 656 281 142 7 170 16 189 58 16
35 13 85 -5 112 -35 49 -87 57 -263 40z"/>
<path d="M6218 6464 c-60 -32 -73 -118 -25 -161 12 -10 62 -44 111 -74 178
-108 339 -303 412 -497 51 -136 67 -229 66 -377 0 -154 -27 -274 -92 -414 -44
-96 -47 -118 -25 -161 19 -37 43 -50 92 -50 52 0 78 21 112 88 234 463 143
1035 -224 1407 -93 95 -161 148 -271 210 -83 48 -112 53 -156 29z"/>
<path d="M935 6326 c-181 -48 -314 -111 -456 -218 -235 -177 -418 -476 -461
-756 -11 -65 -10 -77 6 -107 35 -64 109 -74 162 -21 19 19 34 43 34 53 0 46
45 195 85 279 57 123 114 204 204 295 148 148 278 216 548 288 52 14 83 51 83
100 0 46 -23 79 -66 97 -41 17 -30 18 -139 -10z"/>
<path d="M1503 6305 c-34 -14 -63 -59 -63 -97 0 -51 33 -83 116 -112 154 -55
257 -119 377 -235 94 -91 138 -149 193 -254 l41 -78 -106 -107 -106 -108 -38
58 c-87 130 -241 239 -393 278 -94 24 -241 26 -334 5 -231 -54 -430 -246 -497
-479 -60 -207 -3 -476 131 -621 37 -39 48 -45 84 -45 53 0 100 39 108 90 5 29
0 44 -29 85 -77 112 -107 198 -107 305 0 345 363 572 677 424 73 -35 163 -121
200 -191 52 -98 52 -92 -25 -211 -80 -123 -148 -245 -212 -384 -42 -91 -47
-96 -80 -102 -63 -10 -144 -7 -218 11 -68 16 -74 16 -108 0 -69 -33 -79 -128
-18 -176 33 -26 146 -51 228 -51 37 0 66 -2 66 -6 0 -3 -12 -46 -27 -96 l-27
-90 -146 5 c-166 5 -256 26 -387 87 -114 53 -185 102 -281 195 -141 134 -237
302 -284 493 -24 101 -47 136 -98 147 -45 10 -98 -18 -116 -61 -14 -33 -14
-44 1 -113 115 -516 544 -901 1070 -961 50 -5 114 -10 143 -10 46 0 53 -2 48
-17 -11 -35 -35 -220 -47 -353 -14 -162 -7 -432 15 -549 46 -249 143 -497 287
-737 54 -90 84 -111 142 -100 50 9 82 48 81 99 0 32 -12 62 -49 122 -110 183
-206 426 -247 628 -20 96 -23 142 -22 317 1 268 25 462 89 720 235 939 874
1628 1665 1799 185 39 377 44 637 15 62 -7 63 -6 98 29 45 45 48 92 8 137 -34
38 -66 46 -251 61 -431 36 -875 -86 -1270 -349 -45 -30 -84 -53 -86 -51 -1 2
-17 31 -36 64 -141 255 -396 467 -674 560 -86 29 -81 28 -123 10z"/>
<path d="M2195 2886 c-145 -67 -180 -258 -69 -370 94 -94 238 -95 330 -2 182
182 -28 481 -261 372z"/>
<path d="M4586 2895 c-85 -30 -149 -123 -149 -216 0 -108 65 -195 170 -225
177 -52 336 116 282 297 -36 119 -181 188 -303 144z"/>
<path d="M5193 2058 c-12 -6 -61 -58 -109 -117 -117 -141 -407 -431 -569 -567
-128 -107 -339 -274 -348 -274 -2 0 -9 26 -16 58 -31 142 -132 288 -256 371
-108 72 -209 102 -342 102 -178 1 -301 -50 -430 -176 -65 -64 -89 -97 -122
-164 -22 -45 -45 -107 -51 -137 -8 -37 -15 -52 -23 -47 -7 3 -69 51 -138 105
-155 120 -331 274 -506 441 -111 107 -137 127 -163 127 -67 0 -109 -43 -110
-110 0 -44 1 -46 143 -185 168 -166 326 -303 535 -466 l154 -119 -114 -54
c-363 -172 -506 -245 -521 -267 -22 -30 -22 -88 -1 -118 23 -33 75 -52 110
-42 16 5 144 64 284 131 298 143 402 192 404 188 19 -39 93 -132 138 -173 110
-99 256 -155 405 -155 110 0 172 14 273 62 67 32 101 57 161 117 42 42 86 95
98 118 12 24 27 43 34 43 7 0 164 -73 348 -161 184 -89 347 -165 363 -170 35
-10 87 9 110 42 26 37 21 94 -11 128 -18 19 -135 80 -328 171 -165 79 -304
146 -308 150 -4 3 43 45 105 92 225 171 433 354 618 545 156 159 308 336 326
378 36 88 -57 175 -143 133z"/>
</g>
</svg>
