<svg xmlns="http://www.w3.org/2000/svg" xmlns:xlink="http://www.w3.org/1999/xlink" width="100" zoomAndPan="magnify" viewBox="0 0 75 74.999997" height="100" preserveAspectRatio="xMidYMid meet" version="1.0"><path fill="#1a4789" d="M 75.003906 37.5 C 75.003906 38.730469 74.945312 39.953125 74.824219 41.175781 C 74.703125 42.398438 74.523438 43.613281 74.28125 44.816406 C 74.042969 46.019531 73.746094 47.210938 73.390625 48.386719 C 73.03125 49.5625 72.617188 50.71875 72.148438 51.851562 C 71.679688 52.988281 71.15625 54.09375 70.574219 55.179688 C 69.996094 56.261719 69.367188 57.3125 68.683594 58.335938 C 68 59.355469 67.269531 60.339844 66.492188 61.289062 C 65.710938 62.242188 64.886719 63.148438 64.019531 64.019531 C 63.152344 64.886719 62.242188 65.710938 61.292969 66.488281 C 60.34375 67.269531 59.359375 68 58.335938 68.679688 C 57.316406 69.363281 56.265625 69.996094 55.179688 70.574219 C 54.097656 71.152344 52.988281 71.675781 51.855469 72.148438 C 50.71875 72.617188 49.5625 73.03125 48.390625 73.386719 C 47.214844 73.742188 46.023438 74.042969 44.820312 74.28125 C 43.613281 74.519531 42.402344 74.699219 41.179688 74.820312 C 39.957031 74.941406 38.730469 75 37.503906 75 C 36.273438 75 35.050781 74.941406 33.828125 74.820312 C 32.605469 74.699219 31.390625 74.519531 30.1875 74.28125 C 28.984375 74.042969 27.792969 73.742188 26.617188 73.386719 C 25.441406 73.03125 24.289062 72.617188 23.152344 72.148438 C 22.019531 71.675781 20.910156 71.152344 19.824219 70.574219 C 18.742188 69.996094 17.691406 69.363281 16.667969 68.679688 C 15.648438 68 14.664062 67.269531 13.714844 66.488281 C 12.765625 65.710938 11.855469 64.886719 10.988281 64.019531 C 10.117188 63.148438 9.292969 62.242188 8.515625 61.289062 C 7.734375 60.339844 7.003906 59.355469 6.324219 58.335938 C 5.640625 57.3125 5.011719 56.261719 4.429688 55.179688 C 3.851562 54.09375 3.328125 52.988281 2.859375 51.851562 C 2.386719 50.71875 1.972656 49.5625 1.617188 48.386719 C 1.261719 47.210938 0.964844 46.019531 0.722656 44.816406 C 0.484375 43.613281 0.304688 42.398438 0.183594 41.175781 C 0.0625 39.953125 0.00390625 38.730469 0.00390625 37.5 C 0.00390625 36.273438 0.0625 35.046875 0.183594 33.824219 C 0.304688 32.601562 0.484375 31.390625 0.722656 30.183594 C 0.964844 28.980469 1.261719 27.789062 1.617188 26.613281 C 1.972656 25.441406 2.386719 24.285156 2.859375 23.148438 C 3.328125 22.015625 3.851562 20.90625 4.429688 19.824219 C 5.011719 18.742188 5.640625 17.6875 6.324219 16.667969 C 7.003906 15.644531 7.734375 14.660156 8.515625 13.710938 C 9.292969 12.761719 10.117188 11.851562 10.988281 10.984375 C 11.855469 10.117188 12.765625 9.292969 13.714844 8.511719 C 14.664062 7.734375 15.648438 7.003906 16.667969 6.320312 C 17.691406 5.636719 18.742188 5.007812 19.824219 4.429688 C 20.910156 3.851562 22.019531 3.324219 23.152344 2.855469 C 24.289062 2.386719 25.441406 1.972656 26.617188 1.617188 C 27.792969 1.257812 28.984375 0.960938 30.1875 0.722656 C 31.390625 0.480469 32.605469 0.300781 33.828125 0.179688 C 35.050781 0.0625 36.273438 0 37.503906 0 C 38.730469 0 39.957031 0.0625 41.179688 0.179688 C 42.402344 0.300781 43.613281 0.480469 44.820312 0.722656 C 46.023438 0.960938 47.214844 1.257812 48.390625 1.617188 C 49.5625 1.972656 50.71875 2.386719 51.855469 2.855469 C 52.988281 3.324219 54.097656 3.851562 55.179688 4.429688 C 56.265625 5.007812 57.316406 5.636719 58.335938 6.320312 C 59.359375 7.003906 60.34375 7.734375 61.292969 8.511719 C 62.242188 9.292969 63.152344 10.117188 64.019531 10.984375 C 64.886719 11.851562 65.710938 12.761719 66.492188 13.710938 C 67.269531 14.660156 68 15.644531 68.683594 16.667969 C 69.367188 17.6875 69.996094 18.742188 70.574219 19.824219 C 71.15625 20.90625 71.679688 22.015625 72.148438 23.148438 C 72.617188 24.285156 73.03125 25.441406 73.390625 26.613281 C 73.746094 27.789062 74.042969 28.980469 74.28125 30.183594 C 74.523438 31.390625 74.703125 32.601562 74.824219 33.824219 C 74.945312 35.046875 75.003906 36.273438 75.003906 37.5 Z M 75.003906 37.5 " fill-opacity="1" fill-rule="nonzero"/><path fill="#ffffff" d="M 46.914062 39.429688 L 47.976562 31.210938 L 39.835938 31.210938 L 39.835938 25.960938 C 39.835938 23.578125 40.5 21.957031 43.910156 21.957031 L 48.261719 21.957031 L 48.261719 14.601562 C 47.511719 14.503906 44.929688 14.277344 41.917969 14.277344 C 35.640625 14.277344 31.347656 18.109375 31.347656 25.148438 L 31.347656 31.210938 L 24.246094 31.210938 L 24.246094 39.429688 L 31.347656 39.429688 L 31.347656 60.523438 L 39.835938 60.523438 L 39.835938 39.429688 Z M 46.914062 39.429688 " fill-opacity="1" fill-rule="nonzero"/></svg>