<svg xmlns="http://www.w3.org/2000/svg" xmlns:xlink="http://www.w3.org/1999/xlink" width="100" zoomAndPan="magnify" viewBox="0 0 75 74.999997" height="100" preserveAspectRatio="xMidYMid meet" version="1.0"><path fill="#cb2029" d="M 74.996094 37.492188 C 74.996094 58.203125 58.207031 74.992188 37.496094 74.992188 C 16.785156 74.992188 -0.00390625 58.203125 -0.00390625 37.492188 C -0.00390625 16.78125 16.785156 -0.0078125 37.496094 -0.0078125 C 58.207031 -0.0078125 74.996094 16.78125 74.996094 37.492188 Z M 74.996094 37.492188 " fill-opacity="1" fill-rule="nonzero"/><path fill="#ffffff" d="M 62.109375 39.164062 C 62.109375 43.003906 62.105469 47.074219 61.246094 50.800781 C 60.644531 53.417969 58.503906 55.347656 55.925781 55.640625 C 49.820312 56.320312 43.640625 56.324219 37.492188 56.320312 C 31.34375 56.324219 25.164062 56.320312 19.0625 55.640625 C 16.484375 55.347656 14.34375 53.417969 13.742188 50.800781 C 12.886719 47.074219 12.886719 43.003906 12.886719 39.164062 C 12.886719 35.324219 12.894531 31.261719 13.753906 27.527344 C 14.351562 24.914062 16.492188 22.980469 19.070312 22.695312 C 25.175781 22.011719 31.351562 22.007812 37.503906 22.011719 C 43.652344 22.007812 49.832031 22.011719 55.9375 22.695312 C 58.515625 22.980469 60.65625 24.914062 61.253906 27.527344 C 62.113281 31.261719 62.109375 35.324219 62.109375 39.164062 Z M 62.109375 39.164062 " fill-opacity="1" fill-rule="nonzero"/><path fill="#cb2029" d="M 32.308594 30.003906 L 32.308594 48.40625 L 46.613281 39.207031 Z M 32.308594 30.003906 " fill-opacity="1" fill-rule="nonzero"/></svg>