<svg xmlns="http://www.w3.org/2000/svg" xmlns:xlink="http://www.w3.org/1999/xlink" width="1080" zoomAndPan="magnify" viewBox="0 0 810 809.999993" height="1080" preserveAspectRatio="xMidYMid meet" version="1.0"><defs><clipPath id="00b7635b79"><path d="M 342.195312 619.613281 L 484.324219 619.613281 L 484.324219 761.484375 L 342.195312 761.484375 Z M 342.195312 619.613281 " clip-rule="nonzero"/></clipPath><clipPath id="5996541551"><path d="M 529 48.300781 L 687 48.300781 L 687 176 L 529 176 Z M 529 48.300781 " clip-rule="nonzero"/></clipPath><clipPath id="8621d4188b"><path d="M 713.488281 62 L 810 62 L 810 264.4375 L 713.488281 264.4375 Z M 713.488281 62 " clip-rule="nonzero"/></clipPath></defs><rect x="-81" width="972" fill="#ffffff" y="-80.999999" height="971.999992" fill-opacity="1"/><rect x="-81" width="972" fill="#ffffff" y="-80.999999" height="971.999992" fill-opacity="1"/><path fill="#000000" d="M 461.476562 712.097656 C 458.765625 712.097656 456.039062 711.207031 453.761719 709.371094 C 448.46875 705.117188 447.640625 697.371094 451.898438 692.085938 L 511.441406 618.222656 C 515.707031 612.914062 523.441406 612.085938 528.742188 616.359375 C 534.039062 620.613281 534.867188 628.359375 530.605469 633.644531 L 471.066406 707.511719 C 468.632812 710.535156 465.066406 712.097656 461.476562 712.097656 " fill-opacity="1" fill-rule="nonzero"/><path fill="#000000" d="M 562.628906 760.617188 C 560.835938 760.617188 559.027344 760.234375 557.308594 759.40625 L 456.160156 710.882812 C 450.03125 707.953125 447.449219 700.601562 450.390625 694.476562 C 453.335938 688.351562 460.695312 685.757812 466.804688 688.710938 L 567.957031 737.234375 C 574.082031 740.164062 576.667969 747.515625 573.726562 753.640625 C 571.609375 758.046875 567.210938 760.617188 562.628906 760.617188 " fill-opacity="1" fill-rule="nonzero"/><path fill="#000000" d="M 369.667969 712.097656 C 366.074219 712.097656 362.511719 710.535156 360.078125 707.511719 L 300.535156 633.644531 C 296.277344 628.359375 297.105469 620.613281 302.398438 616.359375 C 307.691406 612.085938 315.433594 612.914062 319.699219 618.222656 L 379.242188 692.085938 C 383.5 697.371094 382.671875 705.117188 377.378906 709.371094 C 375.101562 711.207031 372.375 712.097656 369.667969 712.097656 " fill-opacity="1" fill-rule="nonzero"/><path fill="#000000" d="M 268.515625 760.617188 C 263.929688 760.617188 259.53125 758.046875 257.417969 753.640625 C 254.476562 747.515625 257.058594 740.164062 263.183594 737.234375 L 364.339844 688.710938 C 370.453125 685.757812 377.8125 688.351562 380.75 694.476562 C 383.691406 700.601562 381.113281 707.953125 374.980469 710.882812 L 273.832031 759.40625 C 272.113281 760.234375 270.304688 760.617188 268.515625 760.617188 " fill-opacity="1" fill-rule="nonzero"/><path fill="#a0dcff" d="M 268.558594 175.675781 L 168.40625 344.664062 C 168.40625 344.785156 168.160156 344.785156 168.035156 344.785156 C 98.519531 356.839844 32.203125 310.839844 18.914062 241.84375 C 18.789062 240.984375 18.542969 240.125 18.421875 239.261719 C 6.242188 168.914062 53.488281 102.007812 123.863281 89.832031 C 162.746094 83.066406 200.640625 94.382812 228.816406 117.875 C 246.78125 132.753906 260.683594 152.554688 268.558594 175.675781 " fill-opacity="1" fill-rule="nonzero"/><path fill="#72cbff" d="M 268.558594 175.675781 L 168.40625 344.664062 C 168.40625 344.785156 168.160156 344.785156 168.035156 344.785156 C 98.519531 356.839844 32.203125 310.839844 18.914062 241.84375 C 72.066406 271.238281 135.554688 275.667969 186.859375 188.46875 C 203.347656 160.425781 217.25 137.179688 228.816406 117.875 C 246.78125 132.753906 260.683594 152.554688 268.558594 175.675781 " fill-opacity="1" fill-rule="nonzero"/><path fill="#a0dcff" d="M 690.453125 317.851562 C 677.042969 320.1875 663.753906 320.433594 650.957031 318.714844 L 643.332031 307.890625 L 541.824219 162.886719 C 552.652344 112.953125 592.886719 72.121094 646.28125 62.898438 C 660.183594 60.4375 674.089844 60.4375 687.253906 62.28125 C 741.144531 70.277344 786.175781 111.84375 795.898438 168.296875 C 808.078125 238.648438 760.832031 305.675781 690.453125 317.851562 " fill-opacity="1" fill-rule="nonzero"/><path fill="#72cbff" d="M 690.453125 317.851562 C 677.042969 320.1875 663.753906 320.433594 650.957031 318.714844 L 643.332031 307.890625 C 686.023438 281.203125 735.976562 223.644531 702.878906 106.433594 C 698.082031 89.460938 692.789062 74.828125 687.253906 62.28125 C 741.144531 70.277344 786.175781 111.84375 795.898438 168.296875 C 808.078125 238.648438 760.832031 305.675781 690.453125 317.851562 " fill-opacity="1" fill-rule="nonzero"/><path fill="#a0dcff" d="M 668.429688 431.863281 C 668.429688 551.777344 544.039062 655.945312 468.988281 707.847656 C 435.398438 731.09375 391.101562 731.09375 357.515625 707.847656 C 328.476562 687.800781 292.058594 659.882812 258.46875 626.308594 C 204.945312 573.050781 158.191406 505.410156 158.191406 431.863281 C 158.191406 260.046875 272.371094 120.703125 413.25 120.703125 C 434.410156 120.703125 454.835938 123.773438 474.398438 129.804688 C 585.75 163.132812 668.429688 285.753906 668.429688 431.863281 " fill-opacity="1" fill-rule="nonzero"/><path fill="#72cbff" d="M 668.429688 431.863281 C 668.429688 551.777344 544.039062 655.945312 468.988281 707.847656 C 435.398438 731.09375 391.101562 731.09375 357.515625 707.847656 C 328.476562 687.800781 292.058594 659.882812 258.46875 626.308594 C 386.304688 580.554688 534.933594 479.089844 491.253906 257.339844 C 481.535156 208.144531 476.246094 165.835938 474.398438 129.804688 C 585.75 163.132812 668.429688 285.753906 668.429688 431.863281 " fill-opacity="1" fill-rule="nonzero"/><path fill="#000000" d="M 289.3125 500.003906 C 289.3125 511.492188 280 520.804688 268.507812 520.804688 C 257.019531 520.804688 247.707031 511.492188 247.707031 500.003906 C 247.707031 488.523438 257.019531 479.210938 268.507812 479.210938 C 280 479.210938 289.3125 488.523438 289.3125 500.003906 " fill-opacity="1" fill-rule="nonzero"/><path fill="#000000" d="M 268.507812 485.359375 C 260.429688 485.359375 253.855469 491.929688 253.855469 500 C 253.855469 508.085938 260.429688 514.652344 268.507812 514.652344 C 276.589844 514.652344 283.160156 508.085938 283.160156 500 C 283.160156 491.929688 276.589844 485.359375 268.507812 485.359375 Z M 268.507812 526.953125 C 253.644531 526.953125 241.550781 514.859375 241.550781 500 C 241.550781 485.144531 253.644531 473.0625 268.507812 473.0625 C 283.371094 473.0625 295.464844 485.144531 295.464844 500 C 295.464844 514.859375 283.371094 526.953125 268.507812 526.953125 " fill-opacity="1" fill-rule="nonzero"/><path fill="#000000" d="M 562.632812 500.003906 C 562.632812 511.492188 553.316406 520.804688 541.828125 520.804688 C 530.335938 520.804688 521.027344 511.492188 521.027344 500.003906 C 521.027344 488.523438 530.335938 479.210938 541.828125 479.210938 C 553.316406 479.210938 562.632812 488.523438 562.632812 500.003906 " fill-opacity="1" fill-rule="nonzero"/><path fill="#000000" d="M 541.828125 485.359375 C 533.746094 485.359375 527.175781 491.929688 527.175781 500 C 527.175781 508.085938 533.746094 514.652344 541.828125 514.652344 C 549.910156 514.652344 556.480469 508.085938 556.480469 500 C 556.480469 491.929688 549.910156 485.359375 541.828125 485.359375 Z M 541.828125 526.953125 C 526.964844 526.953125 514.871094 514.859375 514.871094 500 C 514.871094 485.144531 526.964844 473.0625 541.828125 473.0625 C 556.691406 473.0625 568.785156 485.144531 568.785156 500 C 568.785156 514.859375 556.691406 526.953125 541.828125 526.953125 " fill-opacity="1" fill-rule="nonzero"/><path fill="#000000" d="M 478.023438 690.632812 C 478.023438 726.363281 449.042969 755.332031 413.296875 755.332031 C 377.554688 755.332031 348.574219 726.363281 348.574219 690.632812 C 348.574219 654.902344 377.554688 625.9375 413.296875 625.9375 C 449.042969 625.9375 478.023438 654.902344 478.023438 690.632812 " fill-opacity="1" fill-rule="nonzero"/><g clip-path="url(#00b7635b79)"><path fill="#000000" d="M 413.300781 632.082031 C 381.003906 632.082031 354.726562 658.347656 354.726562 690.632812 C 354.726562 722.917969 381.003906 749.1875 413.300781 749.1875 C 445.597656 749.1875 471.867188 722.917969 471.867188 690.632812 C 471.867188 658.347656 445.597656 632.082031 413.300781 632.082031 Z M 413.300781 761.484375 C 374.222656 761.484375 342.421875 729.703125 342.421875 690.632812 C 342.421875 651.5625 374.222656 619.785156 413.300781 619.785156 C 452.378906 619.785156 484.171875 651.5625 484.171875 690.632812 C 484.171875 729.703125 452.378906 761.484375 413.300781 761.484375 " fill-opacity="1" fill-rule="nonzero"/></g><path fill="#ffe3e6" d="M 223.03125 212.328125 L 171.605469 299.160156 C 171.480469 299.28125 171.480469 299.28125 171.359375 299.28125 C 138.382812 305.0625 106.761719 285.261719 96.796875 254.269531 C 95.8125 251.3125 95.074219 248.242188 94.457031 245.042969 C 88.183594 208.882812 112.421875 174.449219 148.71875 168.175781 C 164.960938 165.34375 180.707031 168.664062 193.875 176.539062 C 207.285156 184.410156 217.867188 196.953125 223.03125 212.328125 " fill-opacity="1" fill-rule="nonzero"/><path fill="#f7d0d6" d="M 223.03125 212.328125 L 171.605469 299.160156 C 171.480469 299.28125 171.480469 299.28125 171.359375 299.28125 C 138.382812 305.0625 106.761719 285.261719 96.796875 254.269531 C 131.371094 249.222656 174.554688 231.265625 193.875 176.539062 C 207.285156 184.410156 217.867188 196.953125 223.03125 212.328125 " fill-opacity="1" fill-rule="nonzero"/><path fill="#ffe3e6" d="M 711.125 228.5625 C 704.851562 264.84375 673.84375 290.058594 637.667969 283.78125 L 622.539062 259.554688 L 582.671875 195.847656 C 592.886719 165.34375 624.136719 146.160156 656.863281 151.695312 C 658.214844 151.941406 659.449219 152.1875 660.800781 152.554688 C 694.882812 160.546875 717.152344 193.757812 711.125 228.5625 " fill-opacity="1" fill-rule="nonzero"/><path fill="#f7d0d6" d="M 711.125 228.5625 C 704.851562 264.84375 673.84375 290.058594 637.667969 283.78125 L 622.539062 259.554688 C 655.019531 252.175781 692.175781 232.007812 669.785156 176.539062 C 665.96875 167.191406 663.015625 159.199219 660.800781 152.554688 C 694.882812 160.546875 717.152344 193.757812 711.125 228.5625 " fill-opacity="1" fill-rule="nonzero"/><path fill="#000000" d="M 195.964844 561.914062 C 191.859375 561.914062 187.855469 559.875 185.523438 556.140625 C 159.242188 514.136719 145.914062 472.316406 145.914062 431.84375 C 145.914062 253.484375 265.867188 108.386719 413.300781 108.386719 C 426.113281 108.386719 438.953125 109.492188 451.472656 111.652344 C 458.167969 112.816406 462.652344 119.183594 461.492188 125.871094 C 460.332031 132.5625 453.996094 137.03125 447.265625 135.886719 C 436.132812 133.957031 424.707031 132.984375 413.300781 132.984375 C 279.429688 132.984375 170.523438 267.042969 170.523438 431.84375 C 170.523438 467.632812 182.585938 505.070312 206.382812 543.09375 C 209.988281 548.847656 208.238281 556.441406 202.476562 560.042969 C 200.449219 561.316406 198.195312 561.914062 195.964844 561.914062 " fill-opacity="1" fill-rule="nonzero"/><path fill="#000000" d="M 413.300781 737.417969 C 391.304688 737.417969 369.324219 730.929688 350.5625 717.949219 C 307.328125 688.027344 269.734375 656.355469 238.816406 623.796875 C 234.136719 618.871094 234.34375 611.085938 239.269531 606.402344 C 244.195312 601.730469 251.988281 601.925781 256.660156 606.859375 C 293.730469 645.894531 335.800781 677.816406 364.566406 697.71875 C 394.160156 718.210938 432.421875 718.210938 462.039062 697.71875 C 501.128906 670.671875 556.441406 627.363281 597.945312 574.601562 C 602.15625 569.257812 609.910156 568.367188 615.222656 572.535156 C 620.566406 576.738281 621.492188 584.472656 617.292969 589.804688 C 573.882812 644.96875 516.523438 689.9375 476.042969 717.949219 C 457.277344 730.929688 435.289062 737.417969 413.300781 737.417969 " fill-opacity="1" fill-rule="nonzero"/><path fill="#000000" d="M 631.894531 559.875 C 629.699219 559.875 627.464844 559.289062 625.460938 558.050781 C 619.667969 554.492188 617.871094 546.914062 621.429688 541.125 C 644.421875 503.785156 656.078125 467.007812 656.078125 431.84375 C 656.078125 300.890625 584.9375 183.152344 483.070312 145.535156 C 476.695312 143.179688 473.4375 136.105469 475.792969 129.726562 C 478.148438 123.371094 485.234375 120.109375 491.597656 122.449219 C 604.699219 164.222656 680.6875 288.554688 680.6875 431.84375 C 680.6875 471.632812 667.796875 512.742188 642.386719 554.023438 C 640.0625 557.796875 636.03125 559.875 631.894531 559.875 " fill-opacity="1" fill-rule="nonzero"/><path fill="#000000" d="M 160.015625 312.53125 C 151.21875 312.53125 142.453125 311.066406 134.132812 308.167969 C 127.71875 305.933594 124.328125 298.917969 126.566406 292.507812 C 128.792969 286.105469 135.804688 282.695312 142.230469 284.941406 C 150.738281 287.894531 159.9375 288.675781 168.871094 287.210938 C 172.578125 286.371094 176.597656 287.269531 179.667969 289.949219 C 184.777344 294.429688 185.296875 302.199219 180.820312 307.304688 C 178.945312 309.453125 176.285156 310.882812 173.472656 311.375 C 169.019531 312.144531 164.515625 312.53125 160.015625 312.53125 " fill-opacity="1" fill-rule="nonzero"/><path fill="#000000" d="M 109.640625 289.46875 C 106.191406 289.46875 102.761719 288.027344 100.328125 285.21875 C 91 274.441406 84.773438 261.28125 82.324219 247.15625 C 78.730469 226.410156 83.433594 205.527344 95.570312 188.328125 C 107.699219 171.128906 125.808594 159.683594 146.558594 156.09375 C 185.121094 149.460938 222.140625 171.425781 234.628906 208.398438 C 236.804688 214.832031 233.351562 221.8125 226.917969 223.988281 C 220.453125 226.160156 213.488281 222.699219 211.320312 216.277344 C 202.722656 190.863281 177.222656 175.703125 150.757812 180.328125 C 136.484375 182.800781 124.023438 190.671875 115.679688 202.5 C 107.332031 214.332031 104.101562 228.695312 106.570312 242.953125 C 108.253906 252.667969 112.53125 261.722656 118.941406 269.125 C 123.386719 274.265625 122.820312 282.023438 117.683594 286.464844 C 115.359375 288.484375 112.492188 289.46875 109.640625 289.46875 " fill-opacity="1" fill-rule="nonzero"/><path fill="#000000" d="M 648.855469 297.011719 C 644.472656 297.011719 640.03125 296.625 635.550781 295.847656 C 628.855469 294.679688 624.375 288.3125 625.535156 281.625 C 626.691406 274.933594 633.039062 270.46875 639.765625 271.609375 C 657.164062 274.597656 673.820312 268.726562 685.484375 255.429688 C 689.960938 250.316406 697.734375 249.820312 702.84375 254.289062 C 707.957031 258.769531 708.46875 266.539062 703.988281 271.648438 C 689.527344 288.121094 669.941406 297.011719 648.855469 297.011719 " fill-opacity="1" fill-rule="nonzero"/><path fill="#000000" d="M 711.171875 240.851562 C 710.476562 240.851562 709.769531 240.789062 709.050781 240.671875 C 702.359375 239.503906 697.875 233.136719 699.039062 226.4375 C 701.519531 212.214844 698.28125 197.863281 689.921875 186.058594 C 681.570312 174.226562 669.085938 166.347656 654.78125 163.859375 C 628.296875 159.332031 602.832031 174.394531 594.300781 199.75 C 592.136719 206.1875 585.199219 209.644531 578.714844 207.496094 C 572.277344 205.320312 568.808594 198.355469 570.976562 191.917969 C 583.40625 154.976562 620.445312 133.007812 658.972656 139.625 C 679.757812 143.230469 697.878906 154.675781 710.027344 171.859375 C 722.179688 189.058594 726.890625 209.933594 723.285156 230.664062 C 722.242188 236.632812 717.042969 240.851562 711.171875 240.851562 " fill-opacity="1" fill-rule="nonzero"/><path fill="#000000" d="M 145.746094 359.007812 C 86.835938 359.007812 33.101562 322.351562 12.59375 265.328125 C 9.816406 257.613281 7.691406 249.570312 6.277344 241.425781 C 5.117188 234.722656 9.605469 228.359375 16.304688 227.203125 C 23.0625 226.0625 29.367188 230.535156 30.523438 237.222656 C 31.691406 243.972656 33.449219 250.625 35.746094 257.003906 C 54.964844 310.414062 109.484375 342.242188 165.5 332.742188 C 169.554688 331.746094 174 332.828125 177.167969 335.984375 C 181.972656 340.789062 181.972656 348.570312 177.167969 353.378906 C 175.351562 355.1875 172.792969 356.4375 170.199219 356.898438 C 162 358.3125 153.820312 359.007812 145.746094 359.007812 " fill-opacity="1" fill-rule="nonzero"/><path fill="#000000" d="M 17.832031 210.921875 C 17.238281 210.921875 16.640625 210.882812 16.039062 210.789062 C 9.316406 209.8125 4.664062 203.570312 5.636719 196.855469 C 13.007812 146.15625 47.300781 103.292969 95.125 84.988281 C 103.6875 81.710938 112.664062 79.234375 121.800781 77.664062 C 128.527344 76.523438 134.867188 80.988281 136.019531 87.691406 C 137.179688 94.382812 132.6875 100.746094 125.992188 101.898438 C 118.429688 103.210938 111.003906 105.238281 103.929688 107.953125 C 64.40625 123.085938 36.082031 158.503906 29.992188 200.382812 C 29.101562 206.511719 23.839844 210.921875 17.832031 210.921875 " fill-opacity="1" fill-rule="nonzero"/><path fill="#000000" d="M 268.507812 187.941406 C 263.371094 187.941406 258.582031 184.710938 256.851562 179.585938 C 244.707031 143.660156 215.644531 115.757812 179.113281 104.949219 C 172.59375 103.015625 168.875 96.183594 170.804688 89.660156 C 172.734375 83.152344 179.601562 79.417969 186.09375 81.359375 C 230.292969 94.441406 265.464844 128.214844 280.164062 171.703125 C 282.339844 178.140625 278.882812 185.121094 272.449219 187.292969 C 271.140625 187.738281 269.8125 187.941406 268.507812 187.941406 " fill-opacity="1" fill-rule="nonzero"/><g clip-path="url(#5996541551)"><path fill="#000000" d="M 541.84375 175.191406 C 540.972656 175.191406 540.097656 175.105469 539.222656 174.910156 C 532.582031 173.46875 528.367188 166.921875 529.800781 160.28125 C 542.082031 103.652344 586.988281 60.667969 644.210938 50.757812 C 654.335938 49.015625 664.601562 48.378906 674.710938 48.789062 C 681.503906 49.074219 686.765625 54.816406 686.46875 61.605469 C 686.175781 68.390625 680.695312 73.9375 673.644531 73.359375 C 665.296875 73 656.785156 73.554688 648.402344 74.996094 C 601.113281 83.171875 563.996094 118.703125 553.855469 165.496094 C 552.609375 171.25 547.503906 175.191406 541.84375 175.191406 " fill-opacity="1" fill-rule="nonzero"/></g><g clip-path="url(#8621d4188b)"><path fill="#000000" d="M 782.109375 264.414062 C 780.125 264.414062 778.113281 263.933594 776.242188 262.925781 C 770.273438 259.667969 768.058594 252.210938 771.308594 246.242188 C 784.027344 222.855469 788.339844 196.613281 783.789062 170.347656 C 777.457031 133.777344 753.808594 102.054688 720.546875 85.492188 C 714.457031 82.453125 711.992188 75.078125 715.019531 68.988281 C 718.039062 62.925781 725.414062 60.425781 731.515625 63.464844 C 771.765625 83.511719 800.371094 121.894531 808.035156 166.144531 C 813.546875 197.9375 808.320312 229.691406 792.925781 257.988281 C 790.695312 262.097656 786.46875 264.414062 782.109375 264.414062 " fill-opacity="1" fill-rule="nonzero"/></g><path fill="#000000" d="M 667.953125 332.117188 C 661.738281 332.117188 655.527344 331.710938 649.347656 330.902344 C 642.609375 330.039062 637.855469 323.867188 638.734375 317.128906 C 639.605469 310.390625 645.757812 305.574219 652.519531 306.523438 C 664.4375 308.058594 676.507812 307.808594 688.421875 305.765625 C 713.902344 301.347656 736.65625 288.988281 754.21875 270.035156 C 758.839844 265.039062 766.605469 264.75 771.613281 269.375 C 776.589844 273.988281 776.894531 281.769531 772.277344 286.753906 C 751.019531 309.695312 723.464844 324.660156 692.609375 330.003906 C 684.433594 331.410156 676.183594 332.117188 667.953125 332.117188 " fill-opacity="1" fill-rule="nonzero"/></svg>