<svg xmlns="http://www.w3.org/2000/svg" xmlns:xlink="http://www.w3.org/1999/xlink" width="600" zoomAndPan="magnify" viewBox="0 0 450 284.999983" height="380" preserveAspectRatio="xMidYMid meet" version="1.0"><defs><g/><clipPath id="8176c4b40b"><path d="M 369 144 L 398 144 L 398 161.390625 L 369 161.390625 Z M 369 144 " clip-rule="nonzero"/></clipPath><clipPath id="5d29a4f06d"><path d="M 326 144 L 355 144 L 355 161.390625 L 326 161.390625 Z M 326 144 " clip-rule="nonzero"/></clipPath><clipPath id="de954529ca"><path d="M 345.429688 129.601562 L 377.1875 129.601562 L 377.1875 161.375 L 345.429688 161.375 Z M 345.429688 129.601562 " clip-rule="nonzero"/></clipPath><clipPath id="52400c9a1f"><path d="M 387 1.640625 L 423 1.640625 L 423 31 L 387 31 Z M 387 1.640625 " clip-rule="nonzero"/></clipPath><clipPath id="84db0d114a"><path d="M 428.398438 4.699219 L 450 4.699219 L 450 50.046875 L 428.398438 50.046875 Z M 428.398438 4.699219 " clip-rule="nonzero"/></clipPath><clipPath id="e6e8947d9f"><path d="M 234 178 L 263 178 L 263 195.433594 L 234 195.433594 Z M 234 178 " clip-rule="nonzero"/></clipPath><clipPath id="b32f7a7402"><path d="M 191 178 L 220 178 L 220 195.433594 L 191 195.433594 Z M 191 178 " clip-rule="nonzero"/></clipPath><clipPath id="e983255d87"><path d="M 210.429688 163.644531 L 242.1875 163.644531 L 242.1875 195.421875 L 210.429688 195.421875 Z M 210.429688 163.644531 " clip-rule="nonzero"/></clipPath><clipPath id="b6fbd3ad0f"><path d="M 252 35.683594 L 288 35.683594 L 288 65 L 252 65 Z M 252 35.683594 " clip-rule="nonzero"/></clipPath><clipPath id="fcdf8e45da"><path d="M 293.398438 38.742188 L 315 38.742188 L 315 84.089844 L 293.398438 84.089844 Z M 293.398438 38.742188 " clip-rule="nonzero"/></clipPath><clipPath id="e0b92a11be"><path d="M 99 144 L 128 144 L 128 161.390625 L 99 161.390625 Z M 99 144 " clip-rule="nonzero"/></clipPath><clipPath id="bd23466b51"><path d="M 56 144 L 85 144 L 85 161.390625 L 56 161.390625 Z M 56 144 " clip-rule="nonzero"/></clipPath><clipPath id="fe601de059"><path d="M 75.429688 129.601562 L 107.1875 129.601562 L 107.1875 161.375 L 75.429688 161.375 Z M 75.429688 129.601562 " clip-rule="nonzero"/></clipPath><clipPath id="bd28094799"><path d="M 117 1.640625 L 153 1.640625 L 153 31 L 117 31 Z M 117 1.640625 " clip-rule="nonzero"/></clipPath><clipPath id="0c5ab1731b"><path d="M 158.398438 4.699219 L 180 4.699219 L 180 50.046875 L 158.398438 50.046875 Z M 158.398438 4.699219 " clip-rule="nonzero"/></clipPath></defs><rect x="-45" width="540" fill="#ffffff" y="-28.499998" height="341.99998" fill-opacity="1"/><rect x="-45" width="540" fill="#ffffff" y="-28.499998" height="341.99998" fill-opacity="1"/><rect x="-45" width="540" fill="#ffffff" y="-28.499998" height="341.99998" fill-opacity="1"/><path fill="#000000" d="M 372.082031 150.316406 C 371.476562 150.316406 370.867188 150.117188 370.359375 149.707031 C 369.175781 148.753906 368.992188 147.015625 369.941406 145.832031 L 383.25 129.289062 C 384.203125 128.101562 385.929688 127.914062 387.113281 128.871094 C 388.296875 129.824219 388.484375 131.558594 387.53125 132.742188 L 374.226562 149.289062 C 373.683594 149.964844 372.886719 150.316406 372.082031 150.316406 " fill-opacity="1" fill-rule="nonzero"/><g clip-path="url(#8176c4b40b)"><path fill="#000000" d="M 394.6875 161.183594 C 394.285156 161.183594 393.882812 161.097656 393.5 160.910156 L 370.894531 150.042969 C 369.523438 149.386719 368.949219 147.742188 369.605469 146.367188 C 370.265625 144.996094 371.910156 144.414062 373.273438 145.078125 L 395.878906 155.945312 C 397.246094 156.601562 397.824219 158.25 397.167969 159.621094 C 396.695312 160.609375 395.710938 161.183594 394.6875 161.183594 " fill-opacity="1" fill-rule="nonzero"/></g><path fill="#000000" d="M 351.566406 150.316406 C 350.765625 150.316406 349.96875 149.964844 349.421875 149.289062 L 336.117188 132.742188 C 335.167969 131.558594 335.351562 129.824219 336.535156 128.871094 C 337.71875 127.914062 339.449219 128.101562 340.402344 129.289062 L 353.707031 145.832031 C 354.660156 147.015625 354.472656 148.753906 353.289062 149.707031 C 352.78125 150.117188 352.171875 150.316406 351.566406 150.316406 " fill-opacity="1" fill-rule="nonzero"/><g clip-path="url(#5d29a4f06d)"><path fill="#000000" d="M 328.964844 161.183594 C 327.9375 161.183594 326.957031 160.609375 326.484375 159.621094 C 325.824219 158.25 326.402344 156.601562 327.773438 155.945312 L 350.375 145.078125 C 351.742188 144.414062 353.386719 144.996094 354.042969 146.367188 C 354.703125 147.742188 354.125 149.386719 352.753906 150.042969 L 330.152344 160.910156 C 329.765625 161.097656 329.363281 161.183594 328.964844 161.183594 " fill-opacity="1" fill-rule="nonzero"/></g><path fill="#b2b2b2" d="M 328.972656 30.167969 L 306.59375 68.015625 C 306.59375 68.046875 306.535156 68.046875 306.507812 68.046875 C 290.976562 70.746094 276.15625 60.441406 273.1875 44.988281 C 273.160156 44.796875 273.105469 44.601562 273.078125 44.410156 C 270.355469 28.652344 280.914062 13.667969 296.640625 10.941406 C 305.328125 9.425781 313.796875 11.960938 320.09375 17.222656 C 324.105469 20.554688 327.210938 24.988281 328.972656 30.167969 " fill-opacity="1" fill-rule="nonzero"/><path fill="#6b6161" d="M 328.972656 30.167969 L 306.59375 68.015625 C 306.59375 68.046875 306.535156 68.046875 306.507812 68.046875 C 290.976562 70.746094 276.15625 60.441406 273.1875 44.988281 C 285.0625 51.570312 299.25 52.5625 310.714844 33.03125 C 314.402344 26.75 317.507812 21.546875 320.09375 17.222656 C 324.105469 20.554688 327.210938 24.988281 328.972656 30.167969 " fill-opacity="1" fill-rule="nonzero"/><path fill="#b2b2b2" d="M 423.25 62.011719 C 420.253906 62.535156 417.285156 62.589844 414.425781 62.207031 L 412.71875 59.78125 L 390.039062 27.304688 C 392.457031 16.117188 401.449219 6.972656 413.378906 4.90625 C 416.488281 4.355469 419.59375 4.355469 422.535156 4.769531 C 434.578125 6.558594 444.640625 15.871094 446.8125 28.515625 C 449.535156 44.273438 438.976562 59.285156 423.25 62.011719 " fill-opacity="1" fill-rule="nonzero"/><path fill="#6b6161" d="M 423.25 62.011719 C 420.253906 62.535156 417.285156 62.589844 414.425781 62.207031 L 412.71875 59.78125 C 422.261719 53.804688 433.425781 40.910156 426.027344 14.660156 C 424.957031 10.855469 423.773438 7.578125 422.535156 4.769531 C 434.578125 6.558594 444.640625 15.871094 446.8125 28.515625 C 449.535156 44.273438 438.976562 59.285156 423.25 62.011719 " fill-opacity="1" fill-rule="nonzero"/><path fill="#b2b2b2" d="M 418.328125 87.546875 C 418.328125 114.40625 390.53125 137.738281 373.761719 149.363281 C 366.253906 154.570312 356.355469 154.570312 348.851562 149.363281 C 342.363281 144.875 334.222656 138.621094 326.71875 131.101562 C 314.757812 119.171875 304.308594 104.019531 304.308594 87.546875 C 304.308594 49.066406 329.824219 17.855469 361.304688 17.855469 C 366.035156 17.855469 370.597656 18.542969 374.972656 19.894531 C 399.851562 27.359375 418.328125 54.824219 418.328125 87.546875 " fill-opacity="1" fill-rule="nonzero"/><path fill="#6b6161" d="M 418.328125 87.546875 C 418.328125 114.40625 390.53125 137.738281 373.761719 149.363281 C 366.253906 154.570312 356.355469 154.570312 348.851562 149.363281 C 342.363281 144.875 334.222656 138.621094 326.71875 131.101562 C 355.285156 120.851562 388.5 98.125 378.738281 48.457031 C 376.566406 37.441406 375.382812 27.964844 374.972656 19.894531 C 399.851562 27.359375 418.328125 54.824219 418.328125 87.546875 " fill-opacity="1" fill-rule="nonzero"/><path fill="#000000" d="M 333.609375 102.8125 C 333.609375 105.382812 331.53125 107.46875 328.960938 107.46875 C 326.394531 107.46875 324.3125 105.382812 324.3125 102.8125 C 324.3125 100.238281 326.394531 98.152344 328.960938 98.152344 C 331.53125 98.152344 333.609375 100.238281 333.609375 102.8125 " fill-opacity="1" fill-rule="nonzero"/><path fill="#000000" d="M 328.960938 99.53125 C 327.15625 99.53125 325.6875 101.003906 325.6875 102.808594 C 325.6875 104.621094 327.15625 106.09375 328.960938 106.09375 C 330.765625 106.09375 332.234375 104.621094 332.234375 102.808594 C 332.234375 101.003906 330.765625 99.53125 328.960938 99.53125 Z M 328.960938 108.847656 C 325.640625 108.847656 322.9375 106.136719 322.9375 102.808594 C 322.9375 99.480469 325.640625 96.777344 328.960938 96.777344 C 332.28125 96.777344 334.984375 99.480469 334.984375 102.808594 C 334.984375 106.136719 332.28125 108.847656 328.960938 108.847656 " fill-opacity="1" fill-rule="nonzero"/><path fill="#000000" d="M 394.6875 102.8125 C 394.6875 105.382812 392.605469 107.46875 390.039062 107.46875 C 387.472656 107.46875 385.390625 105.382812 385.390625 102.8125 C 385.390625 100.238281 387.472656 98.152344 390.039062 98.152344 C 392.605469 98.152344 394.6875 100.238281 394.6875 102.8125 " fill-opacity="1" fill-rule="nonzero"/><path fill="#000000" d="M 390.039062 99.53125 C 388.234375 99.53125 386.765625 101.003906 386.765625 102.808594 C 386.765625 104.621094 388.234375 106.09375 390.039062 106.09375 C 391.84375 106.09375 393.3125 104.621094 393.3125 102.808594 C 393.3125 101.003906 391.84375 99.53125 390.039062 99.53125 Z M 390.039062 108.847656 C 386.71875 108.847656 384.015625 106.136719 384.015625 102.808594 C 384.015625 99.480469 386.71875 96.777344 390.039062 96.777344 C 393.359375 96.777344 396.0625 99.480469 396.0625 102.808594 C 396.0625 106.136719 393.359375 108.847656 390.039062 108.847656 " fill-opacity="1" fill-rule="nonzero"/><path fill="#000000" d="M 375.78125 145.507812 C 375.78125 153.511719 369.304688 160 361.316406 160 C 353.328125 160 346.851562 153.511719 346.851562 145.507812 C 346.851562 137.503906 353.328125 131.015625 361.316406 131.015625 C 369.304688 131.015625 375.78125 137.503906 375.78125 145.507812 " fill-opacity="1" fill-rule="nonzero"/><g clip-path="url(#de954529ca)"><path fill="#000000" d="M 361.316406 132.394531 C 354.101562 132.394531 348.226562 138.277344 348.226562 145.507812 C 348.226562 152.738281 354.101562 158.621094 361.316406 158.621094 C 368.535156 158.621094 374.40625 152.738281 374.40625 145.507812 C 374.40625 138.277344 368.535156 132.394531 361.316406 132.394531 Z M 361.316406 161.375 C 352.585938 161.375 345.476562 154.257812 345.476562 145.507812 C 345.476562 136.757812 352.585938 129.640625 361.316406 129.640625 C 370.050781 129.640625 377.15625 136.757812 377.15625 145.507812 C 377.15625 154.257812 370.050781 161.375 361.316406 161.375 " fill-opacity="1" fill-rule="nonzero"/></g><path fill="#ffe3e6" d="M 318.800781 38.375 L 307.308594 57.824219 C 307.28125 57.851562 307.28125 57.851562 307.25 57.851562 C 299.882812 59.148438 292.816406 54.710938 290.589844 47.769531 C 290.371094 47.109375 290.207031 46.421875 290.066406 45.703125 C 288.664062 37.605469 294.082031 29.890625 302.191406 28.488281 C 305.820312 27.855469 309.339844 28.597656 312.285156 30.359375 C 315.28125 32.125 317.644531 34.933594 318.800781 38.375 " fill-opacity="1" fill-rule="nonzero"/><path fill="#ffbcd0" d="M 318.800781 38.375 L 307.308594 57.824219 C 307.28125 57.851562 307.28125 57.851562 307.25 57.851562 C 299.882812 59.148438 292.816406 54.710938 290.589844 47.769531 C 298.316406 46.640625 307.964844 42.617188 312.285156 30.359375 C 315.28125 32.125 317.644531 34.933594 318.800781 38.375 " fill-opacity="1" fill-rule="nonzero"/><path fill="#ffe3e6" d="M 427.871094 42.011719 C 426.46875 50.140625 419.539062 55.785156 411.457031 54.382812 L 408.074219 48.953125 L 399.167969 34.6875 C 401.449219 27.855469 408.433594 23.558594 415.746094 24.796875 C 416.046875 24.851562 416.324219 24.90625 416.625 24.988281 C 424.242188 26.777344 429.21875 34.21875 427.871094 42.011719 " fill-opacity="1" fill-rule="nonzero"/><path fill="#ffbcd0" d="M 427.871094 42.011719 C 426.46875 50.140625 419.539062 55.785156 411.457031 54.382812 L 408.074219 48.953125 C 415.332031 47.300781 423.636719 42.785156 418.632812 30.359375 C 417.78125 28.265625 417.121094 26.476562 416.625 24.988281 C 424.242188 26.777344 429.21875 34.21875 427.871094 42.011719 " fill-opacity="1" fill-rule="nonzero"/><path fill="#000000" d="M 312.75 116.675781 C 311.832031 116.675781 310.9375 116.222656 310.417969 115.382812 C 304.542969 105.976562 301.566406 96.609375 301.566406 87.542969 C 301.566406 47.59375 328.371094 15.097656 361.316406 15.097656 C 364.179688 15.097656 367.050781 15.34375 369.847656 15.828125 C 371.34375 16.089844 372.34375 17.515625 372.085938 19.011719 C 371.828125 20.511719 370.410156 21.511719 368.90625 21.253906 C 366.421875 20.824219 363.867188 20.605469 361.316406 20.605469 C 331.402344 20.605469 307.066406 50.632812 307.066406 87.542969 C 307.066406 95.558594 309.761719 103.945312 315.078125 112.460938 C 315.882812 113.75 315.492188 115.453125 314.207031 116.257812 C 313.753906 116.542969 313.25 116.675781 312.75 116.675781 " fill-opacity="1" fill-rule="nonzero"/><path fill="#000000" d="M 361.316406 155.988281 C 356.402344 155.988281 351.488281 154.535156 347.296875 151.625 C 337.636719 144.925781 329.234375 137.832031 322.328125 130.539062 C 321.28125 129.433594 321.328125 127.691406 322.425781 126.640625 C 323.527344 125.59375 325.269531 125.640625 326.3125 126.746094 C 334.597656 135.488281 344 142.636719 350.425781 147.09375 C 357.039062 151.683594 365.589844 151.683594 372.207031 147.09375 C 380.945312 141.035156 393.304688 131.335938 402.578125 119.519531 C 403.519531 118.320312 405.253906 118.121094 406.441406 119.054688 C 407.632812 119.996094 407.839844 121.730469 406.902344 122.925781 C 397.203125 135.28125 384.382812 145.351562 375.339844 151.625 C 371.144531 154.535156 366.230469 155.988281 361.316406 155.988281 " fill-opacity="1" fill-rule="nonzero"/><path fill="#000000" d="M 410.164062 116.222656 C 409.675781 116.222656 409.175781 116.089844 408.726562 115.8125 C 407.433594 115.015625 407.03125 113.316406 407.828125 112.019531 C 412.964844 103.65625 415.570312 95.421875 415.570312 87.542969 C 415.570312 58.214844 399.671875 31.84375 376.90625 23.417969 C 375.484375 22.890625 374.753906 21.304688 375.28125 19.875 C 375.808594 18.453125 377.390625 17.722656 378.8125 18.246094 C 404.089844 27.601562 421.066406 55.449219 421.066406 87.542969 C 421.066406 96.457031 418.1875 105.664062 412.507812 114.910156 C 411.988281 115.753906 411.089844 116.222656 410.164062 116.222656 " fill-opacity="1" fill-rule="nonzero"/><path fill="#000000" d="M 304.71875 60.820312 C 302.75 60.820312 300.792969 60.492188 298.933594 59.84375 C 297.5 59.34375 296.742188 57.773438 297.242188 56.335938 C 297.742188 54.902344 299.308594 54.136719 300.742188 54.640625 C 302.644531 55.300781 304.699219 55.476562 306.695312 55.148438 C 307.523438 54.960938 308.421875 55.164062 309.109375 55.761719 C 310.25 56.765625 310.367188 58.507812 309.367188 59.648438 C 308.949219 60.132812 308.351562 60.453125 307.722656 60.5625 C 306.730469 60.734375 305.722656 60.820312 304.71875 60.820312 " fill-opacity="1" fill-rule="nonzero"/><path fill="#000000" d="M 293.460938 55.65625 C 292.691406 55.65625 291.921875 55.332031 291.378906 54.703125 C 289.292969 52.289062 287.902344 49.339844 287.355469 46.179688 C 286.554688 41.53125 287.605469 36.851562 290.316406 33 C 293.027344 29.148438 297.074219 26.585938 301.710938 25.78125 C 310.328125 24.296875 318.601562 29.214844 321.390625 37.496094 C 321.878906 38.9375 321.105469 40.5 319.667969 40.988281 C 318.222656 41.476562 316.667969 40.699219 316.183594 39.261719 C 314.261719 33.570312 308.5625 30.175781 302.648438 31.210938 C 299.457031 31.761719 296.675781 33.527344 294.808594 36.175781 C 292.945312 38.824219 292.222656 42.042969 292.773438 45.234375 C 293.148438 47.414062 294.105469 49.441406 295.539062 51.097656 C 296.53125 52.25 296.40625 53.988281 295.257812 54.980469 C 294.738281 55.433594 294.097656 55.65625 293.460938 55.65625 " fill-opacity="1" fill-rule="nonzero"/><path fill="#000000" d="M 413.957031 57.34375 C 412.976562 57.34375 411.984375 57.257812 410.980469 57.082031 C 409.488281 56.824219 408.484375 55.394531 408.742188 53.898438 C 409.003906 52.398438 410.421875 51.398438 411.925781 51.65625 C 415.8125 52.324219 419.535156 51.007812 422.140625 48.03125 C 423.140625 46.886719 424.878906 46.773438 426.019531 47.773438 C 427.164062 48.777344 427.277344 50.519531 426.273438 51.664062 C 423.042969 55.351562 418.667969 57.34375 413.957031 57.34375 " fill-opacity="1" fill-rule="nonzero"/><path fill="#000000" d="M 427.882812 44.765625 C 427.726562 44.765625 427.566406 44.75 427.40625 44.726562 C 425.910156 44.464844 424.910156 43.039062 425.167969 41.535156 C 425.722656 38.351562 425 35.136719 423.132812 32.492188 C 421.265625 29.84375 418.476562 28.078125 415.28125 27.519531 C 409.363281 26.507812 403.671875 29.878906 401.765625 35.558594 C 401.28125 37 399.730469 37.777344 398.28125 37.292969 C 396.84375 36.808594 396.066406 35.246094 396.550781 33.804688 C 399.328125 25.53125 407.605469 20.609375 416.214844 22.09375 C 420.859375 22.898438 424.910156 25.464844 427.625 29.3125 C 430.339844 33.164062 431.394531 37.839844 430.585938 42.484375 C 430.355469 43.820312 429.191406 44.765625 427.882812 44.765625 " fill-opacity="1" fill-rule="nonzero"/><path fill="#000000" d="M 301.527344 71.230469 C 288.363281 71.230469 276.355469 63.019531 271.773438 50.246094 C 271.152344 48.519531 270.679688 46.71875 270.363281 44.894531 C 270.105469 43.394531 271.105469 41.96875 272.601562 41.707031 C 274.113281 41.453125 275.523438 42.453125 275.78125 43.953125 C 276.042969 45.464844 276.433594 46.953125 276.949219 48.382812 C 281.242188 60.347656 293.425781 67.476562 305.941406 65.347656 C 306.847656 65.125 307.84375 65.367188 308.550781 66.074219 C 309.625 67.148438 309.625 68.894531 308.550781 69.96875 C 308.144531 70.375 307.574219 70.65625 306.992188 70.757812 C 305.160156 71.074219 303.332031 71.230469 301.527344 71.230469 " fill-opacity="1" fill-rule="nonzero"/><path fill="#000000" d="M 272.945312 38.0625 C 272.8125 38.0625 272.679688 38.054688 272.542969 38.03125 C 271.042969 37.8125 270 36.414062 270.21875 34.910156 C 271.867188 23.554688 279.527344 13.953125 290.21875 9.855469 C 292.128906 9.121094 294.136719 8.566406 296.175781 8.214844 C 297.679688 7.957031 299.097656 8.960938 299.355469 10.460938 C 299.613281 11.960938 298.609375 13.382812 297.113281 13.644531 C 295.425781 13.9375 293.765625 14.390625 292.183594 15 C 283.351562 18.386719 277.023438 26.320312 275.660156 35.703125 C 275.460938 37.074219 274.285156 38.0625 272.945312 38.0625 " fill-opacity="1" fill-rule="nonzero"/><path fill="#000000" d="M 328.960938 32.914062 C 327.8125 32.914062 326.742188 32.191406 326.355469 31.042969 C 323.644531 22.996094 317.148438 16.746094 308.984375 14.324219 C 307.527344 13.894531 306.699219 12.363281 307.128906 10.902344 C 307.558594 9.445312 309.09375 8.605469 310.546875 9.042969 C 320.421875 11.972656 328.28125 19.539062 331.566406 29.277344 C 332.050781 30.71875 331.28125 32.28125 329.84375 32.769531 C 329.550781 32.871094 329.253906 32.914062 328.960938 32.914062 " fill-opacity="1" fill-rule="nonzero"/><g clip-path="url(#52400c9a1f)"><path fill="#000000" d="M 390.042969 30.058594 C 389.847656 30.058594 389.652344 30.039062 389.457031 29.996094 C 387.972656 29.671875 387.03125 28.207031 387.351562 26.71875 C 390.09375 14.035156 400.128906 4.40625 412.917969 2.1875 C 415.179688 1.796875 417.472656 1.65625 419.734375 1.746094 C 421.25 1.8125 422.425781 3.097656 422.359375 4.617188 C 422.296875 6.136719 421.070312 7.378906 419.496094 7.25 C 417.628906 7.171875 415.726562 7.292969 413.855469 7.617188 C 403.285156 9.449219 394.992188 17.40625 392.726562 27.886719 C 392.449219 29.175781 391.308594 30.058594 390.042969 30.058594 " fill-opacity="1" fill-rule="nonzero"/></g><g clip-path="url(#84db0d114a)"><path fill="#000000" d="M 443.730469 50.042969 C 443.289062 50.042969 442.839844 49.933594 442.421875 49.710938 C 441.085938 48.980469 440.59375 47.308594 441.320312 45.972656 C 444.160156 40.734375 445.125 34.855469 444.109375 28.972656 C 442.695312 20.78125 437.410156 13.679688 429.976562 9.96875 C 428.613281 9.289062 428.0625 7.636719 428.742188 6.273438 C 429.414062 4.914062 431.0625 4.355469 432.425781 5.035156 C 441.421875 9.523438 447.8125 18.121094 449.527344 28.03125 C 450.757812 35.152344 449.589844 42.265625 446.148438 48.605469 C 445.652344 49.523438 444.707031 50.042969 443.730469 50.042969 " fill-opacity="1" fill-rule="nonzero"/></g><path fill="#000000" d="M 418.222656 65.207031 C 416.835938 65.207031 415.445312 65.117188 414.066406 64.933594 C 412.558594 64.742188 411.496094 63.359375 411.695312 61.851562 C 411.886719 60.339844 413.261719 59.261719 414.773438 59.476562 C 417.4375 59.820312 420.136719 59.761719 422.796875 59.304688 C 428.492188 58.316406 433.574219 55.546875 437.5 51.300781 C 438.53125 50.183594 440.269531 50.117188 441.386719 51.152344 C 442.5 52.1875 442.566406 53.929688 441.535156 55.046875 C 436.785156 60.183594 430.628906 63.535156 423.734375 64.734375 C 421.90625 65.046875 420.0625 65.207031 418.222656 65.207031 " fill-opacity="1" fill-rule="nonzero"/><path fill="#000000" d="M 237.082031 184.359375 C 236.476562 184.359375 235.867188 184.160156 235.359375 183.75 C 234.175781 182.796875 233.992188 181.0625 234.941406 179.875 L 248.25 163.332031 C 249.203125 162.144531 250.929688 161.957031 252.113281 162.914062 C 253.296875 163.867188 253.484375 165.601562 252.53125 166.785156 L 239.226562 183.332031 C 238.683594 184.007812 237.886719 184.359375 237.082031 184.359375 " fill-opacity="1" fill-rule="nonzero"/><g clip-path="url(#e6e8947d9f)"><path fill="#000000" d="M 259.6875 195.226562 C 259.285156 195.226562 258.882812 195.140625 258.5 194.953125 L 235.894531 184.085938 C 234.523438 183.429688 233.949219 181.785156 234.605469 180.410156 C 235.265625 179.039062 236.910156 178.457031 238.273438 179.121094 L 260.878906 189.988281 C 262.246094 190.644531 262.824219 192.292969 262.167969 193.664062 C 261.695312 194.652344 260.710938 195.226562 259.6875 195.226562 " fill-opacity="1" fill-rule="nonzero"/></g><path fill="#000000" d="M 216.566406 184.359375 C 215.765625 184.359375 214.96875 184.007812 214.425781 183.332031 L 201.117188 166.785156 C 200.167969 165.601562 200.351562 163.867188 201.535156 162.914062 C 202.71875 161.957031 204.449219 162.144531 205.402344 163.332031 L 218.707031 179.875 C 219.660156 181.0625 219.472656 182.796875 218.289062 183.75 C 217.78125 184.160156 217.171875 184.359375 216.566406 184.359375 " fill-opacity="1" fill-rule="nonzero"/><g clip-path="url(#b32f7a7402)"><path fill="#000000" d="M 193.964844 195.226562 C 192.9375 195.226562 191.957031 194.652344 191.484375 193.664062 C 190.824219 192.292969 191.402344 190.644531 192.773438 189.988281 L 215.375 179.121094 C 216.742188 178.457031 218.386719 179.039062 219.042969 180.410156 C 219.703125 181.785156 219.125 183.429688 217.753906 184.085938 L 195.152344 194.953125 C 194.765625 195.140625 194.363281 195.226562 193.964844 195.226562 " fill-opacity="1" fill-rule="nonzero"/></g><path fill="#e1b49a" d="M 193.972656 64.210938 L 171.59375 102.0625 C 171.59375 102.089844 171.535156 102.089844 171.507812 102.089844 C 155.976562 104.789062 141.15625 94.484375 138.1875 79.03125 C 138.160156 78.839844 138.105469 78.644531 138.078125 78.453125 C 135.355469 62.695312 145.914062 47.710938 161.640625 44.984375 C 170.328125 43.46875 178.796875 46.003906 185.09375 51.265625 C 189.105469 54.597656 192.210938 59.03125 193.972656 64.210938 " fill-opacity="1" fill-rule="nonzero"/><path fill="#a67a64" d="M 193.972656 64.210938 L 171.59375 102.0625 C 171.59375 102.089844 171.535156 102.089844 171.507812 102.089844 C 155.976562 104.789062 141.15625 94.484375 138.1875 79.03125 C 150.0625 85.613281 164.25 86.605469 175.714844 67.074219 C 179.402344 60.792969 182.507812 55.589844 185.09375 51.265625 C 189.105469 54.597656 192.210938 59.03125 193.972656 64.210938 " fill-opacity="1" fill-rule="nonzero"/><path fill="#e1b49a" d="M 288.25 96.054688 C 285.253906 96.578125 282.285156 96.632812 279.425781 96.25 L 277.71875 93.824219 L 255.039062 61.347656 C 257.457031 50.160156 266.449219 41.015625 278.378906 38.949219 C 281.488281 38.398438 284.59375 38.398438 287.535156 38.8125 C 299.578125 40.601562 309.640625 49.914062 311.8125 62.558594 C 314.535156 78.316406 303.976562 93.328125 288.25 96.054688 " fill-opacity="1" fill-rule="nonzero"/><path fill="#a67a64" d="M 288.25 96.054688 C 285.253906 96.578125 282.285156 96.632812 279.425781 96.25 L 277.71875 93.824219 C 287.261719 87.847656 298.425781 74.953125 291.027344 48.703125 C 289.957031 44.898438 288.773438 41.621094 287.535156 38.8125 C 299.578125 40.601562 309.640625 49.914062 311.8125 62.558594 C 314.535156 78.316406 303.976562 93.328125 288.25 96.054688 " fill-opacity="1" fill-rule="nonzero"/><path fill="#e1b49a" d="M 283.328125 121.589844 C 283.328125 148.449219 255.53125 171.78125 238.761719 183.40625 C 231.253906 188.613281 221.355469 188.613281 213.851562 183.40625 C 207.363281 178.917969 199.222656 172.664062 191.71875 165.144531 C 179.757812 153.214844 169.308594 138.0625 169.308594 121.589844 C 169.308594 83.109375 194.824219 51.898438 226.304688 51.898438 C 231.035156 51.898438 235.597656 52.585938 239.972656 53.9375 C 264.851562 61.402344 283.328125 88.867188 283.328125 121.589844 " fill-opacity="1" fill-rule="nonzero"/><path fill="#a67a64" d="M 283.328125 121.589844 C 283.328125 148.449219 255.53125 171.78125 238.761719 183.40625 C 231.253906 188.613281 221.355469 188.613281 213.851562 183.40625 C 207.363281 178.917969 199.222656 172.664062 191.71875 165.144531 C 220.285156 154.894531 253.5 132.167969 243.738281 82.5 C 241.566406 71.484375 240.382812 62.007812 239.972656 53.9375 C 264.851562 61.402344 283.328125 88.867188 283.328125 121.589844 " fill-opacity="1" fill-rule="nonzero"/><path fill="#000000" d="M 198.609375 136.855469 C 198.609375 139.425781 196.53125 141.511719 193.960938 141.511719 C 191.394531 141.511719 189.3125 139.425781 189.3125 136.855469 C 189.3125 134.28125 191.394531 132.195312 193.960938 132.195312 C 196.53125 132.195312 198.609375 134.28125 198.609375 136.855469 " fill-opacity="1" fill-rule="nonzero"/><path fill="#000000" d="M 193.960938 133.574219 C 192.15625 133.574219 190.6875 135.046875 190.6875 136.851562 C 190.6875 138.664062 192.15625 140.136719 193.960938 140.136719 C 195.765625 140.136719 197.234375 138.664062 197.234375 136.851562 C 197.234375 135.046875 195.765625 133.574219 193.960938 133.574219 Z M 193.960938 142.890625 C 190.640625 142.890625 187.9375 140.179688 187.9375 136.851562 C 187.9375 133.527344 190.640625 130.820312 193.960938 130.820312 C 197.28125 130.820312 199.984375 133.527344 199.984375 136.851562 C 199.984375 140.179688 197.28125 142.890625 193.960938 142.890625 " fill-opacity="1" fill-rule="nonzero"/><path fill="#000000" d="M 259.6875 136.855469 C 259.6875 139.425781 257.605469 141.511719 255.039062 141.511719 C 252.472656 141.511719 250.390625 139.425781 250.390625 136.855469 C 250.390625 134.28125 252.472656 132.195312 255.039062 132.195312 C 257.605469 132.195312 259.6875 134.28125 259.6875 136.855469 " fill-opacity="1" fill-rule="nonzero"/><path fill="#000000" d="M 255.039062 133.574219 C 253.234375 133.574219 251.765625 135.046875 251.765625 136.851562 C 251.765625 138.664062 253.234375 140.136719 255.039062 140.136719 C 256.84375 140.136719 258.3125 138.664062 258.3125 136.851562 C 258.3125 135.046875 256.84375 133.574219 255.039062 133.574219 Z M 255.039062 142.890625 C 251.71875 142.890625 249.015625 140.179688 249.015625 136.851562 C 249.015625 133.527344 251.71875 130.820312 255.039062 130.820312 C 258.359375 130.820312 261.0625 133.527344 261.0625 136.851562 C 261.0625 140.179688 258.359375 142.890625 255.039062 142.890625 " fill-opacity="1" fill-rule="nonzero"/><path fill="#000000" d="M 240.78125 179.550781 C 240.78125 187.554688 234.304688 194.042969 226.316406 194.042969 C 218.328125 194.042969 211.851562 187.554688 211.851562 179.550781 C 211.851562 171.546875 218.328125 165.058594 226.316406 165.058594 C 234.304688 165.058594 240.78125 171.546875 240.78125 179.550781 " fill-opacity="1" fill-rule="nonzero"/><g clip-path="url(#e983255d87)"><path fill="#000000" d="M 226.316406 166.4375 C 219.101562 166.4375 213.226562 172.320312 213.226562 179.550781 C 213.226562 186.78125 219.101562 192.664062 226.316406 192.664062 C 233.535156 192.664062 239.40625 186.78125 239.40625 179.550781 C 239.40625 172.320312 233.535156 166.4375 226.316406 166.4375 Z M 226.316406 195.421875 C 217.585938 195.421875 210.476562 188.300781 210.476562 179.550781 C 210.476562 170.800781 217.585938 163.683594 226.316406 163.683594 C 235.050781 163.683594 242.15625 170.800781 242.15625 179.550781 C 242.15625 188.300781 235.050781 195.421875 226.316406 195.421875 " fill-opacity="1" fill-rule="nonzero"/></g><path fill="#ffe3e6" d="M 183.800781 72.417969 L 172.308594 91.867188 C 172.28125 91.894531 172.28125 91.894531 172.25 91.894531 C 164.882812 93.191406 157.816406 88.753906 155.589844 81.8125 C 155.371094 81.152344 155.207031 80.464844 155.066406 79.746094 C 153.664062 71.648438 159.082031 63.933594 167.191406 62.53125 C 170.820312 61.898438 174.339844 62.640625 177.285156 64.402344 C 180.28125 66.167969 182.644531 68.976562 183.800781 72.417969 " fill-opacity="1" fill-rule="nonzero"/><path fill="#ffbcd0" d="M 183.800781 72.417969 L 172.308594 91.867188 C 172.28125 91.894531 172.28125 91.894531 172.25 91.894531 C 164.882812 93.191406 157.816406 88.753906 155.589844 81.8125 C 163.316406 80.683594 172.96875 76.660156 177.285156 64.402344 C 180.28125 66.167969 182.644531 68.976562 183.800781 72.417969 " fill-opacity="1" fill-rule="nonzero"/><path fill="#ffe3e6" d="M 292.871094 76.054688 C 291.46875 84.183594 284.539062 89.828125 276.457031 88.425781 L 273.074219 82.996094 L 264.167969 68.730469 C 266.449219 61.898438 273.433594 57.601562 280.746094 58.839844 C 281.046875 58.894531 281.324219 58.949219 281.625 59.03125 C 289.242188 60.824219 294.21875 68.261719 292.871094 76.054688 " fill-opacity="1" fill-rule="nonzero"/><path fill="#ffbcd0" d="M 292.871094 76.054688 C 291.46875 84.183594 284.539062 89.828125 276.457031 88.425781 L 273.074219 82.996094 C 280.332031 81.34375 288.636719 76.828125 283.632812 64.402344 C 282.78125 62.308594 282.121094 60.519531 281.625 59.03125 C 289.242188 60.824219 294.21875 68.261719 292.871094 76.054688 " fill-opacity="1" fill-rule="nonzero"/><path fill="#000000" d="M 177.75 150.722656 C 176.832031 150.722656 175.9375 150.265625 175.417969 149.425781 C 169.542969 140.019531 166.566406 130.652344 166.566406 121.585938 C 166.566406 81.636719 193.371094 49.140625 226.316406 49.140625 C 229.179688 49.140625 232.050781 49.386719 234.847656 49.871094 C 236.34375 50.132812 237.34375 51.558594 237.085938 53.054688 C 236.828125 54.554688 235.410156 55.554688 233.90625 55.300781 C 231.421875 54.867188 228.867188 54.648438 226.316406 54.648438 C 196.402344 54.648438 172.066406 84.675781 172.066406 121.585938 C 172.066406 129.601562 174.761719 137.988281 180.078125 146.503906 C 180.882812 147.792969 180.492188 149.496094 179.207031 150.300781 C 178.753906 150.585938 178.25 150.722656 177.75 150.722656 " fill-opacity="1" fill-rule="nonzero"/><path fill="#000000" d="M 226.316406 190.03125 C 221.402344 190.03125 216.488281 188.578125 212.296875 185.667969 C 202.636719 178.96875 194.234375 171.875 187.328125 164.582031 C 186.28125 163.476562 186.328125 161.734375 187.429688 160.683594 C 188.527344 159.636719 190.269531 159.683594 191.3125 160.789062 C 199.597656 169.53125 209 176.679688 215.425781 181.136719 C 222.039062 185.726562 230.589844 185.726562 237.207031 181.136719 C 245.945312 175.082031 258.304688 165.378906 267.578125 153.5625 C 268.519531 152.363281 270.253906 152.164062 271.441406 153.097656 C 272.632812 154.039062 272.839844 155.773438 271.902344 156.96875 C 262.203125 169.324219 249.382812 179.394531 240.339844 185.667969 C 236.144531 188.578125 231.230469 190.03125 226.316406 190.03125 " fill-opacity="1" fill-rule="nonzero"/><path fill="#000000" d="M 275.164062 150.265625 C 274.675781 150.265625 274.175781 150.132812 273.726562 149.855469 C 272.433594 149.058594 272.03125 147.359375 272.828125 146.0625 C 277.964844 137.699219 280.570312 129.464844 280.570312 121.585938 C 280.570312 92.257812 264.671875 65.886719 241.90625 57.460938 C 240.484375 56.933594 239.753906 55.347656 240.28125 53.917969 C 240.808594 52.496094 242.390625 51.765625 243.8125 52.289062 C 269.089844 61.644531 286.066406 89.492188 286.066406 121.585938 C 286.066406 130.5 283.1875 139.707031 277.507812 148.953125 C 276.988281 149.796875 276.089844 150.265625 275.164062 150.265625 " fill-opacity="1" fill-rule="nonzero"/><path fill="#000000" d="M 169.71875 94.863281 C 167.75 94.863281 165.792969 94.535156 163.933594 93.886719 C 162.5 93.386719 161.742188 91.816406 162.242188 90.378906 C 162.742188 88.945312 164.308594 88.179688 165.742188 88.683594 C 167.644531 89.347656 169.699219 89.519531 171.695312 89.191406 C 172.523438 89.003906 173.421875 89.207031 174.109375 89.804688 C 175.25 90.808594 175.367188 92.550781 174.367188 93.691406 C 173.949219 94.175781 173.351562 94.496094 172.722656 94.605469 C 171.730469 94.777344 170.722656 94.863281 169.71875 94.863281 " fill-opacity="1" fill-rule="nonzero"/><path fill="#000000" d="M 158.460938 89.699219 C 157.691406 89.699219 156.921875 89.375 156.378906 88.746094 C 154.292969 86.332031 152.902344 83.382812 152.355469 80.222656 C 151.554688 75.574219 152.605469 70.898438 155.316406 67.042969 C 158.027344 63.191406 162.074219 60.628906 166.710938 59.824219 C 175.328125 58.339844 183.601562 63.257812 186.390625 71.539062 C 186.878906 72.980469 186.105469 74.542969 184.667969 75.03125 C 183.222656 75.519531 181.667969 74.742188 181.183594 73.304688 C 179.261719 67.613281 173.5625 64.21875 167.648438 65.253906 C 164.457031 65.804688 161.675781 67.570312 159.808594 70.21875 C 157.945312 72.867188 157.222656 76.085938 157.773438 79.277344 C 158.148438 81.457031 159.105469 83.484375 160.539062 85.140625 C 161.53125 86.292969 161.40625 88.03125 160.257812 89.023438 C 159.738281 89.476562 159.097656 89.699219 158.460938 89.699219 " fill-opacity="1" fill-rule="nonzero"/><path fill="#000000" d="M 278.957031 91.386719 C 277.976562 91.386719 276.984375 91.300781 275.980469 91.125 C 274.488281 90.867188 273.484375 89.4375 273.742188 87.941406 C 274.003906 86.441406 275.421875 85.441406 276.925781 85.699219 C 280.8125 86.367188 284.535156 85.050781 287.140625 82.074219 C 288.140625 80.929688 289.878906 80.816406 291.019531 81.820312 C 292.164062 82.820312 292.277344 84.5625 291.273438 85.707031 C 288.042969 89.398438 283.667969 91.386719 278.957031 91.386719 " fill-opacity="1" fill-rule="nonzero"/><path fill="#000000" d="M 292.882812 78.808594 C 292.726562 78.808594 292.566406 78.792969 292.40625 78.769531 C 290.910156 78.507812 289.910156 77.082031 290.167969 75.578125 C 290.722656 72.394531 290 69.179688 288.132812 66.535156 C 286.265625 63.886719 283.476562 62.121094 280.28125 61.5625 C 274.363281 60.550781 268.671875 63.921875 266.765625 69.601562 C 266.28125 71.042969 264.730469 71.820312 263.28125 71.335938 C 261.84375 70.851562 261.066406 69.289062 261.550781 67.847656 C 264.328125 59.574219 272.605469 54.652344 281.214844 56.136719 C 285.859375 56.941406 289.910156 59.507812 292.625 63.355469 C 295.339844 67.207031 296.394531 71.882812 295.585938 76.527344 C 295.355469 77.863281 294.191406 78.808594 292.882812 78.808594 " fill-opacity="1" fill-rule="nonzero"/><path fill="#000000" d="M 166.527344 105.273438 C 153.363281 105.273438 141.355469 97.0625 136.773438 84.289062 C 136.152344 82.5625 135.679688 80.761719 135.363281 78.9375 C 135.105469 77.4375 136.105469 76.011719 137.601562 75.753906 C 139.113281 75.496094 140.523438 76.496094 140.78125 77.996094 C 141.042969 79.507812 141.433594 80.996094 141.949219 82.425781 C 146.242188 94.390625 158.425781 101.519531 170.941406 99.390625 C 171.847656 99.167969 172.84375 99.410156 173.550781 100.117188 C 174.625 101.191406 174.625 102.9375 173.550781 104.011719 C 173.144531 104.417969 172.574219 104.699219 171.992188 104.800781 C 170.160156 105.117188 168.332031 105.273438 166.527344 105.273438 " fill-opacity="1" fill-rule="nonzero"/><path fill="#000000" d="M 137.945312 72.105469 C 137.8125 72.105469 137.679688 72.097656 137.542969 72.074219 C 136.042969 71.855469 135 70.457031 135.21875 68.953125 C 136.867188 57.597656 144.53125 47.996094 155.21875 43.898438 C 157.128906 43.164062 159.136719 42.609375 161.175781 42.257812 C 162.679688 42.003906 164.097656 43.003906 164.355469 44.503906 C 164.613281 46.003906 163.609375 47.425781 162.113281 47.6875 C 160.425781 47.980469 158.765625 48.433594 157.183594 49.042969 C 148.351562 52.429688 142.023438 60.363281 140.660156 69.746094 C 140.460938 71.117188 139.285156 72.105469 137.945312 72.105469 " fill-opacity="1" fill-rule="nonzero"/><path fill="#000000" d="M 193.960938 66.957031 C 192.8125 66.957031 191.742188 66.234375 191.355469 65.085938 C 188.644531 57.039062 182.148438 50.789062 173.984375 48.367188 C 172.527344 47.9375 171.699219 46.40625 172.128906 44.945312 C 172.558594 43.488281 174.09375 42.648438 175.546875 43.085938 C 185.421875 46.015625 193.28125 53.582031 196.566406 63.320312 C 197.050781 64.761719 196.28125 66.324219 194.84375 66.8125 C 194.550781 66.914062 194.253906 66.957031 193.960938 66.957031 " fill-opacity="1" fill-rule="nonzero"/><g clip-path="url(#b6fbd3ad0f)"><path fill="#000000" d="M 255.042969 64.101562 C 254.847656 64.101562 254.652344 64.082031 254.457031 64.039062 C 252.972656 63.714844 252.03125 62.25 252.351562 60.761719 C 255.09375 48.078125 265.128906 38.449219 277.917969 36.230469 C 280.179688 35.839844 282.472656 35.699219 284.734375 35.789062 C 286.25 35.855469 287.425781 37.140625 287.359375 38.660156 C 287.296875 40.179688 286.070312 41.421875 284.496094 41.292969 C 282.628906 41.214844 280.726562 41.335938 278.855469 41.660156 C 268.285156 43.492188 259.992188 51.449219 257.726562 61.929688 C 257.449219 63.21875 256.308594 64.101562 255.042969 64.101562 " fill-opacity="1" fill-rule="nonzero"/></g><g clip-path="url(#fcdf8e45da)"><path fill="#000000" d="M 308.730469 84.085938 C 308.289062 84.085938 307.839844 83.976562 307.421875 83.753906 C 306.085938 83.023438 305.59375 81.351562 306.320312 80.015625 C 309.160156 74.777344 310.125 68.898438 309.109375 63.015625 C 307.695312 54.824219 302.410156 47.722656 294.976562 44.011719 C 293.613281 43.332031 293.0625 41.679688 293.742188 40.316406 C 294.414062 38.957031 296.0625 38.398438 297.425781 39.078125 C 306.421875 43.566406 312.8125 52.164062 314.527344 62.074219 C 315.757812 69.195312 314.589844 76.308594 311.148438 82.648438 C 310.652344 83.566406 309.707031 84.085938 308.730469 84.085938 " fill-opacity="1" fill-rule="nonzero"/></g><path fill="#000000" d="M 283.222656 99.25 C 281.835938 99.25 280.445312 99.160156 279.066406 98.976562 C 277.558594 98.785156 276.496094 97.402344 276.695312 95.894531 C 276.886719 94.382812 278.261719 93.304688 279.773438 93.519531 C 282.4375 93.863281 285.136719 93.804688 287.796875 93.347656 C 293.492188 92.359375 298.574219 89.589844 302.5 85.34375 C 303.53125 84.226562 305.269531 84.160156 306.386719 85.195312 C 307.5 86.230469 307.566406 87.972656 306.535156 89.089844 C 301.785156 94.226562 295.628906 97.578125 288.734375 98.777344 C 286.90625 99.09375 285.0625 99.25 283.222656 99.25 " fill-opacity="1" fill-rule="nonzero"/><path fill="#000000" d="M 102.082031 150.316406 C 101.476562 150.316406 100.867188 150.117188 100.359375 149.707031 C 99.175781 148.753906 98.992188 147.015625 99.941406 145.832031 L 113.25 129.289062 C 114.203125 128.101562 115.929688 127.914062 117.113281 128.871094 C 118.296875 129.824219 118.484375 131.558594 117.53125 132.742188 L 104.226562 149.289062 C 103.683594 149.964844 102.886719 150.316406 102.082031 150.316406 " fill-opacity="1" fill-rule="nonzero"/><g clip-path="url(#e0b92a11be)"><path fill="#000000" d="M 124.6875 161.183594 C 124.285156 161.183594 123.882812 161.097656 123.5 160.910156 L 100.894531 150.042969 C 99.523438 149.386719 98.949219 147.742188 99.605469 146.367188 C 100.265625 144.996094 101.910156 144.414062 103.273438 145.078125 L 125.878906 155.945312 C 127.246094 156.601562 127.824219 158.25 127.167969 159.621094 C 126.695312 160.609375 125.710938 161.183594 124.6875 161.183594 " fill-opacity="1" fill-rule="nonzero"/></g><path fill="#000000" d="M 81.566406 150.316406 C 80.765625 150.316406 79.96875 149.964844 79.425781 149.289062 L 66.117188 132.742188 C 65.167969 131.558594 65.351562 129.824219 66.535156 128.871094 C 67.71875 127.914062 69.449219 128.101562 70.402344 129.289062 L 83.707031 145.832031 C 84.660156 147.015625 84.472656 148.753906 83.289062 149.707031 C 82.78125 150.117188 82.171875 150.316406 81.566406 150.316406 " fill-opacity="1" fill-rule="nonzero"/><g clip-path="url(#bd23466b51)"><path fill="#000000" d="M 58.964844 161.183594 C 57.9375 161.183594 56.957031 160.609375 56.484375 159.621094 C 55.824219 158.25 56.402344 156.601562 57.773438 155.945312 L 80.375 145.078125 C 81.742188 144.414062 83.386719 144.996094 84.042969 146.367188 C 84.703125 147.742188 84.125 149.386719 82.753906 150.042969 L 60.152344 160.910156 C 59.765625 161.097656 59.363281 161.183594 58.964844 161.183594 " fill-opacity="1" fill-rule="nonzero"/></g><path fill="#ededed" d="M 58.972656 30.167969 L 36.59375 68.015625 C 36.59375 68.046875 36.535156 68.046875 36.507812 68.046875 C 20.976562 70.746094 6.15625 60.441406 3.1875 44.988281 C 3.160156 44.796875 3.105469 44.601562 3.078125 44.410156 C 0.355469 28.652344 10.914062 13.667969 26.640625 10.941406 C 35.328125 9.425781 43.796875 11.960938 50.09375 17.222656 C 54.105469 20.554688 57.210938 24.988281 58.972656 30.167969 " fill-opacity="1" fill-rule="nonzero"/><path fill="#d8d6d6" d="M 58.972656 30.167969 L 36.59375 68.015625 C 36.59375 68.046875 36.535156 68.046875 36.507812 68.046875 C 20.976562 70.746094 6.15625 60.441406 3.1875 44.988281 C 15.0625 51.570312 29.25 52.5625 40.714844 33.03125 C 44.402344 26.75 47.507812 21.546875 50.09375 17.222656 C 54.105469 20.554688 57.210938 24.988281 58.972656 30.167969 " fill-opacity="1" fill-rule="nonzero"/><path fill="#ededed" d="M 153.25 62.011719 C 150.253906 62.535156 147.285156 62.589844 144.425781 62.207031 L 142.71875 59.78125 L 120.039062 27.304688 C 122.457031 16.117188 131.449219 6.972656 143.378906 4.90625 C 146.488281 4.355469 149.59375 4.355469 152.535156 4.769531 C 164.578125 6.558594 174.640625 15.871094 176.8125 28.515625 C 179.535156 44.273438 168.976562 59.285156 153.25 62.011719 " fill-opacity="1" fill-rule="nonzero"/><path fill="#d8d6d6" d="M 153.25 62.011719 C 150.253906 62.535156 147.285156 62.589844 144.425781 62.207031 L 142.71875 59.78125 C 152.261719 53.804688 163.425781 40.910156 156.027344 14.660156 C 154.957031 10.855469 153.773438 7.578125 152.535156 4.769531 C 164.578125 6.558594 174.640625 15.871094 176.8125 28.515625 C 179.535156 44.273438 168.976562 59.285156 153.25 62.011719 " fill-opacity="1" fill-rule="nonzero"/><path fill="#ededed" d="M 148.328125 87.546875 C 148.328125 114.40625 120.53125 137.738281 103.761719 149.363281 C 96.253906 154.570312 86.355469 154.570312 78.851562 149.363281 C 72.363281 144.875 64.222656 138.621094 56.71875 131.101562 C 44.757812 119.171875 34.308594 104.019531 34.308594 87.546875 C 34.308594 49.066406 59.824219 17.855469 91.304688 17.855469 C 96.035156 17.855469 100.597656 18.542969 104.972656 19.894531 C 129.855469 27.359375 148.328125 54.824219 148.328125 87.546875 " fill-opacity="1" fill-rule="nonzero"/><path fill="#d8d6d6" d="M 148.328125 87.546875 C 148.328125 114.40625 120.53125 137.738281 103.761719 149.363281 C 96.253906 154.570312 86.355469 154.570312 78.851562 149.363281 C 72.363281 144.875 64.222656 138.621094 56.71875 131.101562 C 85.285156 120.851562 118.5 98.125 108.738281 48.457031 C 106.566406 37.441406 105.382812 27.964844 104.972656 19.894531 C 129.855469 27.359375 148.328125 54.824219 148.328125 87.546875 " fill-opacity="1" fill-rule="nonzero"/><path fill="#000000" d="M 63.609375 102.8125 C 63.609375 105.382812 61.53125 107.46875 58.960938 107.46875 C 56.394531 107.46875 54.3125 105.382812 54.3125 102.8125 C 54.3125 100.238281 56.394531 98.152344 58.960938 98.152344 C 61.53125 98.152344 63.609375 100.238281 63.609375 102.8125 " fill-opacity="1" fill-rule="nonzero"/><path fill="#000000" d="M 58.960938 99.53125 C 57.15625 99.53125 55.6875 101.003906 55.6875 102.808594 C 55.6875 104.621094 57.15625 106.09375 58.960938 106.09375 C 60.765625 106.09375 62.234375 104.621094 62.234375 102.808594 C 62.234375 101.003906 60.765625 99.53125 58.960938 99.53125 Z M 58.960938 108.847656 C 55.640625 108.847656 52.9375 106.136719 52.9375 102.808594 C 52.9375 99.480469 55.640625 96.777344 58.960938 96.777344 C 62.28125 96.777344 64.984375 99.480469 64.984375 102.808594 C 64.984375 106.136719 62.28125 108.847656 58.960938 108.847656 " fill-opacity="1" fill-rule="nonzero"/><path fill="#000000" d="M 124.6875 102.8125 C 124.6875 105.382812 122.605469 107.46875 120.039062 107.46875 C 117.472656 107.46875 115.390625 105.382812 115.390625 102.8125 C 115.390625 100.238281 117.472656 98.152344 120.039062 98.152344 C 122.605469 98.152344 124.6875 100.238281 124.6875 102.8125 " fill-opacity="1" fill-rule="nonzero"/><path fill="#000000" d="M 120.039062 99.53125 C 118.234375 99.53125 116.765625 101.003906 116.765625 102.808594 C 116.765625 104.621094 118.234375 106.09375 120.039062 106.09375 C 121.84375 106.09375 123.3125 104.621094 123.3125 102.808594 C 123.3125 101.003906 121.84375 99.53125 120.039062 99.53125 Z M 120.039062 108.847656 C 116.71875 108.847656 114.015625 106.136719 114.015625 102.808594 C 114.015625 99.480469 116.71875 96.777344 120.039062 96.777344 C 123.359375 96.777344 126.0625 99.480469 126.0625 102.808594 C 126.0625 106.136719 123.359375 108.847656 120.039062 108.847656 " fill-opacity="1" fill-rule="nonzero"/><path fill="#000000" d="M 105.78125 145.507812 C 105.78125 153.511719 99.304688 160 91.316406 160 C 83.328125 160 76.851562 153.511719 76.851562 145.507812 C 76.851562 137.503906 83.328125 131.015625 91.316406 131.015625 C 99.304688 131.015625 105.78125 137.503906 105.78125 145.507812 " fill-opacity="1" fill-rule="nonzero"/><g clip-path="url(#fe601de059)"><path fill="#000000" d="M 91.316406 132.394531 C 84.101562 132.394531 78.226562 138.277344 78.226562 145.507812 C 78.226562 152.738281 84.101562 158.621094 91.316406 158.621094 C 98.535156 158.621094 104.40625 152.738281 104.40625 145.507812 C 104.40625 138.277344 98.535156 132.394531 91.316406 132.394531 Z M 91.316406 161.375 C 82.585938 161.375 75.476562 154.257812 75.476562 145.507812 C 75.476562 136.757812 82.585938 129.640625 91.316406 129.640625 C 100.050781 129.640625 107.15625 136.757812 107.15625 145.507812 C 107.15625 154.257812 100.050781 161.375 91.316406 161.375 " fill-opacity="1" fill-rule="nonzero"/></g><path fill="#ffe3e6" d="M 48.800781 38.375 L 37.308594 57.824219 C 37.28125 57.851562 37.28125 57.851562 37.25 57.851562 C 29.882812 59.148438 22.816406 54.710938 20.589844 47.769531 C 20.371094 47.109375 20.207031 46.421875 20.066406 45.703125 C 18.664062 37.605469 24.082031 29.890625 32.191406 28.488281 C 35.820312 27.855469 39.339844 28.597656 42.285156 30.359375 C 45.28125 32.125 47.644531 34.933594 48.800781 38.375 " fill-opacity="1" fill-rule="nonzero"/><path fill="#ffbcd0" d="M 48.800781 38.375 L 37.308594 57.824219 C 37.28125 57.851562 37.28125 57.851562 37.25 57.851562 C 29.882812 59.148438 22.816406 54.710938 20.589844 47.769531 C 28.316406 46.640625 37.96875 42.617188 42.285156 30.359375 C 45.28125 32.125 47.644531 34.933594 48.800781 38.375 " fill-opacity="1" fill-rule="nonzero"/><path fill="#ffe3e6" d="M 157.871094 42.011719 C 156.46875 50.140625 149.539062 55.785156 141.457031 54.382812 L 138.074219 48.953125 L 129.167969 34.6875 C 131.449219 27.855469 138.433594 23.558594 145.746094 24.796875 C 146.046875 24.851562 146.324219 24.90625 146.625 24.988281 C 154.242188 26.777344 159.21875 34.21875 157.871094 42.011719 " fill-opacity="1" fill-rule="nonzero"/><path fill="#ffbcd0" d="M 157.871094 42.011719 C 156.46875 50.140625 149.539062 55.785156 141.457031 54.382812 L 138.074219 48.953125 C 145.332031 47.300781 153.636719 42.785156 148.632812 30.359375 C 147.78125 28.265625 147.121094 26.476562 146.625 24.988281 C 154.242188 26.777344 159.21875 34.21875 157.871094 42.011719 " fill-opacity="1" fill-rule="nonzero"/><path fill="#000000" d="M 42.75 116.675781 C 41.832031 116.675781 40.9375 116.222656 40.417969 115.382812 C 34.542969 105.976562 31.566406 96.609375 31.566406 87.542969 C 31.566406 47.59375 58.371094 15.097656 91.316406 15.097656 C 94.179688 15.097656 97.050781 15.34375 99.847656 15.828125 C 101.34375 16.089844 102.34375 17.515625 102.085938 19.011719 C 101.828125 20.511719 100.410156 21.511719 98.90625 21.253906 C 96.421875 20.824219 93.867188 20.605469 91.316406 20.605469 C 61.402344 20.605469 37.066406 50.632812 37.066406 87.542969 C 37.066406 95.558594 39.761719 103.945312 45.078125 112.460938 C 45.882812 113.75 45.492188 115.453125 44.207031 116.257812 C 43.753906 116.542969 43.25 116.675781 42.75 116.675781 " fill-opacity="1" fill-rule="nonzero"/><path fill="#000000" d="M 91.316406 155.988281 C 86.402344 155.988281 81.488281 154.535156 77.296875 151.625 C 67.636719 144.925781 59.234375 137.832031 52.328125 130.539062 C 51.28125 129.433594 51.328125 127.691406 52.429688 126.640625 C 53.527344 125.59375 55.269531 125.640625 56.3125 126.746094 C 64.597656 135.488281 74 142.636719 80.425781 147.09375 C 87.039062 151.683594 95.589844 151.683594 102.207031 147.09375 C 110.945312 141.035156 123.304688 131.335938 132.578125 119.519531 C 133.519531 118.320312 135.253906 118.121094 136.441406 119.054688 C 137.632812 119.996094 137.839844 121.730469 136.902344 122.925781 C 127.203125 135.28125 114.382812 145.351562 105.339844 151.625 C 101.144531 154.535156 96.230469 155.988281 91.316406 155.988281 " fill-opacity="1" fill-rule="nonzero"/><path fill="#000000" d="M 140.164062 116.222656 C 139.675781 116.222656 139.175781 116.089844 138.726562 115.8125 C 137.433594 115.015625 137.03125 113.316406 137.828125 112.019531 C 142.964844 103.65625 145.570312 95.421875 145.570312 87.542969 C 145.570312 58.214844 129.671875 31.84375 106.90625 23.417969 C 105.484375 22.890625 104.753906 21.304688 105.28125 19.875 C 105.808594 18.453125 107.390625 17.722656 108.8125 18.246094 C 134.089844 27.601562 151.066406 55.449219 151.066406 87.542969 C 151.066406 96.457031 148.1875 105.664062 142.507812 114.910156 C 141.992188 115.753906 141.089844 116.222656 140.164062 116.222656 " fill-opacity="1" fill-rule="nonzero"/><path fill="#000000" d="M 34.71875 60.820312 C 32.75 60.820312 30.792969 60.492188 28.933594 59.84375 C 27.5 59.34375 26.742188 57.773438 27.242188 56.335938 C 27.742188 54.902344 29.308594 54.136719 30.742188 54.640625 C 32.644531 55.300781 34.699219 55.476562 36.695312 55.148438 C 37.523438 54.960938 38.421875 55.164062 39.109375 55.761719 C 40.25 56.765625 40.367188 58.507812 39.367188 59.648438 C 38.949219 60.132812 38.351562 60.453125 37.722656 60.5625 C 36.730469 60.734375 35.722656 60.820312 34.71875 60.820312 " fill-opacity="1" fill-rule="nonzero"/><path fill="#000000" d="M 23.460938 55.65625 C 22.691406 55.65625 21.921875 55.332031 21.378906 54.703125 C 19.292969 52.289062 17.902344 49.339844 17.355469 46.179688 C 16.554688 41.53125 17.605469 36.851562 20.316406 33 C 23.027344 29.148438 27.074219 26.585938 31.710938 25.78125 C 40.328125 24.296875 48.601562 29.214844 51.390625 37.496094 C 51.878906 38.9375 51.105469 40.5 49.667969 40.988281 C 48.222656 41.476562 46.667969 40.699219 46.183594 39.261719 C 44.261719 33.570312 38.5625 30.175781 32.648438 31.210938 C 29.457031 31.761719 26.675781 33.527344 24.808594 36.175781 C 22.945312 38.824219 22.222656 42.042969 22.773438 45.234375 C 23.148438 47.414062 24.105469 49.441406 25.539062 51.097656 C 26.53125 52.25 26.40625 53.988281 25.257812 54.980469 C 24.738281 55.433594 24.097656 55.65625 23.460938 55.65625 " fill-opacity="1" fill-rule="nonzero"/><path fill="#000000" d="M 143.957031 57.34375 C 142.976562 57.34375 141.984375 57.257812 140.980469 57.082031 C 139.488281 56.824219 138.484375 55.394531 138.742188 53.898438 C 139.003906 52.398438 140.421875 51.398438 141.925781 51.65625 C 145.8125 52.324219 149.535156 51.007812 152.140625 48.03125 C 153.140625 46.886719 154.878906 46.773438 156.019531 47.773438 C 157.164062 48.777344 157.277344 50.519531 156.273438 51.664062 C 153.042969 55.351562 148.667969 57.34375 143.957031 57.34375 " fill-opacity="1" fill-rule="nonzero"/><path fill="#000000" d="M 157.882812 44.765625 C 157.726562 44.765625 157.566406 44.75 157.40625 44.726562 C 155.910156 44.464844 154.910156 43.039062 155.167969 41.535156 C 155.722656 38.351562 155 35.136719 153.132812 32.492188 C 151.265625 29.84375 148.476562 28.078125 145.28125 27.519531 C 139.363281 26.507812 133.671875 29.878906 131.765625 35.558594 C 131.28125 37 129.730469 37.777344 128.28125 37.292969 C 126.84375 36.808594 126.066406 35.246094 126.550781 33.804688 C 129.332031 25.53125 137.605469 20.609375 146.214844 22.09375 C 150.859375 22.898438 154.910156 25.464844 157.625 29.3125 C 160.339844 33.164062 161.394531 37.839844 160.585938 42.484375 C 160.355469 43.820312 159.191406 44.765625 157.882812 44.765625 " fill-opacity="1" fill-rule="nonzero"/><path fill="#000000" d="M 31.527344 71.230469 C 18.363281 71.230469 6.355469 63.019531 1.773438 50.246094 C 1.152344 48.519531 0.679688 46.71875 0.363281 44.894531 C 0.105469 43.394531 1.105469 41.96875 2.601562 41.707031 C 4.113281 41.453125 5.523438 42.453125 5.78125 43.953125 C 6.042969 45.464844 6.433594 46.953125 6.949219 48.382812 C 11.242188 60.347656 23.425781 67.476562 35.941406 65.347656 C 36.847656 65.125 37.84375 65.367188 38.550781 66.074219 C 39.625 67.148438 39.625 68.894531 38.550781 69.96875 C 38.144531 70.375 37.574219 70.65625 36.992188 70.757812 C 35.160156 71.074219 33.332031 71.230469 31.527344 71.230469 " fill-opacity="1" fill-rule="nonzero"/><path fill="#000000" d="M 2.945312 38.0625 C 2.8125 38.0625 2.679688 38.054688 2.542969 38.03125 C 1.042969 37.8125 0 36.414062 0.21875 34.910156 C 1.867188 23.554688 9.53125 13.953125 20.21875 9.855469 C 22.128906 9.121094 24.136719 8.566406 26.175781 8.214844 C 27.679688 7.957031 29.097656 8.960938 29.355469 10.460938 C 29.613281 11.960938 28.609375 13.382812 27.113281 13.644531 C 25.425781 13.9375 23.765625 14.390625 22.183594 15 C 13.351562 18.386719 7.023438 26.320312 5.660156 35.703125 C 5.460938 37.074219 4.285156 38.0625 2.945312 38.0625 " fill-opacity="1" fill-rule="nonzero"/><path fill="#000000" d="M 58.960938 32.914062 C 57.8125 32.914062 56.742188 32.191406 56.355469 31.042969 C 53.644531 22.996094 47.148438 16.746094 38.984375 14.324219 C 37.527344 13.894531 36.699219 12.363281 37.128906 10.902344 C 37.558594 9.445312 39.09375 8.605469 40.546875 9.042969 C 50.421875 11.972656 58.28125 19.539062 61.566406 29.277344 C 62.050781 30.71875 61.28125 32.28125 59.84375 32.769531 C 59.550781 32.871094 59.253906 32.914062 58.960938 32.914062 " fill-opacity="1" fill-rule="nonzero"/><g clip-path="url(#bd28094799)"><path fill="#000000" d="M 120.042969 30.058594 C 119.847656 30.058594 119.652344 30.039062 119.457031 29.996094 C 117.972656 29.671875 117.03125 28.207031 117.351562 26.71875 C 120.09375 14.035156 130.128906 4.40625 142.917969 2.1875 C 145.179688 1.796875 147.472656 1.65625 149.734375 1.746094 C 151.25 1.8125 152.425781 3.097656 152.359375 4.617188 C 152.296875 6.136719 151.070312 7.378906 149.496094 7.25 C 147.628906 7.171875 145.726562 7.292969 143.855469 7.617188 C 133.285156 9.449219 124.992188 17.40625 122.726562 27.886719 C 122.449219 29.175781 121.308594 30.058594 120.042969 30.058594 " fill-opacity="1" fill-rule="nonzero"/></g><g clip-path="url(#0c5ab1731b)"><path fill="#000000" d="M 173.730469 50.042969 C 173.289062 50.042969 172.839844 49.933594 172.421875 49.710938 C 171.085938 48.980469 170.59375 47.308594 171.320312 45.972656 C 174.160156 40.734375 175.125 34.855469 174.109375 28.972656 C 172.695312 20.78125 167.410156 13.679688 159.976562 9.96875 C 158.613281 9.289062 158.0625 7.636719 158.742188 6.273438 C 159.414062 4.914062 161.0625 4.355469 162.425781 5.035156 C 171.421875 9.523438 177.8125 18.121094 179.527344 28.03125 C 180.757812 35.152344 179.589844 42.265625 176.148438 48.605469 C 175.652344 49.523438 174.707031 50.042969 173.730469 50.042969 " fill-opacity="1" fill-rule="nonzero"/></g><path fill="#000000" d="M 148.222656 65.207031 C 146.835938 65.207031 145.445312 65.117188 144.066406 64.933594 C 142.558594 64.742188 141.496094 63.359375 141.695312 61.851562 C 141.886719 60.339844 143.261719 59.261719 144.773438 59.476562 C 147.4375 59.820312 150.136719 59.761719 152.796875 59.304688 C 158.492188 58.316406 163.574219 55.546875 167.5 51.300781 C 168.53125 50.183594 170.269531 50.117188 171.386719 51.152344 C 172.5 52.1875 172.566406 53.929688 171.535156 55.046875 C 166.785156 60.183594 160.628906 63.535156 153.734375 64.734375 C 151.90625 65.046875 150.0625 65.207031 148.222656 65.207031 " fill-opacity="1" fill-rule="nonzero"/><g fill="#ff9ab8" fill-opacity="1"><g transform="translate(3.222669, 242.017861)"><g><path d="M 19.113281 -12.691406 C 22.761719 -13.769531 25.332031 -17.164062 25.332031 -21.375 C 25.332031 -26.617188 21.425781 -30.832031 16.132812 -30.832031 L 3.03125 -30.832031 L 3.03125 0 L 9.8125 0 L 9.8125 -11.921875 L 12.539062 -11.921875 L 20.144531 0 L 27.746094 0 Z M 15.105469 -17.523438 L 9.8125 -17.523438 L 9.8125 -24.820312 L 15.105469 -24.820312 C 17.265625 -24.820312 18.859375 -23.277344 18.859375 -21.171875 C 18.859375 -19.011719 17.265625 -17.523438 15.105469 -17.523438 Z M 15.105469 -17.523438 "/></g></g></g><g fill="#ff9ab8" fill-opacity="1"><g transform="translate(30.706683, 242.017861)"><g><path d="M 17.726562 0.410156 C 26.515625 0.410156 33.554688 -6.679688 33.554688 -15.414062 C 33.554688 -24.152344 26.515625 -31.242188 17.726562 -31.242188 C 8.992188 -31.242188 1.902344 -24.152344 1.902344 -15.414062 C 1.902344 -6.679688 8.992188 0.410156 17.726562 0.410156 Z M 17.726562 -6.21875 C 12.539062 -6.21875 8.582031 -10.226562 8.582031 -15.414062 C 8.582031 -20.605469 12.539062 -24.613281 17.726562 -24.613281 C 22.96875 -24.613281 26.925781 -20.605469 26.925781 -15.414062 C 26.925781 -10.226562 22.96875 -6.21875 17.726562 -6.21875 Z M 17.726562 -6.21875 "/></g></g></g><g fill="#ff9ab8" fill-opacity="1"><g transform="translate(66.20473, 242.017861)"><g><path d="M 24.820312 -30.832031 L 2.464844 -30.832031 L 2.464844 -24.820312 L 14.285156 -24.820312 L 1.183594 0 L 24.820312 0 L 24.820312 -6.011719 L 11.820312 -6.011719 Z M 24.820312 -30.832031 "/></g></g></g><g fill="#ff9ab8" fill-opacity="1"><g transform="translate(92.507187, 242.017861)"><g><path d="M 22.042969 -30.832031 L -0.257812 -30.832031 L -0.257812 -24.820312 L 7.554688 -24.820312 L 7.554688 0 L 14.285156 0 L 14.285156 -24.820312 L 22.042969 -24.820312 Z M 22.042969 -30.832031 "/></g></g></g><g fill="#ff9ab8" fill-opacity="1"><g transform="translate(114.288907, 242.017861)"><g><path d="M 17.726562 0.410156 C 26.515625 0.410156 33.554688 -6.679688 33.554688 -15.414062 C 33.554688 -24.152344 26.515625 -31.242188 17.726562 -31.242188 C 8.992188 -31.242188 1.902344 -24.152344 1.902344 -15.414062 C 1.902344 -6.679688 8.992188 0.410156 17.726562 0.410156 Z M 17.726562 -6.21875 C 12.539062 -6.21875 8.582031 -10.226562 8.582031 -15.414062 C 8.582031 -20.605469 12.539062 -24.613281 17.726562 -24.613281 C 22.96875 -24.613281 26.925781 -20.605469 26.925781 -15.414062 C 26.925781 -10.226562 22.96875 -6.21875 17.726562 -6.21875 Z M 17.726562 -6.21875 "/></g></g></g><g fill="#ff9ab8" fill-opacity="1"><g transform="translate(149.786954, 242.017861)"><g><path d="M 29.90625 -30.832031 L 20.089844 -9.507812 L 10.378906 -30.832031 L 3.03125 -30.832031 L 3.03125 0 L 9.8125 0 L 9.8125 -18.394531 L 18.140625 0 L 22.042969 0 L 30.417969 -18.34375 L 30.417969 0 L 37.203125 0 L 37.203125 -30.832031 Z M 29.90625 -30.832031 "/></g></g></g><g fill="#ff9ab8" fill-opacity="1"><g transform="translate(190.011216, 242.017861)"><g><path d="M 3.289062 0 L 10.070312 0 L 10.070312 -30.832031 L 3.289062 -30.832031 Z M 3.289062 0 "/></g></g></g><g fill="#ff9ab8" fill-opacity="1"><g transform="translate(203.316551, 242.017861)"><g><path d="M 9.8125 -6.011719 L 9.8125 -30.832031 L 3.03125 -30.832031 L 3.03125 0 L 20.039062 0 L 20.039062 -6.011719 Z M 9.8125 -6.011719 "/></g></g></g><g fill="#ff9ab8" fill-opacity="1"><g transform="translate(223.454374, 242.017861)"><g><path d="M 21.785156 -41.109375 L 15.570312 -41.109375 L 11.046875 -33.453125 L 15.363281 -33.453125 Z M 27.695312 -30.832031 L 20.144531 -30.832031 L 13.566406 -20.398438 L 6.988281 -30.832031 L -0.667969 -30.832031 L 10.175781 -14.492188 L 10.175781 0 L 16.957031 0 L 16.957031 -14.542969 Z M 27.695312 -30.832031 "/></g></g></g><g fill="#ff9ab8" fill-opacity="1"><g transform="translate(250.527407, 242.017861)"><g/></g></g><g fill="#ff9ab8" fill-opacity="1"><g transform="translate(262.856675, 242.017861)"><g><path d="M 22.300781 0 L 31.34375 0 L 16.496094 -17.109375 L 29.804688 -30.832031 L 21.066406 -30.832031 L 10.996094 -19.9375 L 9.8125 -19.9375 L 9.8125 -30.832031 L 3.03125 -30.832031 L 3.03125 0 L 9.8125 0 L 9.8125 -14.078125 L 10.789062 -14.078125 Z M 22.300781 0 "/></g></g></g><g fill="#ff9ab8" fill-opacity="1"><g transform="translate(293.114759, 242.017861)"><g><path d="M 17.726562 0.410156 C 26.515625 0.410156 33.554688 -6.679688 33.554688 -15.414062 C 33.554688 -24.152344 26.515625 -31.242188 17.726562 -31.242188 C 8.992188 -31.242188 1.902344 -24.152344 1.902344 -15.414062 C 1.902344 -6.679688 8.992188 0.410156 17.726562 0.410156 Z M 17.726562 -6.21875 C 12.539062 -6.21875 8.582031 -10.226562 8.582031 -15.414062 C 8.582031 -20.605469 12.539062 -24.613281 17.726562 -24.613281 C 22.96875 -24.613281 26.925781 -20.605469 26.925781 -15.414062 C 26.925781 -10.226562 22.96875 -6.21875 17.726562 -6.21875 Z M 17.726562 -6.21875 "/></g></g></g><g fill="#ff9ab8" fill-opacity="1"><g transform="translate(328.612818, 242.017861)"><g><path d="M 15.621094 -33.453125 L 20.707031 -41.109375 L 16.597656 -41.109375 L 13.667969 -37.097656 L 10.738281 -41.109375 L 6.628906 -41.109375 L 11.664062 -33.453125 Z M 24.820312 -30.832031 L 2.464844 -30.832031 L 2.464844 -24.820312 L 14.285156 -24.820312 L 1.183594 0 L 24.820312 0 L 24.820312 -6.011719 L 11.820312 -6.011719 Z M 24.820312 -30.832031 "/></g></g></g><g fill="#ff9ab8" fill-opacity="1"><g transform="translate(354.915275, 242.017861)"><g><path d="M 4.109375 -33.453125 L 8.425781 -33.453125 L 14.851562 -41.109375 L 8.632812 -41.109375 Z M 3.289062 0 L 10.070312 0 L 10.070312 -30.832031 L 3.289062 -30.832031 Z M 3.289062 0 "/></g></g></g><g fill="#ff9ab8" fill-opacity="1"><g transform="translate(368.220633, 242.017861)"><g><path d="M 10.121094 -33.453125 L 14.078125 -33.453125 L 19.167969 -41.109375 L 15.054688 -41.109375 L 12.125 -37.097656 L 9.199219 -41.109375 L 5.085938 -41.109375 Z M 12.539062 0.410156 C 18.292969 0.410156 23.175781 -2.980469 23.175781 -8.734375 C 23.175781 -20.144531 8.992188 -17.316406 8.992188 -22.660156 C 8.992188 -24.40625 10.328125 -25.230469 11.972656 -25.230469 C 13.71875 -25.230469 15.464844 -24.253906 17.007812 -22.558594 L 21.53125 -26.875 C 19.269531 -29.496094 15.828125 -31.242188 12.023438 -31.242188 C 7.140625 -31.242188 2.15625 -28.3125 2.15625 -22.148438 C 2.15625 -11.664062 16.390625 -14.183594 16.390625 -8.785156 C 16.390625 -7.089844 14.953125 -5.960938 12.589844 -5.960938 C 9.761719 -5.960938 7.554688 -7.554688 6.421875 -9.96875 L 0.820312 -6.472656 C 2.824219 -2.621094 7.140625 0.410156 12.539062 0.410156 Z M 12.539062 0.410156 "/></g></g></g><g fill="#ff9ab8" fill-opacity="1"><g transform="translate(392.570957, 242.017861)"><g><path d="M 21.839844 -24.871094 L 21.839844 -30.832031 L 3.289062 -30.832031 L 3.289062 0 L 21.839844 0 L 21.839844 -5.960938 L 10.070312 -5.960938 L 10.070312 -12.433594 L 20.144531 -12.433594 L 20.144531 -18.394531 L 10.070312 -18.394531 L 10.070312 -24.871094 Z M 21.839844 -24.871094 "/></g></g></g><g fill="#ff9ab8" fill-opacity="1"><g transform="translate(416.510301, 242.017861)"><g><path d="M 22.300781 0 L 31.34375 0 L 16.496094 -17.109375 L 29.804688 -30.832031 L 21.066406 -30.832031 L 10.996094 -19.9375 L 9.8125 -19.9375 L 9.8125 -30.832031 L 3.03125 -30.832031 L 3.03125 0 L 9.8125 0 L 9.8125 -14.078125 L 10.789062 -14.078125 Z M 22.300781 0 "/></g></g></g><g fill="#a6a6a6" fill-opacity="1"><g transform="translate(0.937513, 274.210201)"><g><path d="M 10.226562 0.324219 C 13.984375 0.324219 17.136719 -2.101562 18.226562 -5.496094 L 15.558594 -5.496094 C 14.589844 -3.515625 12.570312 -2.183594 10.226562 -2.183594 C 6.953125 -2.183594 4.324219 -4.769531 4.324219 -8.082031 C 4.324219 -11.398438 6.953125 -13.984375 10.226562 -13.984375 C 12.570312 -13.984375 14.589844 -12.648438 15.558594 -10.667969 L 18.226562 -10.667969 C 17.136719 -14.066406 13.984375 -16.488281 10.226562 -16.488281 C 5.578125 -16.488281 1.820312 -12.730469 1.820312 -8.082031 C 1.820312 -3.433594 5.578125 0.324219 10.226562 0.324219 Z M 10.226562 0.324219 "/></g></g></g><g fill="#a6a6a6" fill-opacity="1"><g transform="translate(20.215462, 274.210201)"><g><path d="M 9.054688 -16.488281 C 7.71875 -16.488281 6.464844 -16.046875 5.457031 -15.316406 L 5.457031 -29.746094 L 2.949219 -29.746094 L 2.949219 0 L 5.457031 0 L 5.457031 -10.347656 C 5.457031 -12.40625 7.074219 -13.984375 9.054688 -13.984375 C 11.035156 -13.984375 12.691406 -12.40625 12.691406 -10.347656 L 12.691406 0 L 15.15625 0 L 15.15625 -10.347656 C 15.15625 -13.78125 12.449219 -16.488281 9.054688 -16.488281 Z M 9.054688 -16.488281 "/></g></g></g><g fill="#a6a6a6" fill-opacity="1"><g transform="translate(38.119295, 274.210201)"><g><path d="M 10.226562 0.324219 C 14.871094 0.324219 18.632812 -3.433594 18.632812 -8.082031 C 18.632812 -12.730469 14.871094 -16.488281 10.226562 -16.488281 C 5.578125 -16.488281 1.820312 -12.730469 1.820312 -8.082031 C 1.820312 -3.433594 5.578125 0.324219 10.226562 0.324219 Z M 10.226562 -2.183594 C 6.953125 -2.183594 4.324219 -4.808594 4.324219 -8.082031 C 4.324219 -11.355469 6.953125 -13.984375 10.226562 -13.984375 C 13.457031 -13.984375 16.125 -11.355469 16.125 -8.082031 C 16.125 -4.808594 13.457031 -2.183594 10.226562 -2.183594 Z M 10.226562 -2.183594 "/></g></g></g><g fill="#a6a6a6" fill-opacity="1"><g transform="translate(58.569278, 274.210201)"><g><path d="M 13.054688 -16.167969 L 8.082031 -2.910156 L 3.070312 -16.167969 L 0.363281 -16.167969 L 6.832031 0 L 9.253906 0 L 15.761719 -16.167969 Z M 13.054688 -16.167969 "/></g></g></g><g fill="#a6a6a6" fill-opacity="1"><g transform="translate(74.69486, 274.210201)"><g><path d="M 20.289062 -2.101562 C 19.398438 -2.101562 18.632812 -2.707031 18.632812 -4.203125 L 18.632812 -16.167969 L 16.125 -16.167969 L 16.125 -14.066406 C 14.628906 -15.558594 12.527344 -16.488281 10.226562 -16.488281 C 5.578125 -16.488281 1.820312 -12.730469 1.820312 -8.082031 C 1.820312 -3.433594 5.578125 0.324219 10.226562 0.324219 C 12.648438 0.324219 14.832031 -0.808594 16.367188 -2.464844 C 16.894531 -0.808594 18.1875 0.324219 20.085938 0.324219 C 20.53125 0.324219 20.976562 0.203125 21.300781 0 L 21.300781 -2.101562 Z M 10.226562 -2.183594 C 6.953125 -2.183594 4.324219 -4.808594 4.324219 -8.082031 C 4.324219 -11.355469 6.953125 -13.984375 10.226562 -13.984375 C 13.457031 -13.984375 16.125 -11.355469 16.125 -8.082031 C 16.125 -4.808594 13.457031 -2.183594 10.226562 -2.183594 Z M 10.226562 -2.183594 "/></g></g></g><g fill="#a6a6a6" fill-opacity="1"><g transform="translate(96.478538, 274.210201)"><g><path d="M 10.386719 -13.742188 L 10.386719 -16.167969 L 6.0625 -16.167969 L 6.0625 -23.199219 L 3.554688 -23.199219 L 3.554688 -16.167969 L 0.847656 -16.167969 L 0.847656 -13.742188 L 3.554688 -13.742188 L 3.554688 -4.242188 C 3.554688 -1.699219 5.699219 0.324219 8.203125 0.324219 C 9.011719 0.324219 9.902344 0.0820312 10.347656 -0.203125 L 10.347656 -2.101562 L 8.488281 -2.101562 C 7.195312 -2.101562 6.0625 -3.070312 6.0625 -4.566406 L 6.0625 -13.742188 Z M 10.386719 -13.742188 "/></g></g></g><g fill="#a6a6a6" fill-opacity="1"><g transform="translate(108.198889, 274.210201)"><g><path d="M 18.632812 -8.246094 C 18.511719 -12.894531 14.832031 -16.488281 10.226562 -16.488281 C 5.578125 -16.488281 1.820312 -12.730469 1.820312 -8.082031 C 1.820312 -3.433594 5.578125 0.324219 10.226562 0.324219 C 14.066406 0.324219 17.257812 -2.222656 18.308594 -5.699219 L 15.640625 -5.699219 C 14.75 -3.597656 12.648438 -2.183594 10.226562 -2.183594 C 7.03125 -2.183594 4.484375 -4.605469 4.324219 -7.71875 L 18.589844 -7.71875 Z M 10.226562 -13.984375 C 12.8125 -13.984375 14.996094 -12.328125 15.761719 -9.984375 L 4.648438 -9.984375 C 5.457031 -12.328125 7.636719 -13.984375 10.226562 -13.984375 Z M 10.226562 -13.984375 "/></g></g></g><g fill="#a6a6a6" fill-opacity="1"><g transform="translate(128.487214, 274.210201)"><g><path d="M 2.949219 0 L 5.457031 0 L 5.457031 -29.746094 L 2.949219 -29.746094 Z M 2.949219 0 "/></g></g></g><g fill="#a6a6a6" fill-opacity="1"><g transform="translate(136.893528, 274.210201)"><g><path d="M 6.953125 0.324219 C 9.78125 0.324219 12.125 -1.578125 12.125 -4.363281 C 12.125 -7.273438 9.699219 -8.40625 7.597656 -9.253906 C 5.617188 -10.105469 4.605469 -10.546875 4.605469 -11.964844 C 4.605469 -13.335938 5.535156 -13.984375 6.871094 -13.984375 C 7.921875 -13.984375 8.851562 -13.539062 9.296875 -12.691406 L 11.476562 -13.820312 C 10.871094 -15.277344 8.8125 -16.488281 6.75 -16.488281 C 4.363281 -16.488281 2.0625 -14.832031 2.0625 -11.882812 C 2.0625 -9.335938 3.757812 -8.042969 6.628906 -6.953125 C 8.566406 -6.183594 9.617188 -5.65625 9.617188 -4.363281 C 9.617188 -2.949219 8.40625 -2.140625 6.953125 -2.140625 C 5.457031 -2.140625 4 -2.992188 3.757812 -4.164062 L 1.332031 -3.191406 C 1.941406 -1.253906 4.363281 0.324219 6.953125 0.324219 Z M 6.953125 0.324219 "/></g></g></g><g fill="#a6a6a6" fill-opacity="1"><g transform="translate(150.270891, 274.210201)"><g><path d="M 17.097656 0 L 8.890625 -8.972656 L 16.410156 -16.167969 L 13.054688 -16.167969 L 5.699219 -9.09375 L 5.699219 -29.746094 L 3.191406 -29.746094 L 3.191406 0 L 5.699219 0 L 5.699219 -9.011719 L 13.660156 0 Z M 17.097656 0 "/></g></g></g><g fill="#a6a6a6" fill-opacity="1"><g transform="translate(166.962281, 274.210201)"><g><path d="M 15.679688 -24.25 L 12.769531 -24.25 L 9.214844 -18.269531 L 10.914062 -18.269531 Z M 20.289062 -2.101562 C 19.398438 -2.101562 18.632812 -2.707031 18.632812 -4.203125 L 18.632812 -16.167969 L 16.125 -16.167969 L 16.125 -14.066406 C 14.628906 -15.558594 12.527344 -16.488281 10.226562 -16.488281 C 5.578125 -16.488281 1.820312 -12.730469 1.820312 -8.082031 C 1.820312 -3.433594 5.578125 0.324219 10.226562 0.324219 C 12.648438 0.324219 14.832031 -0.808594 16.367188 -2.464844 C 16.894531 -0.808594 18.1875 0.324219 20.085938 0.324219 C 20.53125 0.324219 20.976562 0.203125 21.300781 0 L 21.300781 -2.101562 Z M 10.226562 -2.183594 C 6.953125 -2.183594 4.324219 -4.808594 4.324219 -8.082031 C 4.324219 -11.355469 6.953125 -13.984375 10.226562 -13.984375 C 13.457031 -13.984375 16.125 -11.355469 16.125 -8.082031 C 16.125 -4.808594 13.457031 -2.183594 10.226562 -2.183594 Z M 10.226562 -2.183594 "/></g></g></g><g fill="#a6a6a6" fill-opacity="1"><g transform="translate(188.745959, 274.210201)"><g/></g></g><g fill="#a6a6a6" fill-opacity="1"><g transform="translate(198.485956, 274.210201)"><g><path d="M 6.953125 0.324219 C 9.78125 0.324219 12.125 -1.578125 12.125 -4.363281 C 12.125 -7.273438 9.699219 -8.40625 7.597656 -9.253906 C 5.617188 -10.105469 4.605469 -10.546875 4.605469 -11.964844 C 4.605469 -13.335938 5.535156 -13.984375 6.871094 -13.984375 C 7.921875 -13.984375 8.851562 -13.539062 9.296875 -12.691406 L 11.476562 -13.820312 C 10.871094 -15.277344 8.8125 -16.488281 6.75 -16.488281 C 4.363281 -16.488281 2.0625 -14.832031 2.0625 -11.882812 C 2.0625 -9.335938 3.757812 -8.042969 6.628906 -6.953125 C 8.566406 -6.183594 9.617188 -5.65625 9.617188 -4.363281 C 9.617188 -2.949219 8.40625 -2.140625 6.953125 -2.140625 C 5.457031 -2.140625 4 -2.992188 3.757812 -4.164062 L 1.332031 -3.191406 C 1.941406 -1.253906 4.363281 0.324219 6.953125 0.324219 Z M 6.953125 0.324219 "/></g></g></g><g fill="#a6a6a6" fill-opacity="1"><g transform="translate(211.86332, 274.210201)"><g><path d="M 10.386719 -13.742188 L 10.386719 -16.167969 L 6.0625 -16.167969 L 6.0625 -23.199219 L 3.554688 -23.199219 L 3.554688 -16.167969 L 0.847656 -16.167969 L 0.847656 -13.742188 L 3.554688 -13.742188 L 3.554688 -4.242188 C 3.554688 -1.699219 5.699219 0.324219 8.203125 0.324219 C 9.011719 0.324219 9.902344 0.0820312 10.347656 -0.203125 L 10.347656 -2.101562 L 8.488281 -2.101562 C 7.195312 -2.101562 6.0625 -3.070312 6.0625 -4.566406 L 6.0625 -13.742188 Z M 10.386719 -13.742188 "/></g></g></g><g fill="#a6a6a6" fill-opacity="1"><g transform="translate(223.583671, 274.210201)"><g><path d="M 20.289062 -2.101562 C 19.398438 -2.101562 18.632812 -2.707031 18.632812 -4.203125 L 18.632812 -16.167969 L 16.125 -16.167969 L 16.125 -14.066406 C 14.628906 -15.558594 12.527344 -16.488281 10.226562 -16.488281 C 5.578125 -16.488281 1.820312 -12.730469 1.820312 -8.082031 C 1.820312 -3.433594 5.578125 0.324219 10.226562 0.324219 C 12.648438 0.324219 14.832031 -0.808594 16.367188 -2.464844 C 16.894531 -0.808594 18.1875 0.324219 20.085938 0.324219 C 20.53125 0.324219 20.976562 0.203125 21.300781 0 L 21.300781 -2.101562 Z M 10.226562 -2.183594 C 6.953125 -2.183594 4.324219 -4.808594 4.324219 -8.082031 C 4.324219 -11.355469 6.953125 -13.984375 10.226562 -13.984375 C 13.457031 -13.984375 16.125 -11.355469 16.125 -8.082031 C 16.125 -4.808594 13.457031 -2.183594 10.226562 -2.183594 Z M 10.226562 -2.183594 "/></g></g></g><g fill="#a6a6a6" fill-opacity="1"><g transform="translate(245.36736, 274.210201)"><g><path d="M 9.375 -16.488281 C 7.882812 -16.488281 6.507812 -15.882812 5.457031 -14.871094 L 5.457031 -16.167969 L 2.949219 -16.167969 L 2.949219 0 L 5.457031 0 L 5.457031 -10.304688 C 5.457031 -12.367188 7.113281 -13.984375 9.175781 -13.984375 C 11.234375 -13.984375 12.851562 -12.367188 12.851562 -10.304688 L 12.851562 0 L 15.359375 0 L 15.359375 -10.304688 C 15.359375 -13.742188 12.488281 -16.488281 9.375 -16.488281 Z M 9.375 -16.488281 "/></g></g></g><g fill="#a6a6a6" fill-opacity="1"><g transform="translate(263.473284, 274.210201)"><g><path d="M 4.527344 -19.199219 C 5.457031 -19.199219 6.265625 -19.964844 6.265625 -20.894531 C 6.265625 -21.90625 5.457031 -22.632812 4.527344 -22.632812 C 3.554688 -22.632812 2.75 -21.90625 2.75 -20.894531 C 2.75 -19.964844 3.554688 -19.199219 4.527344 -19.199219 Z M 3.273438 0 L 5.78125 0 L 5.78125 -16.167969 L 3.273438 -16.167969 Z M 3.273438 0 "/></g></g></g><g fill="#a6a6a6" fill-opacity="1"><g transform="translate(272.485826, 274.210201)"><g><path d="M 10.226562 0.324219 C 13.984375 0.324219 17.136719 -2.101562 18.226562 -5.496094 L 15.558594 -5.496094 C 14.589844 -3.515625 12.570312 -2.183594 10.226562 -2.183594 C 6.953125 -2.183594 4.324219 -4.769531 4.324219 -8.082031 C 4.324219 -11.398438 6.953125 -13.984375 10.226562 -13.984375 C 12.570312 -13.984375 14.589844 -12.648438 15.558594 -10.667969 L 18.226562 -10.667969 C 17.136719 -14.066406 13.984375 -16.488281 10.226562 -16.488281 C 5.578125 -16.488281 1.820312 -12.730469 1.820312 -8.082031 C 1.820312 -3.433594 5.578125 0.324219 10.226562 0.324219 Z M 10.226562 0.324219 "/></g></g></g><g fill="#a6a6a6" fill-opacity="1"><g transform="translate(291.763763, 274.210201)"><g><path d="M 18.632812 -8.246094 C 18.511719 -12.894531 14.832031 -16.488281 10.226562 -16.488281 C 5.578125 -16.488281 1.820312 -12.730469 1.820312 -8.082031 C 1.820312 -3.433594 5.578125 0.324219 10.226562 0.324219 C 14.066406 0.324219 17.257812 -2.222656 18.308594 -5.699219 L 15.640625 -5.699219 C 14.75 -3.597656 12.648438 -2.183594 10.226562 -2.183594 C 7.03125 -2.183594 4.484375 -4.605469 4.324219 -7.71875 L 18.589844 -7.71875 Z M 10.226562 -13.984375 C 12.8125 -13.984375 14.996094 -12.328125 15.761719 -9.984375 L 4.648438 -9.984375 C 5.457031 -12.328125 7.636719 -13.984375 10.226562 -13.984375 Z M 10.226562 -13.984375 "/></g></g></g><g fill="#a6a6a6" fill-opacity="1"><g transform="translate(312.052075, 274.210201)"><g/></g></g><g fill="#a6a6a6" fill-opacity="1"><g transform="translate(321.792095, 274.210201)"><g><path d="M 11.355469 -16.488281 C 9.054688 -16.488281 6.992188 -15.558594 5.457031 -14.066406 L 5.457031 -16.167969 L 2.949219 -16.167969 L 2.949219 9.699219 L 5.457031 9.699219 L 5.457031 -2.101562 C 6.992188 -0.605469 9.054688 0.324219 11.355469 0.324219 C 16.003906 0.324219 19.761719 -3.433594 19.761719 -8.082031 C 19.761719 -12.730469 16.003906 -16.488281 11.355469 -16.488281 Z M 11.355469 -2.183594 C 8.082031 -2.183594 5.457031 -4.808594 5.457031 -8.082031 C 5.457031 -11.355469 8.082031 -13.984375 11.355469 -13.984375 C 14.628906 -13.984375 17.257812 -11.355469 17.257812 -8.082031 C 17.257812 -4.808594 14.628906 -2.183594 11.355469 -2.183594 Z M 11.355469 -2.183594 "/></g></g></g><g fill="#a6a6a6" fill-opacity="1"><g transform="translate(343.373682, 274.210201)"><g><path d="M 10.226562 0.324219 C 14.871094 0.324219 18.632812 -3.433594 18.632812 -8.082031 C 18.632812 -12.730469 14.871094 -16.488281 10.226562 -16.488281 C 5.578125 -16.488281 1.820312 -12.730469 1.820312 -8.082031 C 1.820312 -3.433594 5.578125 0.324219 10.226562 0.324219 Z M 10.226562 -2.183594 C 6.953125 -2.183594 4.324219 -4.808594 4.324219 -8.082031 C 4.324219 -11.355469 6.953125 -13.984375 10.226562 -13.984375 C 13.457031 -13.984375 16.125 -11.355469 16.125 -8.082031 C 16.125 -4.808594 13.457031 -2.183594 10.226562 -2.183594 Z M 10.226562 -2.183594 "/></g></g></g><g fill="#a6a6a6" fill-opacity="1"><g transform="translate(363.823677, 274.210201)"><g><path d="M 10.386719 -13.742188 L 10.386719 -16.167969 L 6.0625 -16.167969 L 6.0625 -23.199219 L 3.554688 -23.199219 L 3.554688 -16.167969 L 0.847656 -16.167969 L 0.847656 -13.742188 L 3.554688 -13.742188 L 3.554688 -4.242188 C 3.554688 -1.699219 5.699219 0.324219 8.203125 0.324219 C 9.011719 0.324219 9.902344 0.0820312 10.347656 -0.203125 L 10.347656 -2.101562 L 8.488281 -2.101562 C 7.195312 -2.101562 6.0625 -3.070312 6.0625 -4.566406 L 6.0625 -13.742188 Z M 10.386719 -13.742188 "/></g></g></g><g fill="#a6a6a6" fill-opacity="1"><g transform="translate(375.544028, 274.210201)"><g><path d="M 17.097656 0 L 8.890625 -8.972656 L 16.410156 -16.167969 L 13.054688 -16.167969 L 5.699219 -9.09375 L 5.699219 -29.746094 L 3.191406 -29.746094 L 3.191406 0 L 5.699219 0 L 5.699219 -9.011719 L 13.660156 0 Z M 17.097656 0 "/></g></g></g><g fill="#a6a6a6" fill-opacity="1"><g transform="translate(392.235417, 274.210201)"><g><path d="M 20.289062 -2.101562 C 19.398438 -2.101562 18.632812 -2.707031 18.632812 -4.203125 L 18.632812 -16.167969 L 16.125 -16.167969 L 16.125 -14.066406 C 14.628906 -15.558594 12.527344 -16.488281 10.226562 -16.488281 C 5.578125 -16.488281 1.820312 -12.730469 1.820312 -8.082031 C 1.820312 -3.433594 5.578125 0.324219 10.226562 0.324219 C 12.648438 0.324219 14.832031 -0.808594 16.367188 -2.464844 C 16.894531 -0.808594 18.1875 0.324219 20.085938 0.324219 C 20.53125 0.324219 20.976562 0.203125 21.300781 0 L 21.300781 -2.101562 Z M 10.226562 -2.183594 C 6.953125 -2.183594 4.324219 -4.808594 4.324219 -8.082031 C 4.324219 -11.355469 6.953125 -13.984375 10.226562 -13.984375 C 13.457031 -13.984375 16.125 -11.355469 16.125 -8.082031 C 16.125 -4.808594 13.457031 -2.183594 10.226562 -2.183594 Z M 10.226562 -2.183594 "/></g></g></g><g fill="#a6a6a6" fill-opacity="1"><g transform="translate(414.019106, 274.210201)"><g><path d="M 9.375 -16.488281 C 7.882812 -16.488281 6.507812 -15.882812 5.457031 -14.871094 L 5.457031 -16.167969 L 2.949219 -16.167969 L 2.949219 0 L 5.457031 0 L 5.457031 -10.304688 C 5.457031 -12.367188 7.113281 -13.984375 9.175781 -13.984375 C 11.234375 -13.984375 12.851562 -12.367188 12.851562 -10.304688 L 12.851562 0 L 15.359375 0 L 15.359375 -10.304688 C 15.359375 -13.742188 12.488281 -16.488281 9.375 -16.488281 Z M 9.375 -16.488281 "/></g></g></g><g fill="#a6a6a6" fill-opacity="1"><g transform="translate(432.125031, 274.210201)"><g><path d="M 8.566406 -17.703125 C 10.386719 -17.703125 11.882812 -19.238281 11.882812 -21.054688 C 11.882812 -22.914062 10.386719 -24.410156 8.566406 -24.410156 C 6.710938 -24.410156 5.171875 -22.914062 5.171875 -21.054688 C 5.171875 -19.238281 6.710938 -17.703125 8.566406 -17.703125 Z M 8.566406 -19.078125 C 7.4375 -19.078125 6.585938 -19.925781 6.585938 -21.054688 C 6.585938 -22.148438 7.4375 -23.078125 8.566406 -23.078125 C 9.617188 -23.078125 10.507812 -22.148438 10.507812 -21.054688 C 10.507812 -19.925781 9.617188 -19.078125 8.566406 -19.078125 Z M 8.488281 0.324219 C 12.085938 0.324219 14.550781 -2.0625 14.550781 -5.820312 L 14.550781 -16.167969 L 12.085938 -16.167969 L 12.085938 -6.101562 C 12.085938 -3.679688 10.589844 -2.183594 8.488281 -2.183594 C 6.425781 -2.183594 4.890625 -3.679688 4.890625 -6.101562 L 4.890625 -16.167969 L 2.425781 -16.167969 L 2.425781 -5.820312 C 2.425781 -2.0625 4.851562 0.324219 8.488281 0.324219 Z M 8.488281 0.324219 "/></g></g></g></svg>