<svg xmlns="http://www.w3.org/2000/svg" xmlns:xlink="http://www.w3.org/1999/xlink" width="600" zoomAndPan="magnify" viewBox="0 0 450 292.499991" height="390" preserveAspectRatio="xMidYMid meet" version="1.0"><defs><g/><clipPath id="3df305deef"><path d="M 345.222656 129.378906 L 376.929688 129.378906 L 376.929688 161.101562 L 345.222656 161.101562 Z M 345.222656 129.378906 " clip-rule="nonzero"/></clipPath><clipPath id="3350de8653"><path d="M 387 1.636719 L 423 1.636719 L 423 31 L 387 31 Z M 387 1.636719 " clip-rule="nonzero"/></clipPath><clipPath id="53f7adf351"><path d="M 428.050781 4.691406 L 449.613281 4.691406 L 449.613281 49.960938 L 428.050781 49.960938 Z M 428.050781 4.691406 " clip-rule="nonzero"/></clipPath><clipPath id="0a8c2b08fb"><path d="M 210.453125 163.363281 L 242.160156 163.363281 L 242.160156 195.085938 L 210.453125 195.085938 Z M 210.453125 163.363281 " clip-rule="nonzero"/></clipPath><clipPath id="082d40b048"><path d="M 135.152344 75 L 175 75 L 175 106 L 135.152344 106 Z M 135.152344 75 " clip-rule="nonzero"/></clipPath><clipPath id="4f22702bd6"><path d="M 135.152344 42 L 165 42 L 165 72 L 135.152344 72 Z M 135.152344 42 " clip-rule="nonzero"/></clipPath><clipPath id="cc2bd48fec"><path d="M 252 35.621094 L 288 35.621094 L 288 64 L 252 64 Z M 252 35.621094 " clip-rule="nonzero"/></clipPath><clipPath id="f1cb97cfca"><path d="M 293.28125 38.675781 L 314.847656 38.675781 L 314.847656 83.949219 L 293.28125 83.949219 Z M 293.28125 38.675781 " clip-rule="nonzero"/></clipPath><clipPath id="96c8682de0"><path d="M 75.683594 129.378906 L 107.390625 129.378906 L 107.390625 161.101562 L 75.683594 161.101562 Z M 75.683594 129.378906 " clip-rule="nonzero"/></clipPath><clipPath id="01b55f7640"><path d="M 0.382812 41 L 40 41 L 40 72 L 0.382812 72 Z M 0.382812 41 " clip-rule="nonzero"/></clipPath><clipPath id="4e2ee4789b"><path d="M 0.382812 8 L 30 8 L 30 38 L 0.382812 38 Z M 0.382812 8 " clip-rule="nonzero"/></clipPath><clipPath id="a8425d8d1e"><path d="M 117 1.636719 L 153 1.636719 L 153 31 L 117 31 Z M 117 1.636719 " clip-rule="nonzero"/></clipPath><clipPath id="63538e5a2d"><path d="M 158.511719 4.691406 L 180.078125 4.691406 L 180.078125 49.960938 L 158.511719 49.960938 Z M 158.511719 4.691406 " clip-rule="nonzero"/></clipPath></defs><path fill="#000000" d="M 371.832031 150.058594 C 371.226562 150.058594 370.617188 149.859375 370.109375 149.449219 C 368.929688 148.5 368.746094 146.765625 369.695312 145.585938 L 382.976562 129.070312 C 383.929688 127.882812 385.65625 127.695312 386.839844 128.652344 C 388.019531 129.601562 388.203125 131.335938 387.253906 132.515625 L 373.972656 149.035156 C 373.429688 149.710938 372.632812 150.058594 371.832031 150.058594 " fill-opacity="1" fill-rule="nonzero"/><path fill="#000000" d="M 394.398438 160.90625 C 393.996094 160.90625 393.59375 160.824219 393.210938 160.636719 L 370.644531 149.789062 C 369.277344 149.132812 368.703125 147.488281 369.359375 146.117188 C 370.015625 144.75 371.65625 144.167969 373.019531 144.832031 L 395.585938 155.679688 C 396.953125 156.335938 397.527344 157.976562 396.871094 159.347656 C 396.402344 160.332031 395.417969 160.90625 394.398438 160.90625 " fill-opacity="1" fill-rule="nonzero"/><path fill="#000000" d="M 351.351562 150.058594 C 350.550781 150.058594 349.753906 149.710938 349.210938 149.035156 L 335.929688 132.515625 C 334.980469 131.335938 335.164062 129.601562 336.34375 128.652344 C 337.523438 127.695312 339.253906 127.882812 340.203125 129.070312 L 353.488281 145.585938 C 354.4375 146.765625 354.25 148.5 353.070312 149.449219 C 352.5625 149.859375 351.957031 150.058594 351.351562 150.058594 " fill-opacity="1" fill-rule="nonzero"/><path fill="#000000" d="M 328.785156 160.90625 C 327.761719 160.90625 326.78125 160.332031 326.308594 159.347656 C 325.652344 157.976562 326.230469 156.335938 327.597656 155.679688 L 350.164062 144.832031 C 351.527344 144.167969 353.167969 144.75 353.824219 146.117188 C 354.480469 147.488281 353.902344 149.132812 352.535156 149.789062 L 329.972656 160.636719 C 329.589844 160.824219 329.183594 160.90625 328.785156 160.90625 " fill-opacity="1" fill-rule="nonzero"/><path fill="#b2b2b2" d="M 328.796875 30.117188 L 306.453125 67.902344 C 306.453125 67.929688 306.398438 67.929688 306.371094 67.929688 C 290.863281 70.625 276.066406 60.339844 273.105469 44.910156 C 273.078125 44.71875 273.023438 44.527344 272.996094 44.332031 C 270.277344 28.605469 280.816406 13.644531 296.515625 10.921875 C 305.191406 9.410156 313.644531 11.9375 319.929688 17.191406 C 323.9375 20.519531 327.039062 24.945312 328.796875 30.117188 " fill-opacity="1" fill-rule="nonzero"/><path fill="#6b6161" d="M 328.796875 30.117188 L 306.453125 67.902344 C 306.453125 67.929688 306.398438 67.929688 306.371094 67.929688 C 290.863281 70.625 276.066406 60.339844 273.105469 44.910156 C 284.960938 51.484375 299.125 52.472656 310.570312 32.976562 C 314.246094 26.707031 317.347656 21.507812 319.929688 17.191406 C 323.9375 20.519531 327.039062 24.945312 328.796875 30.117188 " fill-opacity="1" fill-rule="nonzero"/><path fill="#b2b2b2" d="M 422.914062 61.90625 C 419.921875 62.429688 416.957031 62.484375 414.101562 62.097656 L 412.398438 59.679688 L 389.757812 27.257812 C 392.171875 16.089844 401.148438 6.960938 413.058594 4.898438 C 416.160156 4.347656 419.261719 4.347656 422.199219 4.761719 C 434.222656 6.550781 444.265625 15.84375 446.433594 28.464844 C 449.152344 44.195312 438.613281 59.183594 422.914062 61.90625 " fill-opacity="1" fill-rule="nonzero"/><path fill="#6b6161" d="M 422.914062 61.90625 C 419.921875 62.429688 416.957031 62.484375 414.101562 62.097656 L 412.398438 59.679688 C 421.925781 53.710938 433.066406 40.839844 425.683594 14.632812 C 424.613281 10.839844 423.433594 7.566406 422.199219 4.761719 C 434.222656 6.550781 444.265625 15.84375 446.433594 28.464844 C 449.152344 44.195312 438.613281 59.183594 422.914062 61.90625 " fill-opacity="1" fill-rule="nonzero"/><path fill="#b2b2b2" d="M 418 87.398438 C 418 114.210938 390.25 137.503906 373.507812 149.109375 C 366.015625 154.304688 356.132812 154.304688 348.640625 149.109375 C 342.160156 144.625 334.039062 138.382812 326.542969 130.875 C 314.605469 118.96875 304.175781 103.84375 304.175781 87.398438 C 304.175781 48.980469 329.644531 17.824219 361.074219 17.824219 C 365.792969 17.824219 370.351562 18.511719 374.714844 19.859375 C 399.554688 27.3125 418 54.730469 418 87.398438 " fill-opacity="1" fill-rule="nonzero"/><path fill="#6b6161" d="M 418 87.398438 C 418 114.210938 390.25 137.503906 373.507812 149.109375 C 366.015625 154.304688 356.132812 154.304688 348.640625 149.109375 C 342.160156 144.625 334.039062 138.382812 326.542969 130.875 C 355.0625 120.648438 388.21875 97.957031 378.476562 48.375 C 376.308594 37.375 375.125 27.917969 374.714844 19.859375 C 399.554688 27.3125 418 54.730469 418 87.398438 " fill-opacity="1" fill-rule="nonzero"/><path fill="#000000" d="M 333.425781 102.636719 C 333.425781 105.203125 331.347656 107.285156 328.785156 107.285156 C 326.222656 107.285156 324.144531 105.203125 324.144531 102.636719 C 324.144531 100.066406 326.222656 97.984375 328.785156 97.984375 C 331.347656 97.984375 333.425781 100.066406 333.425781 102.636719 " fill-opacity="1" fill-rule="nonzero"/><path fill="#000000" d="M 328.785156 99.359375 C 326.980469 99.359375 325.515625 100.828125 325.515625 102.632812 C 325.515625 104.441406 326.980469 105.910156 328.785156 105.910156 C 330.585938 105.910156 332.054688 104.441406 332.054688 102.632812 C 332.054688 100.828125 330.585938 99.359375 328.785156 99.359375 Z M 328.785156 108.660156 C 325.46875 108.660156 322.769531 105.957031 322.769531 102.632812 C 322.769531 99.3125 325.46875 96.609375 328.785156 96.609375 C 332.101562 96.609375 334.796875 99.3125 334.796875 102.632812 C 334.796875 105.957031 332.101562 108.660156 328.785156 108.660156 " fill-opacity="1" fill-rule="nonzero"/><path fill="#000000" d="M 394.398438 102.636719 C 394.398438 105.203125 392.320312 107.285156 389.757812 107.285156 C 387.195312 107.285156 385.117188 105.203125 385.117188 102.636719 C 385.117188 100.066406 387.195312 97.984375 389.757812 97.984375 C 392.320312 97.984375 394.398438 100.066406 394.398438 102.636719 " fill-opacity="1" fill-rule="nonzero"/><path fill="#000000" d="M 389.757812 99.359375 C 387.953125 99.359375 386.488281 100.828125 386.488281 102.632812 C 386.488281 104.441406 387.953125 105.910156 389.757812 105.910156 C 391.558594 105.910156 393.027344 104.441406 393.027344 102.632812 C 393.027344 100.828125 391.558594 99.359375 389.757812 99.359375 Z M 389.757812 108.660156 C 386.441406 108.660156 383.742188 105.957031 383.742188 102.632812 C 383.742188 99.3125 386.441406 96.609375 389.757812 96.609375 C 393.074219 96.609375 395.769531 99.3125 395.769531 102.632812 C 395.769531 105.957031 393.074219 108.660156 389.757812 108.660156 " fill-opacity="1" fill-rule="nonzero"/><path fill="#000000" d="M 375.523438 145.261719 C 375.523438 153.25 369.058594 159.726562 361.085938 159.726562 C 353.109375 159.726562 346.644531 153.25 346.644531 145.261719 C 346.644531 137.269531 353.109375 130.792969 361.085938 130.792969 C 369.058594 130.792969 375.523438 137.269531 375.523438 145.261719 " fill-opacity="1" fill-rule="nonzero"/><g clip-path="url(#3df305deef)"><path fill="#000000" d="M 361.085938 132.167969 C 353.878906 132.167969 348.015625 138.039062 348.015625 145.261719 C 348.015625 152.476562 353.878906 158.351562 361.085938 158.351562 C 368.289062 158.351562 374.148438 152.476562 374.148438 145.261719 C 374.148438 138.039062 368.289062 132.167969 361.085938 132.167969 Z M 361.085938 161.101562 C 352.367188 161.101562 345.273438 153.996094 345.273438 145.261719 C 345.273438 136.523438 352.367188 129.417969 361.085938 129.417969 C 369.804688 129.417969 376.894531 136.523438 376.894531 145.261719 C 376.894531 153.996094 369.804688 161.101562 361.085938 161.101562 " fill-opacity="1" fill-rule="nonzero"/></g><path fill="#ffe3e6" d="M 318.640625 38.3125 L 307.167969 57.726562 C 307.140625 57.753906 307.140625 57.753906 307.113281 57.753906 C 299.753906 59.046875 292.703125 54.617188 290.476562 47.6875 C 290.257812 47.027344 290.09375 46.339844 289.957031 45.625 C 288.558594 37.542969 293.964844 29.839844 302.0625 28.4375 C 305.683594 27.804688 309.199219 28.546875 312.132812 30.308594 C 315.125 32.070312 317.488281 34.875 318.640625 38.3125 " fill-opacity="1" fill-rule="nonzero"/><path fill="#f7d0d6" d="M 318.640625 38.3125 L 307.167969 57.726562 C 307.140625 57.753906 307.140625 57.753906 307.113281 57.753906 C 299.753906 59.046875 292.703125 54.617188 290.476562 47.6875 C 298.191406 46.5625 307.824219 42.546875 312.132812 30.308594 C 315.125 32.070312 317.488281 34.875 318.640625 38.3125 " fill-opacity="1" fill-rule="nonzero"/><path fill="#ffe3e6" d="M 427.523438 41.941406 C 426.125 50.054688 419.207031 55.691406 411.136719 54.289062 L 407.761719 48.871094 L 398.867188 34.625 C 401.148438 27.804688 408.117188 23.515625 415.417969 24.753906 C 415.722656 24.808594 415.996094 24.863281 416.296875 24.945312 C 423.902344 26.734375 428.867188 34.160156 427.523438 41.941406 " fill-opacity="1" fill-rule="nonzero"/><path fill="#f7d0d6" d="M 427.523438 41.941406 C 426.125 50.054688 419.207031 55.691406 411.136719 54.289062 L 407.761719 48.871094 C 415.007812 47.222656 423.296875 42.710938 418.300781 30.308594 C 417.449219 28.21875 416.792969 26.429688 416.296875 24.945312 C 423.902344 26.734375 428.867188 34.160156 427.523438 41.941406 " fill-opacity="1" fill-rule="nonzero"/><path fill="#000000" d="M 312.601562 116.480469 C 311.683594 116.480469 310.792969 116.023438 310.273438 115.1875 C 304.410156 105.796875 301.4375 96.445312 301.4375 87.394531 C 301.4375 47.515625 328.195312 15.070312 361.085938 15.070312 C 363.941406 15.070312 366.808594 15.316406 369.601562 15.800781 C 371.09375 16.0625 372.09375 17.484375 371.835938 18.980469 C 371.578125 20.476562 370.164062 21.476562 368.664062 21.21875 C 366.179688 20.789062 363.628906 20.570312 361.085938 20.570312 C 331.222656 20.570312 306.925781 50.546875 306.925781 87.394531 C 306.925781 95.398438 309.617188 103.769531 314.925781 112.269531 C 315.730469 113.558594 315.339844 115.253906 314.054688 116.058594 C 313.601562 116.34375 313.097656 116.480469 312.601562 116.480469 " fill-opacity="1" fill-rule="nonzero"/><path fill="#000000" d="M 361.085938 155.71875 C 356.179688 155.71875 351.273438 154.269531 347.089844 151.367188 C 337.445312 144.675781 329.058594 137.59375 322.160156 130.316406 C 321.117188 129.214844 321.164062 127.472656 322.261719 126.425781 C 323.359375 125.382812 325.097656 125.425781 326.140625 126.527344 C 334.410156 135.257812 343.796875 142.394531 350.214844 146.84375 C 356.816406 151.425781 365.351562 151.425781 371.957031 146.84375 C 380.675781 140.796875 393.015625 131.113281 402.277344 119.316406 C 403.214844 118.121094 404.945312 117.921875 406.128906 118.851562 C 407.320312 119.792969 407.527344 121.523438 406.589844 122.714844 C 396.90625 135.050781 384.113281 145.105469 375.082031 151.367188 C 370.894531 154.269531 365.988281 155.71875 361.085938 155.71875 " fill-opacity="1" fill-rule="nonzero"/><path fill="#000000" d="M 409.847656 116.023438 C 409.359375 116.023438 408.863281 115.890625 408.414062 115.613281 C 407.121094 114.820312 406.71875 113.125 407.515625 111.832031 C 412.644531 103.480469 415.242188 95.257812 415.242188 87.394531 C 415.242188 58.113281 399.375 31.789062 376.648438 23.375 C 375.226562 22.851562 374.5 21.269531 375.027344 19.84375 C 375.550781 18.421875 377.132812 17.691406 378.550781 18.214844 C 403.78125 27.554688 420.734375 55.355469 420.734375 87.394531 C 420.734375 96.292969 417.859375 105.484375 412.191406 114.714844 C 411.671875 115.558594 410.773438 116.023438 409.847656 116.023438 " fill-opacity="1" fill-rule="nonzero"/><path fill="#000000" d="M 304.582031 60.714844 C 302.621094 60.714844 300.664062 60.390625 298.808594 59.742188 C 297.375 59.242188 296.621094 57.671875 297.117188 56.238281 C 297.617188 54.808594 299.179688 54.046875 300.613281 54.546875 C 302.511719 55.207031 304.5625 55.382812 306.558594 55.054688 C 307.382812 54.867188 308.28125 55.070312 308.964844 55.667969 C 310.105469 56.667969 310.222656 58.40625 309.222656 59.546875 C 308.804688 60.027344 308.210938 60.347656 307.582031 60.457031 C 306.589844 60.628906 305.585938 60.714844 304.582031 60.714844 " fill-opacity="1" fill-rule="nonzero"/><path fill="#000000" d="M 293.34375 55.558594 C 292.574219 55.558594 291.808594 55.238281 291.265625 54.609375 C 289.183594 52.199219 287.796875 49.257812 287.25 46.097656 C 286.449219 41.460938 287.496094 36.789062 290.203125 32.945312 C 292.910156 29.097656 296.949219 26.539062 301.578125 25.738281 C 310.183594 24.253906 318.441406 29.167969 321.226562 37.433594 C 321.710938 38.871094 320.941406 40.433594 319.507812 40.917969 C 318.0625 41.402344 316.511719 40.628906 316.027344 39.195312 C 314.109375 33.511719 308.417969 30.121094 302.515625 31.15625 C 299.332031 31.710938 296.550781 33.46875 294.691406 36.113281 C 292.828125 38.757812 292.109375 41.972656 292.660156 45.160156 C 293.035156 47.332031 293.988281 49.355469 295.417969 51.011719 C 296.410156 52.160156 296.285156 53.894531 295.136719 54.886719 C 294.621094 55.339844 293.980469 55.558594 293.34375 55.558594 " fill-opacity="1" fill-rule="nonzero"/><path fill="#000000" d="M 413.632812 57.246094 C 412.65625 57.246094 411.664062 57.160156 410.664062 56.984375 C 409.171875 56.726562 408.171875 55.300781 408.429688 53.804688 C 408.6875 52.308594 410.105469 51.3125 411.605469 51.566406 C 415.488281 52.234375 419.203125 50.921875 421.804688 47.949219 C 422.804688 46.804688 424.539062 46.695312 425.675781 47.695312 C 426.816406 48.695312 426.933594 50.433594 425.933594 51.574219 C 422.707031 55.257812 418.335938 57.246094 413.632812 57.246094 " fill-opacity="1" fill-rule="nonzero"/><path fill="#000000" d="M 427.535156 44.6875 C 427.378906 44.6875 427.222656 44.675781 427.0625 44.648438 C 425.570312 44.386719 424.566406 42.964844 424.828125 41.464844 C 425.382812 38.285156 424.660156 35.078125 422.792969 32.4375 C 420.929688 29.792969 418.144531 28.03125 414.953125 27.472656 C 409.046875 26.460938 403.367188 29.828125 401.460938 35.5 C 400.980469 36.9375 399.433594 37.710938 397.984375 37.230469 C 396.550781 36.746094 395.777344 35.1875 396.261719 33.746094 C 399.03125 25.488281 407.296875 20.574219 415.890625 22.054688 C 420.527344 22.859375 424.570312 25.421875 427.277344 29.261719 C 429.988281 33.109375 431.042969 37.777344 430.238281 42.410156 C 430.003906 43.746094 428.84375 44.6875 427.535156 44.6875 " fill-opacity="1" fill-rule="nonzero"/><path fill="#000000" d="M 301.398438 71.109375 C 288.257812 71.109375 276.269531 62.914062 271.695312 50.160156 C 271.074219 48.4375 270.601562 46.636719 270.285156 44.816406 C 270.027344 43.320312 271.027344 41.894531 272.523438 41.636719 C 274.03125 41.382812 275.4375 42.382812 275.695312 43.878906 C 275.953125 45.386719 276.347656 46.875 276.859375 48.300781 C 281.148438 60.242188 293.308594 67.359375 305.804688 65.234375 C 306.710938 65.011719 307.703125 65.253906 308.40625 65.960938 C 309.480469 67.035156 309.480469 68.773438 308.40625 69.851562 C 308.003906 70.253906 307.433594 70.535156 306.851562 70.636719 C 305.023438 70.953125 303.199219 71.109375 301.398438 71.109375 " fill-opacity="1" fill-rule="nonzero"/><path fill="#000000" d="M 272.863281 37.996094 C 272.730469 37.996094 272.597656 37.988281 272.464844 37.96875 C 270.964844 37.75 269.925781 36.351562 270.140625 34.851562 C 271.785156 23.515625 279.4375 13.929688 290.105469 9.839844 C 292.015625 9.105469 294.019531 8.550781 296.054688 8.199219 C 297.558594 7.945312 298.972656 8.945312 299.230469 10.441406 C 299.488281 11.9375 298.484375 13.363281 296.992188 13.621094 C 295.304688 13.914062 293.648438 14.367188 292.070312 14.972656 C 283.253906 18.355469 276.933594 26.277344 275.574219 35.640625 C 275.375 37.011719 274.203125 37.996094 272.863281 37.996094 " fill-opacity="1" fill-rule="nonzero"/><path fill="#000000" d="M 328.785156 32.859375 C 327.636719 32.859375 326.570312 32.136719 326.183594 30.988281 C 323.472656 22.957031 316.992188 16.71875 308.839844 14.300781 C 307.386719 13.871094 306.558594 12.339844 306.988281 10.882812 C 307.417969 9.425781 308.949219 8.59375 310.398438 9.027344 C 320.257812 11.953125 328.105469 19.503906 331.382812 29.226562 C 331.871094 30.667969 331.097656 32.226562 329.664062 32.714844 C 329.371094 32.8125 329.074219 32.859375 328.785156 32.859375 " fill-opacity="1" fill-rule="nonzero"/><g clip-path="url(#3350de8653)"><path fill="#000000" d="M 389.761719 30.007812 C 389.566406 30.007812 389.371094 29.988281 389.175781 29.945312 C 387.695312 29.621094 386.753906 28.160156 387.074219 26.675781 C 389.8125 14.011719 399.832031 4.402344 412.597656 2.183594 C 414.855469 1.796875 417.144531 1.652344 419.402344 1.746094 C 420.914062 1.808594 422.089844 3.09375 422.023438 4.609375 C 421.957031 6.128906 420.734375 7.367188 419.164062 7.238281 C 417.300781 7.160156 415.402344 7.28125 413.53125 7.605469 C 402.980469 9.433594 394.703125 17.375 392.441406 27.839844 C 392.160156 29.125 391.023438 30.007812 389.761719 30.007812 " fill-opacity="1" fill-rule="nonzero"/></g><g clip-path="url(#53f7adf351)"><path fill="#000000" d="M 443.359375 49.957031 C 442.917969 49.957031 442.46875 49.851562 442.050781 49.625 C 440.71875 48.898438 440.226562 47.230469 440.949219 45.894531 C 443.789062 40.664062 444.75 34.796875 443.734375 28.925781 C 442.320312 20.746094 437.046875 13.65625 429.625 9.953125 C 428.269531 9.273438 427.71875 7.621094 428.394531 6.261719 C 429.066406 4.90625 430.710938 4.347656 432.074219 5.027344 C 441.050781 9.507812 447.433594 18.089844 449.144531 27.984375 C 450.371094 35.09375 449.207031 42.195312 445.773438 48.519531 C 445.273438 49.441406 444.332031 49.957031 443.359375 49.957031 " fill-opacity="1" fill-rule="nonzero"/></g><path fill="#000000" d="M 417.894531 65.097656 C 416.507812 65.097656 415.121094 65.003906 413.742188 64.824219 C 412.238281 64.632812 411.179688 63.25 411.375 61.746094 C 411.570312 60.238281 412.941406 59.160156 414.449219 59.375 C 417.109375 59.71875 419.800781 59.660156 422.460938 59.203125 C 428.144531 58.214844 433.21875 55.453125 437.136719 51.214844 C 438.167969 50.097656 439.902344 50.03125 441.019531 51.066406 C 442.128906 52.097656 442.195312 53.839844 441.167969 54.953125 C 436.421875 60.082031 430.277344 63.429688 423.394531 64.625 C 421.570312 64.9375 419.730469 65.097656 417.894531 65.097656 " fill-opacity="1" fill-rule="nonzero"/><path fill="#000000" d="M 237.0625 184.042969 C 236.457031 184.042969 235.847656 183.84375 235.339844 183.433594 C 234.160156 182.484375 233.976562 180.75 234.925781 179.570312 L 248.207031 163.054688 C 249.160156 161.867188 250.886719 161.679688 252.070312 162.636719 C 253.25 163.589844 253.433594 165.320312 252.484375 166.5 L 239.203125 183.019531 C 238.660156 183.695312 237.863281 184.042969 237.0625 184.042969 " fill-opacity="1" fill-rule="nonzero"/><path fill="#000000" d="M 259.628906 194.894531 C 259.226562 194.894531 258.824219 194.808594 258.441406 194.621094 L 235.875 183.773438 C 234.507812 183.117188 233.933594 181.472656 234.589844 180.105469 C 235.246094 178.734375 236.886719 178.15625 238.25 178.816406 L 260.816406 189.664062 C 262.183594 190.320312 262.757812 191.964844 262.101562 193.332031 C 261.632812 194.320312 260.648438 194.894531 259.628906 194.894531 " fill-opacity="1" fill-rule="nonzero"/><path fill="#000000" d="M 216.582031 184.042969 C 215.78125 184.042969 214.984375 183.695312 214.441406 183.019531 L 201.160156 166.5 C 200.210938 165.320312 200.394531 163.589844 201.574219 162.636719 C 202.753906 161.679688 204.484375 161.867188 205.433594 163.054688 L 218.71875 179.570312 C 219.667969 180.75 219.480469 182.484375 218.300781 183.433594 C 217.792969 183.84375 217.1875 184.042969 216.582031 184.042969 " fill-opacity="1" fill-rule="nonzero"/><path fill="#000000" d="M 194.015625 194.894531 C 192.992188 194.894531 192.011719 194.320312 191.539062 193.332031 C 190.882812 191.964844 191.460938 190.320312 192.828125 189.664062 L 215.394531 178.816406 C 216.757812 178.15625 218.398438 178.734375 219.054688 180.105469 C 219.710938 181.472656 219.132812 183.117188 217.765625 183.773438 L 195.203125 194.621094 C 194.820312 194.808594 194.414062 194.894531 194.015625 194.894531 " fill-opacity="1" fill-rule="nonzero"/><path fill="#e1b49a" d="M 194.027344 64.101562 L 171.683594 101.886719 C 171.683594 101.914062 171.628906 101.914062 171.601562 101.914062 C 156.09375 104.609375 141.296875 94.324219 138.335938 78.898438 C 138.308594 78.703125 138.253906 78.511719 138.226562 78.320312 C 135.507812 62.589844 146.046875 47.628906 161.746094 44.90625 C 170.421875 43.394531 178.875 45.921875 185.160156 51.175781 C 189.167969 54.503906 192.269531 58.929688 194.027344 64.101562 " fill-opacity="1" fill-rule="nonzero"/><path fill="#a67a64" d="M 194.027344 64.101562 L 171.683594 101.886719 C 171.683594 101.914062 171.628906 101.914062 171.601562 101.914062 C 156.09375 104.609375 141.296875 94.324219 138.335938 78.898438 C 150.191406 85.46875 164.355469 86.457031 175.800781 66.960938 C 179.476562 60.691406 182.578125 55.492188 185.160156 51.175781 C 189.167969 54.503906 192.269531 58.929688 194.027344 64.101562 " fill-opacity="1" fill-rule="nonzero"/><path fill="#e1b49a" d="M 288.144531 95.890625 C 285.152344 96.414062 282.1875 96.46875 279.332031 96.085938 L 277.628906 93.664062 L 254.984375 61.242188 C 257.402344 50.074219 266.378906 40.945312 278.289062 38.882812 C 281.390625 38.332031 284.492188 38.332031 287.429688 38.746094 C 299.453125 40.535156 309.496094 49.828125 311.664062 62.453125 C 314.382812 78.179688 303.84375 93.167969 288.144531 95.890625 " fill-opacity="1" fill-rule="nonzero"/><path fill="#a67a64" d="M 288.144531 95.890625 C 285.152344 96.414062 282.1875 96.46875 279.332031 96.085938 L 277.628906 93.664062 C 287.15625 87.695312 298.296875 74.828125 290.914062 48.617188 C 289.84375 44.824219 288.664062 41.550781 287.429688 38.746094 C 299.453125 40.535156 309.496094 49.828125 311.664062 62.453125 C 314.382812 78.179688 303.84375 93.167969 288.144531 95.890625 " fill-opacity="1" fill-rule="nonzero"/><path fill="#e1b49a" d="M 283.230469 121.382812 C 283.230469 148.195312 255.480469 171.488281 238.738281 183.09375 C 231.246094 188.292969 221.363281 188.292969 213.871094 183.09375 C 207.390625 178.609375 199.269531 172.367188 191.773438 164.863281 C 179.835938 152.953125 169.40625 137.828125 169.40625 121.382812 C 169.40625 82.964844 194.875 51.808594 226.304688 51.808594 C 231.023438 51.808594 235.582031 52.496094 239.945312 53.84375 C 264.785156 61.296875 283.230469 88.714844 283.230469 121.382812 " fill-opacity="1" fill-rule="nonzero"/><path fill="#a67a64" d="M 283.230469 121.382812 C 283.230469 148.195312 255.480469 171.488281 238.738281 183.09375 C 231.246094 188.292969 221.363281 188.292969 213.871094 183.09375 C 207.390625 178.609375 199.269531 172.367188 191.773438 164.863281 C 220.292969 154.632812 253.449219 131.945312 243.707031 82.359375 C 241.539062 71.359375 240.355469 61.902344 239.945312 53.84375 C 264.785156 61.296875 283.230469 88.714844 283.230469 121.382812 " fill-opacity="1" fill-rule="nonzero"/><path fill="#000000" d="M 198.65625 136.621094 C 198.65625 139.1875 196.578125 141.269531 194.015625 141.269531 C 191.453125 141.269531 189.375 139.1875 189.375 136.621094 C 189.375 134.054688 191.453125 131.972656 194.015625 131.972656 C 196.578125 131.972656 198.65625 134.054688 198.65625 136.621094 " fill-opacity="1" fill-rule="nonzero"/><path fill="#000000" d="M 194.015625 133.347656 C 192.210938 133.347656 190.746094 134.816406 190.746094 136.621094 C 190.746094 138.425781 192.210938 139.894531 194.015625 139.894531 C 195.816406 139.894531 197.28125 138.425781 197.28125 136.621094 C 197.28125 134.816406 195.816406 133.347656 194.015625 133.347656 Z M 194.015625 142.644531 C 190.699219 142.644531 188 139.941406 188 136.621094 C 188 133.296875 190.699219 130.597656 194.015625 130.597656 C 197.328125 130.597656 200.027344 133.296875 200.027344 136.621094 C 200.027344 139.941406 197.328125 142.644531 194.015625 142.644531 " fill-opacity="1" fill-rule="nonzero"/><path fill="#000000" d="M 259.628906 136.621094 C 259.628906 139.1875 257.550781 141.269531 254.988281 141.269531 C 252.425781 141.269531 250.347656 139.1875 250.347656 136.621094 C 250.347656 134.054688 252.425781 131.972656 254.988281 131.972656 C 257.550781 131.972656 259.628906 134.054688 259.628906 136.621094 " fill-opacity="1" fill-rule="nonzero"/><path fill="#000000" d="M 254.988281 133.347656 C 253.183594 133.347656 251.71875 134.816406 251.71875 136.621094 C 251.71875 138.425781 253.183594 139.894531 254.988281 139.894531 C 256.789062 139.894531 258.257812 138.425781 258.257812 136.621094 C 258.257812 134.816406 256.789062 133.347656 254.988281 133.347656 Z M 254.988281 142.644531 C 251.671875 142.644531 248.972656 139.941406 248.972656 136.621094 C 248.972656 133.296875 251.671875 130.597656 254.988281 130.597656 C 258.304688 130.597656 261 133.296875 261 136.621094 C 261 139.941406 258.304688 142.644531 254.988281 142.644531 " fill-opacity="1" fill-rule="nonzero"/><path fill="#000000" d="M 240.753906 179.246094 C 240.753906 187.234375 234.289062 193.710938 226.316406 193.710938 C 218.339844 193.710938 211.875 187.234375 211.875 179.246094 C 211.875 171.253906 218.339844 164.777344 226.316406 164.777344 C 234.289062 164.777344 240.753906 171.253906 240.753906 179.246094 " fill-opacity="1" fill-rule="nonzero"/><g clip-path="url(#0a8c2b08fb)"><path fill="#000000" d="M 226.316406 166.152344 C 219.109375 166.152344 213.246094 172.027344 213.246094 179.246094 C 213.246094 186.464844 219.109375 192.335938 226.316406 192.335938 C 233.519531 192.335938 239.378906 186.464844 239.378906 179.246094 C 239.378906 172.027344 233.519531 166.152344 226.316406 166.152344 Z M 226.316406 195.085938 C 217.597656 195.085938 210.503906 187.980469 210.503906 179.246094 C 210.503906 170.507812 217.597656 163.402344 226.316406 163.402344 C 235.035156 163.402344 242.125 170.507812 242.125 179.246094 C 242.125 187.980469 235.035156 195.085938 226.316406 195.085938 " fill-opacity="1" fill-rule="nonzero"/></g><path fill="#ffe3e6" d="M 183.871094 72.296875 L 172.398438 91.710938 C 172.371094 91.738281 172.371094 91.738281 172.34375 91.738281 C 164.984375 93.03125 157.933594 88.605469 155.707031 81.675781 C 155.488281 81.015625 155.324219 80.328125 155.1875 79.613281 C 153.789062 71.527344 159.195312 63.828125 167.292969 62.425781 C 170.914062 61.792969 174.429688 62.535156 177.363281 64.292969 C 180.355469 66.054688 182.71875 68.859375 183.871094 72.296875 " fill-opacity="1" fill-rule="nonzero"/><path fill="#f7d0d6" d="M 183.871094 72.296875 L 172.398438 91.710938 C 172.371094 91.738281 172.371094 91.738281 172.34375 91.738281 C 164.984375 93.03125 157.933594 88.605469 155.707031 81.675781 C 163.421875 80.546875 173.054688 76.53125 177.363281 64.292969 C 180.355469 66.054688 182.71875 68.859375 183.871094 72.296875 " fill-opacity="1" fill-rule="nonzero"/><path fill="#ffe3e6" d="M 292.753906 75.925781 C 291.355469 84.039062 284.4375 89.675781 276.367188 88.273438 L 272.992188 82.855469 L 264.097656 68.613281 C 266.378906 61.792969 273.347656 57.5 280.648438 58.738281 C 280.953125 58.792969 281.226562 58.847656 281.527344 58.929688 C 289.132812 60.71875 294.097656 68.144531 292.753906 75.925781 " fill-opacity="1" fill-rule="nonzero"/><path fill="#f7d0d6" d="M 292.753906 75.925781 C 291.355469 84.039062 284.4375 89.675781 276.367188 88.273438 L 272.992188 82.855469 C 280.238281 81.207031 288.527344 76.695312 283.53125 64.292969 C 282.679688 62.203125 282.023438 60.417969 281.527344 58.929688 C 289.132812 60.71875 294.097656 68.144531 292.753906 75.925781 " fill-opacity="1" fill-rule="nonzero"/><path fill="#000000" d="M 177.832031 150.464844 C 176.914062 150.464844 176.023438 150.007812 175.503906 149.171875 C 169.640625 139.78125 166.667969 130.429688 166.667969 121.378906 C 166.667969 81.5 193.425781 49.054688 226.316406 49.054688 C 229.171875 49.054688 232.039062 49.300781 234.832031 49.785156 C 236.324219 50.046875 237.324219 51.46875 237.066406 52.964844 C 236.808594 54.460938 235.394531 55.460938 233.894531 55.203125 C 231.410156 54.773438 228.859375 54.554688 226.316406 54.554688 C 196.453125 54.554688 172.15625 84.53125 172.15625 121.378906 C 172.15625 129.382812 174.847656 137.753906 180.15625 146.253906 C 180.960938 147.542969 180.570312 149.238281 179.285156 150.042969 C 178.832031 150.328125 178.328125 150.464844 177.832031 150.464844 " fill-opacity="1" fill-rule="nonzero"/><path fill="#000000" d="M 226.316406 189.707031 C 221.410156 189.707031 216.503906 188.253906 212.320312 185.351562 C 202.675781 178.660156 194.289062 171.582031 187.390625 164.300781 C 186.347656 163.199219 186.394531 161.457031 187.492188 160.410156 C 188.589844 159.367188 190.328125 159.410156 191.371094 160.511719 C 199.640625 169.242188 209.027344 176.378906 215.445312 180.828125 C 222.046875 185.410156 230.582031 185.410156 237.1875 180.828125 C 245.90625 174.78125 258.246094 165.097656 267.507812 153.300781 C 268.445312 152.105469 270.175781 151.90625 271.359375 152.835938 C 272.550781 153.777344 272.757812 155.507812 271.820312 156.699219 C 262.136719 169.035156 249.34375 179.089844 240.3125 185.351562 C 236.125 188.253906 231.21875 189.707031 226.316406 189.707031 " fill-opacity="1" fill-rule="nonzero"/><path fill="#000000" d="M 275.078125 150.007812 C 274.589844 150.007812 274.09375 149.875 273.644531 149.597656 C 272.351562 148.804688 271.949219 147.109375 272.746094 145.816406 C 277.875 137.464844 280.472656 129.242188 280.472656 121.378906 C 280.472656 92.097656 264.605469 65.773438 241.878906 57.363281 C 240.457031 56.835938 239.730469 55.253906 240.257812 53.828125 C 240.78125 52.40625 242.363281 51.675781 243.78125 52.199219 C 269.011719 61.539062 285.964844 89.339844 285.964844 121.378906 C 285.964844 130.277344 283.089844 139.46875 277.417969 148.699219 C 276.902344 149.542969 276.003906 150.007812 275.078125 150.007812 " fill-opacity="1" fill-rule="nonzero"/><path fill="#000000" d="M 169.8125 94.703125 C 167.847656 94.703125 165.894531 94.375 164.039062 93.726562 C 162.605469 93.226562 161.851562 91.65625 162.347656 90.222656 C 162.847656 88.792969 164.410156 88.03125 165.84375 88.53125 C 167.742188 89.195312 169.792969 89.367188 171.789062 89.039062 C 172.613281 88.851562 173.511719 89.054688 174.195312 89.652344 C 175.335938 90.652344 175.453125 92.390625 174.453125 93.53125 C 174.035156 94.015625 173.441406 94.332031 172.8125 94.441406 C 171.820312 94.613281 170.816406 94.703125 169.8125 94.703125 " fill-opacity="1" fill-rule="nonzero"/><path fill="#000000" d="M 158.574219 89.546875 C 157.804688 89.546875 157.039062 89.222656 156.496094 88.59375 C 154.414062 86.183594 153.027344 83.242188 152.480469 80.082031 C 151.679688 75.445312 152.726562 70.777344 155.433594 66.929688 C 158.140625 63.082031 162.179688 60.523438 166.808594 59.722656 C 175.414062 58.238281 183.671875 63.152344 186.457031 71.417969 C 186.941406 72.855469 186.171875 74.417969 184.738281 74.902344 C 183.292969 75.390625 181.742188 74.617188 181.257812 73.179688 C 179.339844 67.496094 173.648438 64.109375 167.746094 65.140625 C 164.5625 65.695312 161.78125 67.453125 159.921875 70.097656 C 158.058594 72.746094 157.339844 75.957031 157.890625 79.144531 C 158.265625 81.316406 159.21875 83.339844 160.648438 84.996094 C 161.640625 86.144531 161.515625 87.878906 160.367188 88.875 C 159.851562 89.324219 159.210938 89.546875 158.574219 89.546875 " fill-opacity="1" fill-rule="nonzero"/><path fill="#000000" d="M 278.863281 91.230469 C 277.886719 91.230469 276.894531 91.144531 275.894531 90.972656 C 274.402344 90.710938 273.402344 89.285156 273.660156 87.792969 C 273.917969 86.296875 275.335938 85.296875 276.835938 85.550781 C 280.71875 86.21875 284.433594 84.90625 287.035156 81.933594 C 288.03125 80.789062 289.769531 80.679688 290.90625 81.679688 C 292.046875 82.679688 292.160156 84.417969 291.164062 85.558594 C 287.9375 89.242188 283.566406 91.230469 278.863281 91.230469 " fill-opacity="1" fill-rule="nonzero"/><path fill="#000000" d="M 292.765625 78.675781 C 292.609375 78.675781 292.453125 78.660156 292.292969 78.632812 C 290.800781 78.371094 289.796875 76.949219 290.058594 75.449219 C 290.613281 72.269531 289.890625 69.0625 288.023438 66.421875 C 286.160156 63.777344 283.375 62.015625 280.183594 61.460938 C 274.277344 60.445312 268.597656 63.8125 266.691406 69.484375 C 266.210938 70.921875 264.664062 71.695312 263.214844 71.214844 C 261.78125 70.730469 261.007812 69.171875 261.488281 67.734375 C 264.261719 59.472656 272.527344 54.558594 281.121094 56.039062 C 285.757812 56.847656 289.800781 59.40625 292.507812 63.246094 C 295.21875 67.09375 296.269531 71.761719 295.46875 76.394531 C 295.234375 77.730469 294.074219 78.675781 292.765625 78.675781 " fill-opacity="1" fill-rule="nonzero"/><g clip-path="url(#082d40b048)"><path fill="#000000" d="M 166.628906 105.09375 C 153.488281 105.09375 141.5 96.898438 136.925781 84.148438 C 136.304688 82.421875 135.832031 80.625 135.515625 78.800781 C 135.257812 77.304688 136.257812 75.882812 137.753906 75.621094 C 139.261719 75.367188 140.664062 76.367188 140.925781 77.863281 C 141.183594 79.371094 141.578125 80.859375 142.089844 82.285156 C 146.375 94.226562 158.539062 101.34375 171.035156 99.21875 C 171.941406 99 172.933594 99.238281 173.636719 99.945312 C 174.710938 101.019531 174.710938 102.761719 173.636719 103.835938 C 173.234375 104.238281 172.664062 104.519531 172.082031 104.621094 C 170.253906 104.9375 168.429688 105.09375 166.628906 105.09375 " fill-opacity="1" fill-rule="nonzero"/></g><g clip-path="url(#4f22702bd6)"><path fill="#000000" d="M 138.09375 71.980469 C 137.960938 71.980469 137.828125 71.972656 137.695312 71.953125 C 136.195312 71.734375 135.15625 70.335938 135.371094 68.835938 C 137.015625 57.5 144.667969 47.914062 155.335938 43.824219 C 157.246094 43.089844 159.25 42.539062 161.285156 42.183594 C 162.789062 41.929688 164.203125 42.929688 164.457031 44.429688 C 164.71875 45.921875 163.714844 47.347656 162.222656 47.605469 C 160.535156 47.898438 158.878906 48.351562 157.300781 48.957031 C 148.484375 52.34375 142.164062 60.261719 140.804688 69.625 C 140.605469 70.996094 139.433594 71.980469 138.09375 71.980469 " fill-opacity="1" fill-rule="nonzero"/></g><path fill="#000000" d="M 194.015625 66.84375 C 192.867188 66.84375 191.800781 66.121094 191.414062 64.976562 C 188.703125 56.941406 182.222656 50.703125 174.070312 48.285156 C 172.617188 47.855469 171.789062 46.328125 172.21875 44.867188 C 172.648438 43.414062 174.179688 42.578125 175.628906 43.011719 C 185.488281 45.9375 193.335938 53.488281 196.613281 63.214844 C 197.101562 64.652344 196.328125 66.210938 194.894531 66.699219 C 194.601562 66.796875 194.304688 66.84375 194.015625 66.84375 " fill-opacity="1" fill-rule="nonzero"/><g clip-path="url(#cc2bd48fec)"><path fill="#000000" d="M 254.992188 63.992188 C 254.796875 63.992188 254.601562 63.972656 254.40625 63.929688 C 252.925781 63.609375 251.984375 62.144531 252.304688 60.660156 C 255.042969 47.996094 265.0625 38.386719 277.828125 36.167969 C 280.085938 35.78125 282.375 35.636719 284.632812 35.730469 C 286.144531 35.792969 287.320312 37.078125 287.253906 38.59375 C 287.1875 40.113281 285.964844 41.351562 284.394531 41.222656 C 282.53125 41.144531 280.632812 41.265625 278.761719 41.589844 C 268.210938 43.417969 259.933594 51.363281 257.671875 61.824219 C 257.390625 63.109375 256.253906 63.992188 254.992188 63.992188 " fill-opacity="1" fill-rule="nonzero"/></g><g clip-path="url(#f1cb97cfca)"><path fill="#000000" d="M 308.589844 83.941406 C 308.148438 83.941406 307.699219 83.835938 307.28125 83.609375 C 305.949219 82.882812 305.457031 81.214844 306.179688 79.878906 C 309.019531 74.652344 309.980469 68.78125 308.964844 62.910156 C 307.550781 54.730469 302.277344 47.640625 294.855469 43.9375 C 293.496094 43.257812 292.949219 41.609375 293.625 40.246094 C 294.296875 38.890625 295.941406 38.332031 297.304688 39.011719 C 306.28125 43.492188 312.664062 52.074219 314.375 61.96875 C 315.601562 69.078125 314.4375 76.179688 311.003906 82.507812 C 310.503906 83.425781 309.5625 83.941406 308.589844 83.941406 " fill-opacity="1" fill-rule="nonzero"/></g><path fill="#000000" d="M 283.125 99.082031 C 281.738281 99.082031 280.351562 98.988281 278.972656 98.808594 C 277.46875 98.617188 276.410156 97.234375 276.605469 95.730469 C 276.800781 94.222656 278.171875 93.144531 279.679688 93.359375 C 282.339844 93.703125 285.03125 93.644531 287.691406 93.1875 C 293.375 92.199219 298.449219 89.4375 302.367188 85.199219 C 303.398438 84.082031 305.132812 84.019531 306.25 85.050781 C 307.359375 86.082031 307.425781 87.824219 306.398438 88.9375 C 301.652344 94.066406 295.507812 97.414062 288.625 98.609375 C 286.800781 98.921875 284.960938 99.082031 283.125 99.082031 " fill-opacity="1" fill-rule="nonzero"/><path fill="#000000" d="M 102.292969 150.058594 C 101.6875 150.058594 101.078125 149.859375 100.570312 149.449219 C 99.390625 148.5 99.207031 146.765625 100.15625 145.585938 L 113.4375 129.070312 C 114.390625 127.882812 116.117188 127.695312 117.300781 128.652344 C 118.480469 129.601562 118.664062 131.335938 117.714844 132.515625 L 104.433594 149.035156 C 103.890625 149.710938 103.09375 150.058594 102.292969 150.058594 " fill-opacity="1" fill-rule="nonzero"/><path fill="#000000" d="M 124.859375 160.90625 C 124.457031 160.90625 124.054688 160.824219 123.671875 160.636719 L 101.105469 149.789062 C 99.738281 149.132812 99.164062 147.488281 99.820312 146.117188 C 100.476562 144.75 102.117188 144.167969 103.480469 144.832031 L 126.046875 155.679688 C 127.414062 156.335938 127.988281 157.976562 127.332031 159.347656 C 126.863281 160.332031 125.878906 160.90625 124.859375 160.90625 " fill-opacity="1" fill-rule="nonzero"/><path fill="#000000" d="M 81.8125 150.058594 C 81.011719 150.058594 80.214844 149.710938 79.671875 149.035156 L 66.390625 132.515625 C 65.4375 131.335938 65.625 129.601562 66.804688 128.652344 C 67.984375 127.695312 69.714844 127.882812 70.664062 129.070312 L 83.949219 145.585938 C 84.898438 146.765625 84.710938 148.5 83.53125 149.449219 C 83.023438 149.859375 82.417969 150.058594 81.8125 150.058594 " fill-opacity="1" fill-rule="nonzero"/><path fill="#000000" d="M 59.246094 160.90625 C 58.222656 160.90625 57.242188 160.332031 56.769531 159.347656 C 56.113281 157.976562 56.691406 156.335938 58.058594 155.679688 L 80.621094 144.832031 C 81.988281 144.167969 83.628906 144.75 84.285156 146.117188 C 84.941406 147.488281 84.363281 149.132812 82.996094 149.789062 L 60.433594 160.636719 C 60.046875 160.824219 59.644531 160.90625 59.246094 160.90625 " fill-opacity="1" fill-rule="nonzero"/><path fill="#ededed" d="M 59.253906 30.117188 L 36.914062 67.902344 C 36.914062 67.929688 36.859375 67.929688 36.832031 67.929688 C 21.324219 70.625 6.527344 60.339844 3.566406 44.910156 C 3.539062 44.71875 3.480469 44.527344 3.453125 44.332031 C 0.738281 28.605469 11.277344 13.644531 26.976562 10.921875 C 35.652344 9.410156 44.105469 11.9375 50.390625 17.191406 C 54.398438 20.519531 57.5 24.945312 59.253906 30.117188 " fill-opacity="1" fill-rule="nonzero"/><path fill="#d8d6d6" d="M 59.253906 30.117188 L 36.914062 67.902344 C 36.914062 67.929688 36.859375 67.929688 36.832031 67.929688 C 21.324219 70.625 6.527344 60.339844 3.566406 44.910156 C 15.421875 51.484375 29.585938 52.472656 41.03125 32.976562 C 44.707031 26.707031 47.808594 21.507812 50.390625 17.191406 C 54.398438 20.519531 57.5 24.945312 59.253906 30.117188 " fill-opacity="1" fill-rule="nonzero"/><path fill="#ededed" d="M 153.375 61.90625 C 150.382812 62.429688 147.417969 62.484375 144.5625 62.097656 L 142.859375 59.679688 L 120.214844 27.257812 C 122.632812 16.089844 131.609375 6.960938 143.519531 4.898438 C 146.621094 4.347656 149.722656 4.347656 152.660156 4.761719 C 164.683594 6.550781 174.726562 15.84375 176.894531 28.464844 C 179.613281 44.195312 169.074219 59.183594 153.375 61.90625 " fill-opacity="1" fill-rule="nonzero"/><path fill="#d8d6d6" d="M 153.375 61.90625 C 150.382812 62.429688 147.417969 62.484375 144.5625 62.097656 L 142.859375 59.679688 C 152.386719 53.710938 163.527344 40.839844 156.144531 14.632812 C 155.074219 10.839844 153.894531 7.566406 152.660156 4.761719 C 164.683594 6.550781 174.726562 15.84375 176.894531 28.464844 C 179.613281 44.195312 169.074219 59.183594 153.375 61.90625 " fill-opacity="1" fill-rule="nonzero"/><path fill="#ededed" d="M 148.460938 87.398438 C 148.460938 114.210938 120.710938 137.503906 103.96875 149.109375 C 96.476562 154.304688 86.59375 154.304688 79.101562 149.109375 C 72.621094 144.625 64.5 138.382812 57.003906 130.875 C 45.066406 118.96875 34.636719 103.84375 34.636719 87.398438 C 34.636719 48.980469 60.105469 17.824219 91.535156 17.824219 C 96.253906 17.824219 100.8125 18.511719 105.175781 19.859375 C 130.015625 27.3125 148.460938 54.730469 148.460938 87.398438 " fill-opacity="1" fill-rule="nonzero"/><path fill="#d8d6d6" d="M 148.460938 87.398438 C 148.460938 114.210938 120.710938 137.503906 103.96875 149.109375 C 96.476562 154.304688 86.59375 154.304688 79.101562 149.109375 C 72.621094 144.625 64.5 138.382812 57.003906 130.875 C 85.523438 120.648438 118.679688 97.957031 108.9375 48.375 C 106.765625 37.375 105.585938 27.917969 105.175781 19.859375 C 130.015625 27.3125 148.460938 54.730469 148.460938 87.398438 " fill-opacity="1" fill-rule="nonzero"/><path fill="#000000" d="M 63.886719 102.636719 C 63.886719 105.203125 61.808594 107.285156 59.246094 107.285156 C 56.683594 107.285156 54.605469 105.203125 54.605469 102.636719 C 54.605469 100.066406 56.683594 97.984375 59.246094 97.984375 C 61.808594 97.984375 63.886719 100.066406 63.886719 102.636719 " fill-opacity="1" fill-rule="nonzero"/><path fill="#000000" d="M 59.246094 99.359375 C 57.441406 99.359375 55.976562 100.828125 55.976562 102.632812 C 55.976562 104.441406 57.441406 105.910156 59.246094 105.910156 C 61.046875 105.910156 62.511719 104.441406 62.511719 102.632812 C 62.511719 100.828125 61.046875 99.359375 59.246094 99.359375 Z M 59.246094 108.660156 C 55.929688 108.660156 53.230469 105.957031 53.230469 102.632812 C 53.230469 99.3125 55.929688 96.609375 59.246094 96.609375 C 62.558594 96.609375 65.257812 99.3125 65.257812 102.632812 C 65.257812 105.957031 62.558594 108.660156 59.246094 108.660156 " fill-opacity="1" fill-rule="nonzero"/><path fill="#000000" d="M 124.859375 102.636719 C 124.859375 105.203125 122.78125 107.285156 120.21875 107.285156 C 117.65625 107.285156 115.578125 105.203125 115.578125 102.636719 C 115.578125 100.066406 117.65625 97.984375 120.21875 97.984375 C 122.78125 97.984375 124.859375 100.066406 124.859375 102.636719 " fill-opacity="1" fill-rule="nonzero"/><path fill="#000000" d="M 120.21875 99.359375 C 118.414062 99.359375 116.949219 100.828125 116.949219 102.632812 C 116.949219 104.441406 118.414062 105.910156 120.21875 105.910156 C 122.019531 105.910156 123.488281 104.441406 123.488281 102.632812 C 123.488281 100.828125 122.019531 99.359375 120.21875 99.359375 Z M 120.21875 108.660156 C 116.902344 108.660156 114.203125 105.957031 114.203125 102.632812 C 114.203125 99.3125 116.902344 96.609375 120.21875 96.609375 C 123.535156 96.609375 126.230469 99.3125 126.230469 102.632812 C 126.230469 105.957031 123.535156 108.660156 120.21875 108.660156 " fill-opacity="1" fill-rule="nonzero"/><path fill="#000000" d="M 105.984375 145.261719 C 105.984375 153.25 99.519531 159.726562 91.546875 159.726562 C 83.570312 159.726562 77.105469 153.25 77.105469 145.261719 C 77.105469 137.269531 83.570312 130.792969 91.546875 130.792969 C 99.519531 130.792969 105.984375 137.269531 105.984375 145.261719 " fill-opacity="1" fill-rule="nonzero"/><g clip-path="url(#96c8682de0)"><path fill="#000000" d="M 91.546875 132.167969 C 84.339844 132.167969 78.476562 138.039062 78.476562 145.261719 C 78.476562 152.476562 84.339844 158.351562 91.546875 158.351562 C 98.75 158.351562 104.609375 152.476562 104.609375 145.261719 C 104.609375 138.039062 98.75 132.167969 91.546875 132.167969 Z M 91.546875 161.101562 C 82.828125 161.101562 75.734375 153.996094 75.734375 145.261719 C 75.734375 136.523438 82.828125 129.417969 91.546875 129.417969 C 100.261719 129.417969 107.355469 136.523438 107.355469 145.261719 C 107.355469 153.996094 100.261719 161.101562 91.546875 161.101562 " fill-opacity="1" fill-rule="nonzero"/></g><path fill="#ffe3e6" d="M 49.101562 38.3125 L 37.628906 57.726562 C 37.601562 57.753906 37.601562 57.753906 37.574219 57.753906 C 30.214844 59.046875 23.164062 54.617188 20.9375 47.6875 C 20.71875 47.027344 20.554688 46.339844 20.417969 45.625 C 19.019531 37.542969 24.425781 29.839844 32.523438 28.4375 C 36.144531 27.804688 39.660156 28.546875 42.59375 30.308594 C 45.585938 32.070312 47.949219 34.875 49.101562 38.3125 " fill-opacity="1" fill-rule="nonzero"/><path fill="#f7d0d6" d="M 49.101562 38.3125 L 37.628906 57.726562 C 37.601562 57.753906 37.601562 57.753906 37.574219 57.753906 C 30.214844 59.046875 23.164062 54.617188 20.9375 47.6875 C 28.652344 46.5625 38.285156 42.546875 42.59375 30.308594 C 45.585938 32.070312 47.949219 34.875 49.101562 38.3125 " fill-opacity="1" fill-rule="nonzero"/><path fill="#ffe3e6" d="M 157.984375 41.941406 C 156.585938 50.054688 149.667969 55.691406 141.597656 54.289062 L 138.222656 48.871094 L 129.328125 34.625 C 131.609375 27.804688 138.578125 23.515625 145.878906 24.753906 C 146.183594 24.808594 146.457031 24.863281 146.757812 24.945312 C 154.363281 26.734375 159.328125 34.160156 157.984375 41.941406 " fill-opacity="1" fill-rule="nonzero"/><path fill="#f7d0d6" d="M 157.984375 41.941406 C 156.585938 50.054688 149.667969 55.691406 141.597656 54.289062 L 138.222656 48.871094 C 145.46875 47.222656 153.757812 42.710938 148.761719 30.308594 C 147.910156 28.21875 147.253906 26.429688 146.757812 24.945312 C 154.363281 26.734375 159.328125 34.160156 157.984375 41.941406 " fill-opacity="1" fill-rule="nonzero"/><path fill="#000000" d="M 43.0625 116.480469 C 42.144531 116.480469 41.253906 116.023438 40.734375 115.1875 C 34.871094 105.796875 31.898438 96.445312 31.898438 87.394531 C 31.898438 47.515625 58.65625 15.070312 91.546875 15.070312 C 94.402344 15.070312 97.269531 15.316406 100.0625 15.800781 C 101.554688 16.0625 102.554688 17.484375 102.296875 18.980469 C 102.039062 20.476562 100.625 21.476562 99.121094 21.21875 C 96.640625 20.789062 94.089844 20.570312 91.546875 20.570312 C 61.679688 20.570312 37.386719 50.546875 37.386719 87.394531 C 37.386719 95.398438 40.078125 103.769531 45.386719 112.269531 C 46.191406 113.558594 45.800781 115.253906 44.515625 116.058594 C 44.0625 116.34375 43.558594 116.480469 43.0625 116.480469 " fill-opacity="1" fill-rule="nonzero"/><path fill="#000000" d="M 91.546875 155.71875 C 86.640625 155.71875 81.734375 154.269531 77.550781 151.367188 C 67.90625 144.675781 59.519531 137.59375 52.621094 130.316406 C 51.578125 129.214844 51.625 127.472656 52.722656 126.425781 C 53.820312 125.382812 55.558594 125.425781 56.601562 126.527344 C 64.871094 135.257812 74.257812 142.394531 80.675781 146.84375 C 87.273438 151.425781 95.8125 151.425781 102.417969 146.84375 C 111.136719 140.796875 123.476562 131.113281 132.738281 119.316406 C 133.675781 118.121094 135.40625 117.921875 136.589844 118.851562 C 137.78125 119.792969 137.988281 121.523438 137.050781 122.714844 C 127.367188 135.050781 114.574219 145.105469 105.542969 151.367188 C 101.355469 154.269531 96.449219 155.71875 91.546875 155.71875 " fill-opacity="1" fill-rule="nonzero"/><path fill="#000000" d="M 140.308594 116.023438 C 139.820312 116.023438 139.320312 115.890625 138.875 115.613281 C 137.582031 114.820312 137.179688 113.125 137.976562 111.832031 C 143.105469 103.480469 145.703125 95.257812 145.703125 87.394531 C 145.703125 58.113281 129.835938 31.789062 107.109375 23.375 C 105.6875 22.851562 104.960938 21.269531 105.484375 19.84375 C 106.011719 18.421875 107.59375 17.691406 109.011719 18.214844 C 134.242188 27.554688 151.195312 55.355469 151.195312 87.394531 C 151.195312 96.292969 148.320312 105.484375 142.648438 114.714844 C 142.132812 115.558594 141.234375 116.023438 140.308594 116.023438 " fill-opacity="1" fill-rule="nonzero"/><path fill="#000000" d="M 35.042969 60.714844 C 33.078125 60.714844 31.125 60.390625 29.269531 59.742188 C 27.835938 59.242188 27.082031 57.671875 27.578125 56.238281 C 28.078125 54.808594 29.640625 54.046875 31.074219 54.546875 C 32.972656 55.207031 35.023438 55.382812 37.015625 55.054688 C 37.84375 54.867188 38.742188 55.070312 39.425781 55.667969 C 40.566406 56.667969 40.679688 58.40625 39.683594 59.546875 C 39.265625 60.027344 38.671875 60.347656 38.042969 60.457031 C 37.050781 60.628906 36.046875 60.714844 35.042969 60.714844 " fill-opacity="1" fill-rule="nonzero"/><path fill="#000000" d="M 23.804688 55.558594 C 23.035156 55.558594 22.269531 55.238281 21.726562 54.609375 C 19.644531 52.199219 18.257812 49.257812 17.710938 46.097656 C 16.910156 41.460938 17.957031 36.789062 20.664062 32.945312 C 23.371094 29.097656 27.410156 26.539062 32.039062 25.738281 C 40.644531 24.253906 48.902344 29.167969 51.6875 37.433594 C 52.171875 38.871094 51.402344 40.433594 49.96875 40.917969 C 48.523438 41.402344 46.972656 40.628906 46.488281 39.195312 C 44.570312 33.511719 38.878906 30.121094 32.976562 31.15625 C 29.792969 31.710938 27.011719 33.46875 25.152344 36.113281 C 23.289062 38.757812 22.570312 41.972656 23.121094 45.160156 C 23.496094 47.332031 24.449219 49.355469 25.878906 51.011719 C 26.871094 52.160156 26.746094 53.894531 25.597656 54.886719 C 25.082031 55.339844 24.441406 55.558594 23.804688 55.558594 " fill-opacity="1" fill-rule="nonzero"/><path fill="#000000" d="M 144.09375 57.246094 C 143.117188 57.246094 142.125 57.160156 141.125 56.984375 C 139.632812 56.726562 138.632812 55.300781 138.890625 53.804688 C 139.148438 52.308594 140.566406 51.3125 142.066406 51.566406 C 145.949219 52.234375 149.664062 50.921875 152.265625 47.949219 C 153.261719 46.804688 154.996094 46.695312 156.136719 47.695312 C 157.277344 48.695312 157.390625 50.433594 156.394531 51.574219 C 153.167969 55.257812 148.796875 57.246094 144.09375 57.246094 " fill-opacity="1" fill-rule="nonzero"/><path fill="#000000" d="M 157.996094 44.6875 C 157.839844 44.6875 157.683594 44.675781 157.523438 44.648438 C 156.03125 44.386719 155.027344 42.964844 155.289062 41.464844 C 155.84375 38.285156 155.121094 35.078125 153.253906 32.4375 C 151.390625 29.792969 148.605469 28.03125 145.414062 27.472656 C 139.507812 26.460938 133.828125 29.828125 131.921875 35.5 C 131.441406 36.9375 129.894531 37.710938 128.445312 37.230469 C 127.011719 36.746094 126.238281 35.1875 126.71875 33.746094 C 129.492188 25.488281 137.757812 20.574219 146.351562 22.054688 C 150.988281 22.859375 155.03125 25.421875 157.738281 29.261719 C 160.449219 33.109375 161.5 37.777344 160.699219 42.410156 C 160.464844 43.746094 159.304688 44.6875 157.996094 44.6875 " fill-opacity="1" fill-rule="nonzero"/><g clip-path="url(#01b55f7640)"><path fill="#000000" d="M 31.859375 71.109375 C 18.71875 71.109375 6.730469 62.914062 2.15625 50.160156 C 1.535156 48.4375 1.0625 46.636719 0.746094 44.816406 C 0.488281 43.320312 1.488281 41.894531 2.984375 41.636719 C 4.492188 41.382812 5.894531 42.382812 6.15625 43.878906 C 6.414062 45.386719 6.808594 46.875 7.320312 48.300781 C 11.605469 60.242188 23.769531 67.359375 36.265625 65.234375 C 37.171875 65.011719 38.164062 65.253906 38.867188 65.960938 C 39.941406 67.035156 39.941406 68.773438 38.867188 69.851562 C 38.464844 70.253906 37.894531 70.535156 37.3125 70.636719 C 35.484375 70.953125 33.660156 71.109375 31.859375 71.109375 " fill-opacity="1" fill-rule="nonzero"/></g><g clip-path="url(#4e2ee4789b)"><path fill="#000000" d="M 3.324219 37.996094 C 3.191406 37.996094 3.058594 37.988281 2.925781 37.96875 C 1.425781 37.75 0.386719 36.351562 0.601562 34.851562 C 2.246094 23.515625 9.898438 13.929688 20.566406 9.839844 C 22.476562 9.105469 24.476562 8.550781 26.515625 8.199219 C 28.019531 7.945312 29.433594 8.945312 29.6875 10.441406 C 29.949219 11.9375 28.945312 13.363281 27.453125 13.621094 C 25.765625 13.914062 24.109375 14.367188 22.53125 14.972656 C 13.714844 18.355469 7.394531 26.277344 6.035156 35.640625 C 5.835938 37.011719 4.664062 37.996094 3.324219 37.996094 " fill-opacity="1" fill-rule="nonzero"/></g><path fill="#000000" d="M 59.246094 32.859375 C 58.097656 32.859375 57.03125 32.136719 56.644531 30.988281 C 53.933594 22.957031 47.453125 16.71875 39.300781 14.300781 C 37.847656 13.871094 37.019531 12.339844 37.449219 10.882812 C 37.878906 9.425781 39.410156 8.59375 40.859375 9.027344 C 50.71875 11.953125 58.566406 19.503906 61.84375 29.226562 C 62.332031 30.667969 61.558594 32.226562 60.125 32.714844 C 59.832031 32.8125 59.535156 32.859375 59.246094 32.859375 " fill-opacity="1" fill-rule="nonzero"/><g clip-path="url(#a8425d8d1e)"><path fill="#000000" d="M 120.222656 30.007812 C 120.027344 30.007812 119.832031 29.988281 119.636719 29.945312 C 118.15625 29.621094 117.214844 28.160156 117.535156 26.675781 C 120.273438 14.011719 130.292969 4.402344 143.058594 2.183594 C 145.316406 1.796875 147.605469 1.652344 149.863281 1.746094 C 151.375 1.808594 152.550781 3.09375 152.484375 4.609375 C 152.417969 6.128906 151.195312 7.367188 149.625 7.238281 C 147.761719 7.160156 145.863281 7.28125 143.992188 7.605469 C 133.441406 9.433594 125.164062 17.375 122.902344 27.839844 C 122.621094 29.125 121.484375 30.007812 120.222656 30.007812 " fill-opacity="1" fill-rule="nonzero"/></g><g clip-path="url(#63538e5a2d)"><path fill="#000000" d="M 173.820312 49.957031 C 173.378906 49.957031 172.929688 49.851562 172.511719 49.625 C 171.179688 48.898438 170.6875 47.230469 171.410156 45.894531 C 174.25 40.664062 175.210938 34.796875 174.195312 28.925781 C 172.78125 20.746094 167.507812 13.65625 160.085938 9.953125 C 158.726562 9.273438 158.179688 7.621094 158.855469 6.261719 C 159.527344 4.90625 161.171875 4.347656 162.535156 5.027344 C 171.511719 9.507812 177.894531 18.089844 179.605469 27.984375 C 180.832031 35.09375 179.667969 42.195312 176.234375 48.519531 C 175.734375 49.441406 174.792969 49.957031 173.820312 49.957031 " fill-opacity="1" fill-rule="nonzero"/></g><path fill="#000000" d="M 148.355469 65.097656 C 146.96875 65.097656 145.582031 65.003906 144.203125 64.824219 C 142.699219 64.632812 141.640625 63.25 141.835938 61.746094 C 142.03125 60.238281 143.402344 59.160156 144.910156 59.375 C 147.570312 59.71875 150.261719 59.660156 152.921875 59.203125 C 158.605469 58.214844 163.679688 55.453125 167.597656 51.214844 C 168.628906 50.097656 170.363281 50.03125 171.480469 51.066406 C 172.589844 52.097656 172.65625 53.839844 171.628906 54.953125 C 166.882812 60.082031 160.738281 63.429688 153.855469 64.625 C 152.03125 64.9375 150.191406 65.097656 148.355469 65.097656 " fill-opacity="1" fill-rule="nonzero"/><g fill="#000000" fill-opacity="1"><g transform="translate(3.555627, 241.937646)"><g><path d="M 19.082031 -12.671875 C 22.726562 -13.746094 25.289062 -17.132812 25.289062 -21.339844 C 25.289062 -26.570312 21.390625 -30.777344 16.109375 -30.777344 L 3.027344 -30.777344 L 3.027344 0 L 9.796875 0 L 9.796875 -11.902344 L 12.515625 -11.902344 L 20.109375 0 L 27.699219 0 Z M 15.082031 -17.492188 L 9.796875 -17.492188 L 9.796875 -24.777344 L 15.082031 -24.777344 C 17.234375 -24.777344 18.828125 -23.238281 18.828125 -21.132812 C 18.828125 -18.980469 17.234375 -17.492188 15.082031 -17.492188 Z M 15.082031 -17.492188 "/></g></g></g><g fill="#000000" fill-opacity="1"><g transform="translate(30.998873, 241.937646)"><g><path d="M 17.699219 0.410156 C 26.46875 0.410156 33.496094 -6.667969 33.496094 -15.390625 C 33.496094 -24.109375 26.46875 -31.1875 17.699219 -31.1875 C 8.976562 -31.1875 1.898438 -24.109375 1.898438 -15.390625 C 1.898438 -6.667969 8.976562 0.410156 17.699219 0.410156 Z M 17.699219 -6.207031 C 12.515625 -6.207031 8.566406 -10.207031 8.566406 -15.390625 C 8.566406 -20.570312 12.515625 -24.570312 17.699219 -24.570312 C 22.929688 -24.570312 26.878906 -20.570312 26.878906 -15.390625 C 26.878906 -10.207031 22.929688 -6.207031 17.699219 -6.207031 Z M 17.699219 -6.207031 "/></g></g></g><g fill="#000000" fill-opacity="1"><g transform="translate(66.444263, 241.937646)"><g><path d="M 24.777344 -30.777344 L 2.460938 -30.777344 L 2.460938 -24.777344 L 14.261719 -24.777344 L 1.179688 0 L 24.777344 0 L 24.777344 -6 L 11.796875 -6 Z M 24.777344 -30.777344 "/></g></g></g><g fill="#000000" fill-opacity="1"><g transform="translate(92.707708, 241.937646)"><g><path d="M 22.007812 -30.777344 L -0.257812 -30.777344 L -0.257812 -24.777344 L 7.539062 -24.777344 L 7.539062 0 L 14.261719 0 L 14.261719 -24.777344 L 22.007812 -24.777344 Z M 22.007812 -30.777344 "/></g></g></g><g fill="#000000" fill-opacity="1"><g transform="translate(114.457129, 241.937646)"><g><path d="M 17.699219 0.410156 C 26.46875 0.410156 33.496094 -6.667969 33.496094 -15.390625 C 33.496094 -24.109375 26.46875 -31.1875 17.699219 -31.1875 C 8.976562 -31.1875 1.898438 -24.109375 1.898438 -15.390625 C 1.898438 -6.667969 8.976562 0.410156 17.699219 0.410156 Z M 17.699219 -6.207031 C 12.515625 -6.207031 8.566406 -10.207031 8.566406 -15.390625 C 8.566406 -20.570312 12.515625 -24.570312 17.699219 -24.570312 C 22.929688 -24.570312 26.878906 -20.570312 26.878906 -15.390625 C 26.878906 -10.207031 22.929688 -6.207031 17.699219 -6.207031 Z M 17.699219 -6.207031 "/></g></g></g><g fill="#000000" fill-opacity="1"><g transform="translate(149.90252, 241.937646)"><g><path d="M 29.855469 -30.777344 L 20.058594 -9.488281 L 10.363281 -30.777344 L 3.027344 -30.777344 L 3.027344 0 L 9.796875 0 L 9.796875 -18.363281 L 18.109375 0 L 22.007812 0 L 30.367188 -18.3125 L 30.367188 0 L 37.140625 0 L 37.140625 -30.777344 Z M 29.855469 -30.777344 "/></g></g></g><g fill="#000000" fill-opacity="1"><g transform="translate(190.067117, 241.937646)"><g><path d="M 3.28125 0 L 10.054688 0 L 10.054688 -30.777344 L 3.28125 -30.777344 Z M 3.28125 0 "/></g></g></g><g fill="#000000" fill-opacity="1"><g transform="translate(203.352728, 241.937646)"><g><path d="M 9.796875 -6 L 9.796875 -30.777344 L 3.027344 -30.777344 L 3.027344 0 L 20.007812 0 L 20.007812 -6 Z M 9.796875 -6 "/></g></g></g><g fill="#000000" fill-opacity="1"><g transform="translate(223.460681, 241.937646)"><g><path d="M 21.75 -41.039062 L 15.542969 -41.039062 L 11.027344 -33.394531 L 15.339844 -33.394531 Z M 27.648438 -30.777344 L 20.109375 -30.777344 L 13.542969 -20.363281 L 6.976562 -30.777344 L -0.667969 -30.777344 L 10.15625 -14.464844 L 10.15625 0 L 16.929688 0 L 16.929688 -14.515625 Z M 27.648438 -30.777344 "/></g></g></g><g fill="#000000" fill-opacity="1"><g transform="translate(250.493557, 241.937646)"><g/></g></g><g fill="#000000" fill-opacity="1"><g transform="translate(262.804539, 241.937646)"><g><path d="M 22.261719 0 L 31.292969 0 L 16.464844 -17.082031 L 29.753906 -30.777344 L 21.03125 -30.777344 L 10.976562 -19.902344 L 9.796875 -19.902344 L 9.796875 -30.777344 L 3.027344 -30.777344 L 3.027344 0 L 9.796875 0 L 9.796875 -14.054688 L 10.773438 -14.054688 Z M 22.261719 0 "/></g></g></g><g fill="#000000" fill-opacity="1"><g transform="translate(293.017759, 241.937646)"><g><path d="M 17.699219 0.410156 C 26.46875 0.410156 33.496094 -6.667969 33.496094 -15.390625 C 33.496094 -24.109375 26.46875 -31.1875 17.699219 -31.1875 C 8.976562 -31.1875 1.898438 -24.109375 1.898438 -15.390625 C 1.898438 -6.667969 8.976562 0.410156 17.699219 0.410156 Z M 17.699219 -6.207031 C 12.515625 -6.207031 8.566406 -10.207031 8.566406 -15.390625 C 8.566406 -20.570312 12.515625 -24.570312 17.699219 -24.570312 C 22.929688 -24.570312 26.878906 -20.570312 26.878906 -15.390625 C 26.878906 -10.207031 22.929688 -6.207031 17.699219 -6.207031 Z M 17.699219 -6.207031 "/></g></g></g><g fill="#000000" fill-opacity="1"><g transform="translate(328.463149, 241.937646)"><g><path d="M 15.59375 -33.394531 L 20.671875 -41.039062 L 16.570312 -41.039062 L 13.644531 -37.035156 L 10.722656 -41.039062 L 6.617188 -41.039062 L 11.644531 -33.394531 Z M 24.777344 -30.777344 L 2.460938 -30.777344 L 2.460938 -24.777344 L 14.261719 -24.777344 L 1.179688 0 L 24.777344 0 L 24.777344 -6 L 11.796875 -6 Z M 24.777344 -30.777344 "/></g></g></g><g fill="#000000" fill-opacity="1"><g transform="translate(354.726593, 241.937646)"><g><path d="M 4.105469 -33.394531 L 8.414062 -33.394531 L 14.824219 -41.039062 L 8.617188 -41.039062 Z M 3.28125 0 L 10.054688 0 L 10.054688 -30.777344 L 3.28125 -30.777344 Z M 3.28125 0 "/></g></g></g><g fill="#000000" fill-opacity="1"><g transform="translate(368.012216, 241.937646)"><g><path d="M 10.105469 -33.394531 L 14.054688 -33.394531 L 19.132812 -41.039062 L 15.03125 -41.039062 L 12.105469 -37.035156 L 9.183594 -41.039062 L 5.078125 -41.039062 Z M 12.515625 0.410156 C 18.261719 0.410156 23.136719 -2.976562 23.136719 -8.71875 C 23.136719 -20.109375 8.976562 -17.289062 8.976562 -22.621094 C 8.976562 -24.367188 10.3125 -25.1875 11.953125 -25.1875 C 13.695312 -25.1875 15.441406 -24.210938 16.980469 -22.519531 L 21.492188 -26.828125 C 19.238281 -29.445312 15.800781 -31.1875 12.003906 -31.1875 C 7.128906 -31.1875 2.15625 -28.265625 2.15625 -22.109375 C 2.15625 -11.644531 16.363281 -14.15625 16.363281 -8.773438 C 16.363281 -7.078125 14.925781 -5.949219 12.566406 -5.949219 C 9.746094 -5.949219 7.539062 -7.539062 6.414062 -9.953125 L 0.820312 -6.464844 C 2.820312 -2.617188 7.128906 0.410156 12.515625 0.410156 Z M 12.515625 0.410156 "/></g></g></g><g fill="#000000" fill-opacity="1"><g transform="translate(392.326427, 241.937646)"><g><path d="M 21.800781 -24.828125 L 21.800781 -30.777344 L 3.28125 -30.777344 L 3.28125 0 L 21.800781 0 L 21.800781 -5.949219 L 10.054688 -5.949219 L 10.054688 -12.414062 L 20.109375 -12.414062 L 20.109375 -18.363281 L 10.054688 -18.363281 L 10.054688 -24.828125 Z M 21.800781 -24.828125 "/></g></g></g><g fill="#000000" fill-opacity="1"><g transform="translate(416.230267, 241.937646)"><g><path d="M 22.261719 0 L 31.292969 0 L 16.464844 -17.082031 L 29.753906 -30.777344 L 21.03125 -30.777344 L 10.976562 -19.902344 L 9.796875 -19.902344 L 9.796875 -30.777344 L 3.027344 -30.777344 L 3.027344 0 L 9.796875 0 L 9.796875 -14.054688 L 10.773438 -14.054688 Z M 22.261719 0 "/></g></g></g><g fill="#737373" fill-opacity="1"><g transform="translate(3.731109, 279.216261)"><g><path d="M 12.101562 0.382812 C 16.550781 0.382812 20.28125 -2.488281 21.570312 -6.503906 L 18.414062 -6.503906 C 17.265625 -4.160156 14.875 -2.582031 12.101562 -2.582031 C 8.226562 -2.582031 5.117188 -5.644531 5.117188 -9.566406 C 5.117188 -13.488281 8.226562 -16.550781 12.101562 -16.550781 C 14.875 -16.550781 17.265625 -14.96875 18.414062 -12.628906 L 21.570312 -12.628906 C 20.28125 -16.644531 16.550781 -19.515625 12.101562 -19.515625 C 6.601562 -19.515625 2.152344 -15.066406 2.152344 -9.566406 C 2.152344 -4.066406 6.601562 0.382812 12.101562 0.382812 Z M 12.101562 0.382812 "/></g></g></g><g fill="#737373" fill-opacity="1"><g transform="translate(26.544475, 279.216261)"><g><path d="M 10.714844 -19.515625 C 9.136719 -19.515625 7.652344 -18.988281 6.457031 -18.128906 L 6.457031 -35.203125 L 3.492188 -35.203125 L 3.492188 0 L 6.457031 0 L 6.457031 -12.246094 C 6.457031 -14.683594 8.371094 -16.550781 10.714844 -16.550781 C 13.058594 -16.550781 15.019531 -14.683594 15.019531 -12.246094 L 15.019531 0 L 17.9375 0 L 17.9375 -12.246094 C 17.9375 -16.308594 14.730469 -19.515625 10.714844 -19.515625 Z M 10.714844 -19.515625 "/></g></g></g><g fill="#737373" fill-opacity="1"><g transform="translate(47.731732, 279.216261)"><g><path d="M 12.101562 0.382812 C 17.601562 0.382812 22.050781 -4.066406 22.050781 -9.566406 C 22.050781 -15.066406 17.601562 -19.515625 12.101562 -19.515625 C 6.601562 -19.515625 2.152344 -15.066406 2.152344 -9.566406 C 2.152344 -4.066406 6.601562 0.382812 12.101562 0.382812 Z M 12.101562 -2.582031 C 8.226562 -2.582031 5.117188 -5.691406 5.117188 -9.566406 C 5.117188 -13.441406 8.226562 -16.550781 12.101562 -16.550781 C 15.925781 -16.550781 19.085938 -13.441406 19.085938 -9.566406 C 19.085938 -5.691406 15.925781 -2.582031 12.101562 -2.582031 Z M 12.101562 -2.582031 "/></g></g></g><g fill="#737373" fill-opacity="1"><g transform="translate(71.932078, 279.216261)"><g><path d="M 15.449219 -19.132812 L 9.566406 -3.445312 L 3.636719 -19.132812 L 0.429688 -19.132812 L 8.082031 0 L 10.953125 0 L 18.652344 -19.132812 Z M 15.449219 -19.132812 "/></g></g></g><g fill="#737373" fill-opacity="1"><g transform="translate(91.014956, 279.216261)"><g><path d="M 11.097656 -19.515625 C 9.328125 -19.515625 7.699219 -18.796875 6.457031 -17.601562 L 6.457031 -19.132812 L 3.492188 -19.132812 L 3.492188 0 L 6.457031 0 L 6.457031 -12.195312 C 6.457031 -14.636719 8.417969 -16.550781 10.855469 -16.550781 C 13.296875 -16.550781 15.210938 -14.636719 15.210938 -12.195312 L 15.210938 0 L 18.175781 0 L 18.175781 -12.195312 C 18.175781 -16.261719 14.78125 -19.515625 11.097656 -19.515625 Z M 11.097656 -19.515625 "/></g></g></g><g fill="#737373" fill-opacity="1"><g transform="translate(112.441354, 279.216261)"><g><path d="M 18.558594 -28.699219 L 15.113281 -28.699219 L 10.90625 -21.617188 L 12.914062 -21.617188 Z M 24.011719 -2.488281 C 22.957031 -2.488281 22.050781 -3.203125 22.050781 -4.972656 L 22.050781 -19.132812 L 19.085938 -19.132812 L 19.085938 -16.644531 C 17.3125 -18.414062 14.828125 -19.515625 12.101562 -19.515625 C 6.601562 -19.515625 2.152344 -15.066406 2.152344 -9.566406 C 2.152344 -4.066406 6.601562 0.382812 12.101562 0.382812 C 14.96875 0.382812 17.554688 -0.957031 19.371094 -2.917969 C 19.992188 -0.957031 21.523438 0.382812 23.769531 0.382812 C 24.296875 0.382812 24.824219 0.238281 25.207031 0 L 25.207031 -2.488281 Z M 12.101562 -2.582031 C 8.226562 -2.582031 5.117188 -5.691406 5.117188 -9.566406 C 5.117188 -13.441406 8.226562 -16.550781 12.101562 -16.550781 C 15.925781 -16.550781 19.085938 -13.441406 19.085938 -9.566406 C 19.085938 -5.691406 15.925781 -2.582031 12.101562 -2.582031 Z M 12.101562 -2.582031 "/></g></g></g><g fill="#737373" fill-opacity="1"><g transform="translate(138.219991, 279.216261)"><g/></g></g><g fill="#737373" fill-opacity="1"><g transform="translate(149.746245, 279.216261)"><g><path d="M 8.226562 0.382812 C 11.574219 0.382812 14.347656 -1.867188 14.347656 -5.164062 C 14.347656 -8.609375 11.480469 -9.949219 8.992188 -10.953125 C 6.648438 -11.957031 5.453125 -12.484375 5.453125 -14.15625 C 5.453125 -15.785156 6.550781 -16.550781 8.132812 -16.550781 C 9.375 -16.550781 10.476562 -16.023438 11 -15.019531 L 13.582031 -16.359375 C 12.867188 -18.078125 10.425781 -19.515625 7.988281 -19.515625 C 5.164062 -19.515625 2.4375 -17.554688 2.4375 -14.0625 C 2.4375 -11.046875 4.449219 -9.519531 7.84375 -8.226562 C 10.140625 -7.316406 11.382812 -6.695312 11.382812 -5.164062 C 11.382812 -3.492188 9.949219 -2.535156 8.226562 -2.535156 C 6.457031 -2.535156 4.734375 -3.539062 4.449219 -4.925781 L 1.578125 -3.777344 C 2.296875 -1.484375 5.164062 0.382812 8.226562 0.382812 Z M 8.226562 0.382812 "/></g></g></g><g fill="#737373" fill-opacity="1"><g transform="translate(165.576905, 279.216261)"><g><path d="M 12.292969 -16.261719 L 12.292969 -19.132812 L 7.175781 -19.132812 L 7.175781 -27.453125 L 4.210938 -27.453125 L 4.210938 -19.132812 L 1.003906 -19.132812 L 1.003906 -16.261719 L 4.210938 -16.261719 L 4.210938 -5.023438 C 4.210938 -2.007812 6.742188 0.382812 9.710938 0.382812 C 10.667969 0.382812 11.71875 0.09375 12.246094 -0.238281 L 12.246094 -2.488281 L 10.042969 -2.488281 C 8.515625 -2.488281 7.175781 -3.636719 7.175781 -5.40625 L 7.175781 -16.261719 Z M 12.292969 -16.261719 "/></g></g></g><g fill="#737373" fill-opacity="1"><g transform="translate(179.446667, 279.216261)"><g><path d="M 24.011719 -2.488281 C 22.957031 -2.488281 22.050781 -3.203125 22.050781 -4.972656 L 22.050781 -19.132812 L 19.085938 -19.132812 L 19.085938 -16.644531 C 17.3125 -18.414062 14.828125 -19.515625 12.101562 -19.515625 C 6.601562 -19.515625 2.152344 -15.066406 2.152344 -9.566406 C 2.152344 -4.066406 6.601562 0.382812 12.101562 0.382812 C 14.96875 0.382812 17.554688 -0.957031 19.371094 -2.917969 C 19.992188 -0.957031 21.523438 0.382812 23.769531 0.382812 C 24.296875 0.382812 24.824219 0.238281 25.207031 0 L 25.207031 -2.488281 Z M 12.101562 -2.582031 C 8.226562 -2.582031 5.117188 -5.691406 5.117188 -9.566406 C 5.117188 -13.441406 8.226562 -16.550781 12.101562 -16.550781 C 15.925781 -16.550781 19.085938 -13.441406 19.085938 -9.566406 C 19.085938 -5.691406 15.925781 -2.582031 12.101562 -2.582031 Z M 12.101562 -2.582031 "/></g></g></g><g fill="#737373" fill-opacity="1"><g transform="translate(205.225303, 279.216261)"><g><path d="M 11.097656 -19.515625 C 9.328125 -19.515625 7.699219 -18.796875 6.457031 -17.601562 L 6.457031 -19.132812 L 3.492188 -19.132812 L 3.492188 0 L 6.457031 0 L 6.457031 -12.195312 C 6.457031 -14.636719 8.417969 -16.550781 10.855469 -16.550781 C 13.296875 -16.550781 15.210938 -14.636719 15.210938 -12.195312 L 15.210938 0 L 18.175781 0 L 18.175781 -12.195312 C 18.175781 -16.261719 14.78125 -19.515625 11.097656 -19.515625 Z M 11.097656 -19.515625 "/></g></g></g><g fill="#737373" fill-opacity="1"><g transform="translate(226.651689, 279.216261)"><g><path d="M 5.355469 -22.71875 C 6.457031 -22.71875 7.414062 -23.628906 7.414062 -24.726562 C 7.414062 -25.921875 6.457031 -26.785156 5.355469 -26.785156 C 4.210938 -26.785156 3.253906 -25.921875 3.253906 -24.726562 C 3.253906 -23.628906 4.210938 -22.71875 5.355469 -22.71875 Z M 3.875 0 L 6.839844 0 L 6.839844 -19.132812 L 3.875 -19.132812 Z M 3.875 0 "/></g></g></g><g fill="#737373" fill-opacity="1"><g transform="translate(237.317051, 279.216261)"><g><path d="M 12.101562 0.382812 C 16.550781 0.382812 20.28125 -2.488281 21.570312 -6.503906 L 18.414062 -6.503906 C 17.265625 -4.160156 14.875 -2.582031 12.101562 -2.582031 C 8.226562 -2.582031 5.117188 -5.644531 5.117188 -9.566406 C 5.117188 -13.488281 8.226562 -16.550781 12.101562 -16.550781 C 14.875 -16.550781 17.265625 -14.96875 18.414062 -12.628906 L 21.570312 -12.628906 C 20.28125 -16.644531 16.550781 -19.515625 12.101562 -19.515625 C 6.601562 -19.515625 2.152344 -15.066406 2.152344 -9.566406 C 2.152344 -4.066406 6.601562 0.382812 12.101562 0.382812 Z M 12.101562 0.382812 "/></g></g></g><g fill="#737373" fill-opacity="1"><g transform="translate(260.13043, 279.216261)"><g><path d="M 22.050781 -9.757812 C 21.90625 -15.257812 17.554688 -19.515625 12.101562 -19.515625 C 6.601562 -19.515625 2.152344 -15.066406 2.152344 -9.566406 C 2.152344 -4.066406 6.601562 0.382812 12.101562 0.382812 C 16.644531 0.382812 20.421875 -2.628906 21.667969 -6.742188 L 18.511719 -6.742188 C 17.457031 -4.257812 14.96875 -2.582031 12.101562 -2.582031 C 8.324219 -2.582031 5.308594 -5.453125 5.117188 -9.136719 L 22 -9.136719 Z M 12.101562 -16.550781 C 15.160156 -16.550781 17.746094 -14.589844 18.652344 -11.8125 L 5.5 -11.8125 C 6.457031 -14.589844 9.039062 -16.550781 12.101562 -16.550781 Z M 12.101562 -16.550781 "/></g></g></g><g fill="#737373" fill-opacity="1"><g transform="translate(284.139478, 279.216261)"><g/></g></g><g fill="#737373" fill-opacity="1"><g transform="translate(295.665744, 279.216261)"><g><path d="M 13.441406 -19.515625 C 10.714844 -19.515625 8.273438 -18.414062 6.457031 -16.644531 L 6.457031 -19.132812 L 3.492188 -19.132812 L 3.492188 11.480469 L 6.457031 11.480469 L 6.457031 -2.488281 C 8.273438 -0.71875 10.714844 0.382812 13.441406 0.382812 C 18.941406 0.382812 23.390625 -4.066406 23.390625 -9.566406 C 23.390625 -15.066406 18.941406 -19.515625 13.441406 -19.515625 Z M 13.441406 -2.582031 C 9.566406 -2.582031 6.457031 -5.691406 6.457031 -9.566406 C 6.457031 -13.441406 9.566406 -16.550781 13.441406 -16.550781 C 17.3125 -16.550781 20.421875 -13.441406 20.421875 -9.566406 C 20.421875 -5.691406 17.3125 -2.582031 13.441406 -2.582031 Z M 13.441406 -2.582031 "/></g></g></g><g fill="#737373" fill-opacity="1"><g transform="translate(321.205226, 279.216261)"><g><path d="M 12.101562 0.382812 C 17.601562 0.382812 22.050781 -4.066406 22.050781 -9.566406 C 22.050781 -15.066406 17.601562 -19.515625 12.101562 -19.515625 C 6.601562 -19.515625 2.152344 -15.066406 2.152344 -9.566406 C 2.152344 -4.066406 6.601562 0.382812 12.101562 0.382812 Z M 12.101562 -2.582031 C 8.226562 -2.582031 5.117188 -5.691406 5.117188 -9.566406 C 5.117188 -13.441406 8.226562 -16.550781 12.101562 -16.550781 C 15.925781 -16.550781 19.085938 -13.441406 19.085938 -9.566406 C 19.085938 -5.691406 15.925781 -2.582031 12.101562 -2.582031 Z M 12.101562 -2.582031 "/></g></g></g><g fill="#737373" fill-opacity="1"><g transform="translate(345.405572, 279.216261)"><g><path d="M 12.292969 -16.261719 L 12.292969 -19.132812 L 7.175781 -19.132812 L 7.175781 -27.453125 L 4.210938 -27.453125 L 4.210938 -19.132812 L 1.003906 -19.132812 L 1.003906 -16.261719 L 4.210938 -16.261719 L 4.210938 -5.023438 C 4.210938 -2.007812 6.742188 0.382812 9.710938 0.382812 C 10.667969 0.382812 11.71875 0.09375 12.246094 -0.238281 L 12.246094 -2.488281 L 10.042969 -2.488281 C 8.515625 -2.488281 7.175781 -3.636719 7.175781 -5.40625 L 7.175781 -16.261719 Z M 12.292969 -16.261719 "/></g></g></g><g fill="#737373" fill-opacity="1"><g transform="translate(359.275321, 279.216261)"><g><path d="M 20.230469 0 L 10.523438 -10.617188 L 19.417969 -19.132812 L 15.449219 -19.132812 L 6.742188 -10.761719 L 6.742188 -35.203125 L 3.777344 -35.203125 L 3.777344 0 L 6.742188 0 L 6.742188 -10.667969 L 16.167969 0 Z M 20.230469 0 "/></g></g></g><g fill="#737373" fill-opacity="1"><g transform="translate(379.02778, 279.216261)"><g><path d="M 24.011719 -2.488281 C 22.957031 -2.488281 22.050781 -3.203125 22.050781 -4.972656 L 22.050781 -19.132812 L 19.085938 -19.132812 L 19.085938 -16.644531 C 17.3125 -18.414062 14.828125 -19.515625 12.101562 -19.515625 C 6.601562 -19.515625 2.152344 -15.066406 2.152344 -9.566406 C 2.152344 -4.066406 6.601562 0.382812 12.101562 0.382812 C 14.96875 0.382812 17.554688 -0.957031 19.371094 -2.917969 C 19.992188 -0.957031 21.523438 0.382812 23.769531 0.382812 C 24.296875 0.382812 24.824219 0.238281 25.207031 0 L 25.207031 -2.488281 Z M 12.101562 -2.582031 C 8.226562 -2.582031 5.117188 -5.691406 5.117188 -9.566406 C 5.117188 -13.441406 8.226562 -16.550781 12.101562 -16.550781 C 15.925781 -16.550781 19.085938 -13.441406 19.085938 -9.566406 C 19.085938 -5.691406 15.925781 -2.582031 12.101562 -2.582031 Z M 12.101562 -2.582031 "/></g></g></g><g fill="#737373" fill-opacity="1"><g transform="translate(404.806416, 279.216261)"><g><path d="M 11.097656 -19.515625 C 9.328125 -19.515625 7.699219 -18.796875 6.457031 -17.601562 L 6.457031 -19.132812 L 3.492188 -19.132812 L 3.492188 0 L 6.457031 0 L 6.457031 -12.195312 C 6.457031 -14.636719 8.417969 -16.550781 10.855469 -16.550781 C 13.296875 -16.550781 15.210938 -14.636719 15.210938 -12.195312 L 15.210938 0 L 18.175781 0 L 18.175781 -12.195312 C 18.175781 -16.261719 14.78125 -19.515625 11.097656 -19.515625 Z M 11.097656 -19.515625 "/></g></g></g><g fill="#737373" fill-opacity="1"><g transform="translate(426.232802, 279.216261)"><g><path d="M 10.140625 -20.949219 C 12.292969 -20.949219 14.0625 -22.765625 14.0625 -24.917969 C 14.0625 -27.121094 12.292969 -28.890625 10.140625 -28.890625 C 7.941406 -28.890625 6.121094 -27.121094 6.121094 -24.917969 C 6.121094 -22.765625 7.941406 -20.949219 10.140625 -20.949219 Z M 10.140625 -22.574219 C 8.800781 -22.574219 7.796875 -23.578125 7.796875 -24.917969 C 7.796875 -26.210938 8.800781 -27.3125 10.140625 -27.3125 C 11.382812 -27.3125 12.4375 -26.210938 12.4375 -24.917969 C 12.4375 -23.578125 11.382812 -22.574219 10.140625 -22.574219 Z M 10.042969 0.382812 C 14.300781 0.382812 17.21875 -2.4375 17.21875 -6.886719 L 17.21875 -19.132812 L 14.300781 -19.132812 L 14.300781 -7.222656 C 14.300781 -4.351562 12.53125 -2.582031 10.042969 -2.582031 C 7.605469 -2.582031 5.789062 -4.351562 5.789062 -7.222656 L 5.789062 -19.132812 L 2.871094 -19.132812 L 2.871094 -6.886719 C 2.871094 -2.4375 5.738281 0.382812 10.042969 0.382812 Z M 10.042969 0.382812 "/></g></g></g></svg>