<svg xmlns="http://www.w3.org/2000/svg" xmlns:xlink="http://www.w3.org/1999/xlink" width="600" zoomAndPan="magnify" viewBox="0 0 450 299.999988" height="400" preserveAspectRatio="xMidYMid meet" version="1.0"><defs><g/><clipPath id="57de286083"><path d="M 345.429688 133.351562 L 377.1875 133.351562 L 377.1875 165.125 L 345.429688 165.125 Z M 345.429688 133.351562 " clip-rule="nonzero"/></clipPath><clipPath id="0a5bb8feef"><path d="M 387 5.390625 L 423 5.390625 L 423 34 L 387 34 Z M 387 5.390625 " clip-rule="nonzero"/></clipPath><clipPath id="cc7a86d96f"><path d="M 428.398438 8.449219 L 450 8.449219 L 450 53.796875 L 428.398438 53.796875 Z M 428.398438 8.449219 " clip-rule="nonzero"/></clipPath><clipPath id="6492b14be5"><path d="M 234 186 L 263 186 L 263 203.4375 L 234 203.4375 Z M 234 186 " clip-rule="nonzero"/></clipPath><clipPath id="538b760d7c"><path d="M 191 186 L 220 186 L 220 203.4375 L 191 203.4375 Z M 191 186 " clip-rule="nonzero"/></clipPath><clipPath id="5a9fe61011"><path d="M 210.429688 171.648438 L 242.1875 171.648438 L 242.1875 203.425781 L 210.429688 203.425781 Z M 210.429688 171.648438 " clip-rule="nonzero"/></clipPath><clipPath id="c8e73cc864"><path d="M 252 43.6875 L 288 43.6875 L 288 73 L 252 73 Z M 252 43.6875 " clip-rule="nonzero"/></clipPath><clipPath id="e085772a7b"><path d="M 293.398438 46.75 L 315 46.75 L 315 92.097656 L 293.398438 92.097656 Z M 293.398438 46.75 " clip-rule="nonzero"/></clipPath><clipPath id="7e439f2872"><path d="M 75.429688 133.351562 L 107.1875 133.351562 L 107.1875 165.125 L 75.429688 165.125 Z M 75.429688 133.351562 " clip-rule="nonzero"/></clipPath><clipPath id="407d5c7b1a"><path d="M 117 5.390625 L 153 5.390625 L 153 34 L 117 34 Z M 117 5.390625 " clip-rule="nonzero"/></clipPath><clipPath id="e15a643421"><path d="M 158.398438 8.449219 L 180 8.449219 L 180 53.796875 L 158.398438 53.796875 Z M 158.398438 8.449219 " clip-rule="nonzero"/></clipPath></defs><rect x="-45" width="540" fill="#ffffff" y="-29.999999" height="359.999986" fill-opacity="1"/><rect x="-45" width="540" fill="#ffffff" y="-29.999999" height="359.999986" fill-opacity="1"/><rect x="-45" width="540" fill="#ffffff" y="-29.999999" height="359.999986" fill-opacity="1"/><path fill="#000000" d="M 372.082031 154.066406 C 371.476562 154.066406 370.867188 153.867188 370.359375 153.457031 C 369.175781 152.503906 368.992188 150.765625 369.941406 149.582031 L 383.25 133.039062 C 384.203125 131.851562 385.929688 131.664062 387.113281 132.621094 C 388.296875 133.574219 388.484375 135.308594 387.53125 136.492188 L 374.226562 153.039062 C 373.683594 153.714844 372.886719 154.066406 372.082031 154.066406 " fill-opacity="1" fill-rule="nonzero"/><path fill="#000000" d="M 394.6875 164.933594 C 394.285156 164.933594 393.882812 164.847656 393.5 164.660156 L 370.894531 153.792969 C 369.523438 153.136719 368.949219 151.492188 369.605469 150.117188 C 370.265625 148.746094 371.910156 148.164062 373.273438 148.828125 L 395.878906 159.695312 C 397.246094 160.351562 397.824219 162 397.167969 163.371094 C 396.695312 164.359375 395.710938 164.933594 394.6875 164.933594 " fill-opacity="1" fill-rule="nonzero"/><path fill="#000000" d="M 351.566406 154.066406 C 350.765625 154.066406 349.96875 153.714844 349.425781 153.039062 L 336.117188 136.492188 C 335.167969 135.308594 335.351562 133.574219 336.535156 132.621094 C 337.71875 131.664062 339.449219 131.851562 340.402344 133.039062 L 353.707031 149.582031 C 354.660156 150.765625 354.472656 152.503906 353.289062 153.457031 C 352.78125 153.867188 352.171875 154.066406 351.566406 154.066406 " fill-opacity="1" fill-rule="nonzero"/><path fill="#000000" d="M 328.964844 164.933594 C 327.9375 164.933594 326.957031 164.359375 326.484375 163.371094 C 325.824219 162 326.402344 160.351562 327.773438 159.695312 L 350.375 148.828125 C 351.742188 148.164062 353.386719 148.746094 354.042969 150.117188 C 354.703125 151.492188 354.125 153.136719 352.753906 153.792969 L 330.152344 164.660156 C 329.765625 164.847656 329.363281 164.933594 328.964844 164.933594 " fill-opacity="1" fill-rule="nonzero"/><path fill="#b2b2b2" d="M 328.972656 33.917969 L 306.59375 71.769531 C 306.59375 71.796875 306.535156 71.796875 306.507812 71.796875 C 290.976562 74.496094 276.15625 64.191406 273.1875 48.738281 C 273.160156 48.546875 273.105469 48.351562 273.078125 48.160156 C 270.355469 32.402344 280.914062 17.417969 296.640625 14.691406 C 305.328125 13.175781 313.796875 15.710938 320.09375 20.972656 C 324.105469 24.304688 327.210938 28.738281 328.972656 33.917969 " fill-opacity="1" fill-rule="nonzero"/><path fill="#6b6161" d="M 328.972656 33.917969 L 306.59375 71.769531 C 306.59375 71.796875 306.535156 71.796875 306.507812 71.796875 C 290.976562 74.496094 276.15625 64.191406 273.1875 48.738281 C 285.0625 55.320312 299.25 56.3125 310.714844 36.78125 C 314.402344 30.5 317.507812 25.296875 320.09375 20.972656 C 324.105469 24.304688 327.210938 28.738281 328.972656 33.917969 " fill-opacity="1" fill-rule="nonzero"/><path fill="#b2b2b2" d="M 423.25 65.761719 C 420.253906 66.285156 417.285156 66.339844 414.425781 65.957031 L 412.71875 63.53125 L 390.039062 31.054688 C 392.457031 19.867188 401.449219 10.722656 413.378906 8.65625 C 416.488281 8.105469 419.59375 8.105469 422.535156 8.519531 C 434.578125 10.308594 444.640625 19.621094 446.8125 32.265625 C 449.535156 48.023438 438.976562 63.035156 423.25 65.761719 " fill-opacity="1" fill-rule="nonzero"/><path fill="#6b6161" d="M 423.25 65.761719 C 420.253906 66.285156 417.285156 66.339844 414.425781 65.957031 L 412.71875 63.53125 C 422.261719 57.554688 433.425781 44.660156 426.027344 18.410156 C 424.957031 14.605469 423.773438 11.328125 422.535156 8.519531 C 434.578125 10.308594 444.640625 19.621094 446.8125 32.265625 C 449.535156 48.023438 438.976562 63.035156 423.25 65.761719 " fill-opacity="1" fill-rule="nonzero"/><path fill="#b2b2b2" d="M 418.328125 91.296875 C 418.328125 118.15625 390.53125 141.488281 373.761719 153.113281 C 366.253906 158.320312 356.355469 158.320312 348.851562 153.113281 C 342.363281 148.625 334.222656 142.371094 326.71875 134.851562 C 314.757812 122.921875 304.308594 107.769531 304.308594 91.296875 C 304.308594 52.816406 329.824219 21.605469 361.304688 21.605469 C 366.035156 21.605469 370.597656 22.292969 374.972656 23.644531 C 399.851562 31.109375 418.328125 58.574219 418.328125 91.296875 " fill-opacity="1" fill-rule="nonzero"/><path fill="#6b6161" d="M 418.328125 91.296875 C 418.328125 118.15625 390.53125 141.488281 373.761719 153.113281 C 366.253906 158.320312 356.355469 158.320312 348.851562 153.113281 C 342.363281 148.625 334.222656 142.371094 326.71875 134.851562 C 355.285156 124.601562 388.5 101.875 378.738281 52.207031 C 376.566406 41.191406 375.382812 31.714844 374.972656 23.644531 C 399.851562 31.109375 418.328125 58.574219 418.328125 91.296875 " fill-opacity="1" fill-rule="nonzero"/><path fill="#000000" d="M 333.609375 106.5625 C 333.609375 109.132812 331.53125 111.21875 328.960938 111.21875 C 326.394531 111.21875 324.3125 109.132812 324.3125 106.5625 C 324.3125 103.988281 326.394531 101.902344 328.960938 101.902344 C 331.53125 101.902344 333.609375 103.988281 333.609375 106.5625 " fill-opacity="1" fill-rule="nonzero"/><path fill="#000000" d="M 328.960938 103.28125 C 327.15625 103.28125 325.6875 104.753906 325.6875 106.558594 C 325.6875 108.371094 327.15625 109.84375 328.960938 109.84375 C 330.765625 109.84375 332.234375 108.371094 332.234375 106.558594 C 332.234375 104.753906 330.765625 103.28125 328.960938 103.28125 Z M 328.960938 112.597656 C 325.640625 112.597656 322.9375 109.886719 322.9375 106.558594 C 322.9375 103.230469 325.640625 100.527344 328.960938 100.527344 C 332.28125 100.527344 334.984375 103.230469 334.984375 106.558594 C 334.984375 109.886719 332.28125 112.597656 328.960938 112.597656 " fill-opacity="1" fill-rule="nonzero"/><path fill="#000000" d="M 394.6875 106.5625 C 394.6875 109.132812 392.605469 111.21875 390.039062 111.21875 C 387.472656 111.21875 385.390625 109.132812 385.390625 106.5625 C 385.390625 103.988281 387.472656 101.902344 390.039062 101.902344 C 392.605469 101.902344 394.6875 103.988281 394.6875 106.5625 " fill-opacity="1" fill-rule="nonzero"/><path fill="#000000" d="M 390.039062 103.28125 C 388.234375 103.28125 386.765625 104.753906 386.765625 106.558594 C 386.765625 108.371094 388.234375 109.84375 390.039062 109.84375 C 391.84375 109.84375 393.3125 108.371094 393.3125 106.558594 C 393.3125 104.753906 391.84375 103.28125 390.039062 103.28125 Z M 390.039062 112.597656 C 386.71875 112.597656 384.015625 109.886719 384.015625 106.558594 C 384.015625 103.230469 386.71875 100.527344 390.039062 100.527344 C 393.359375 100.527344 396.0625 103.230469 396.0625 106.558594 C 396.0625 109.886719 393.359375 112.597656 390.039062 112.597656 " fill-opacity="1" fill-rule="nonzero"/><path fill="#000000" d="M 375.78125 149.257812 C 375.78125 157.261719 369.304688 163.75 361.316406 163.75 C 353.328125 163.75 346.851562 157.261719 346.851562 149.257812 C 346.851562 141.253906 353.328125 134.765625 361.316406 134.765625 C 369.304688 134.765625 375.78125 141.253906 375.78125 149.257812 " fill-opacity="1" fill-rule="nonzero"/><g clip-path="url(#57de286083)"><path fill="#000000" d="M 361.316406 136.144531 C 354.101562 136.144531 348.226562 142.027344 348.226562 149.257812 C 348.226562 156.488281 354.101562 162.371094 361.316406 162.371094 C 368.535156 162.371094 374.40625 156.488281 374.40625 149.257812 C 374.40625 142.027344 368.535156 136.144531 361.316406 136.144531 Z M 361.316406 165.125 C 352.585938 165.125 345.476562 158.007812 345.476562 149.257812 C 345.476562 140.507812 352.585938 133.390625 361.316406 133.390625 C 370.050781 133.390625 377.15625 140.507812 377.15625 149.257812 C 377.15625 158.007812 370.050781 165.125 361.316406 165.125 " fill-opacity="1" fill-rule="nonzero"/></g><path fill="#ffe3e6" d="M 318.800781 42.125 L 307.308594 61.574219 C 307.28125 61.601562 307.28125 61.601562 307.25 61.601562 C 299.882812 62.898438 292.816406 58.460938 290.589844 51.519531 C 290.371094 50.859375 290.207031 50.171875 290.066406 49.453125 C 288.664062 41.355469 294.082031 33.640625 302.191406 32.238281 C 305.820312 31.605469 309.339844 32.347656 312.285156 34.109375 C 315.28125 35.875 317.644531 38.683594 318.800781 42.125 " fill-opacity="1" fill-rule="nonzero"/><path fill="#ffbcd0" d="M 318.800781 42.125 L 307.308594 61.574219 C 307.28125 61.601562 307.28125 61.601562 307.25 61.601562 C 299.882812 62.898438 292.816406 58.460938 290.589844 51.519531 C 298.316406 50.390625 307.964844 46.367188 312.285156 34.109375 C 315.28125 35.875 317.644531 38.683594 318.800781 42.125 " fill-opacity="1" fill-rule="nonzero"/><path fill="#ffe3e6" d="M 427.871094 45.761719 C 426.46875 53.890625 419.539062 59.535156 411.457031 58.132812 L 408.074219 52.703125 L 399.167969 38.4375 C 401.449219 31.605469 408.433594 27.308594 415.746094 28.546875 C 416.046875 28.601562 416.324219 28.65625 416.625 28.738281 C 424.242188 30.527344 429.21875 37.96875 427.871094 45.761719 " fill-opacity="1" fill-rule="nonzero"/><path fill="#ffbcd0" d="M 427.871094 45.761719 C 426.46875 53.890625 419.539062 59.535156 411.457031 58.132812 L 408.074219 52.703125 C 415.332031 51.050781 423.636719 46.535156 418.632812 34.109375 C 417.78125 32.015625 417.121094 30.226562 416.625 28.738281 C 424.242188 30.527344 429.21875 37.96875 427.871094 45.761719 " fill-opacity="1" fill-rule="nonzero"/><path fill="#000000" d="M 312.75 120.425781 C 311.832031 120.425781 310.9375 119.972656 310.417969 119.132812 C 304.542969 109.726562 301.566406 100.359375 301.566406 91.292969 C 301.566406 51.34375 328.371094 18.847656 361.316406 18.847656 C 364.179688 18.847656 367.050781 19.09375 369.847656 19.578125 C 371.34375 19.839844 372.34375 21.265625 372.085938 22.761719 C 371.828125 24.261719 370.410156 25.261719 368.90625 25.003906 C 366.421875 24.574219 363.867188 24.355469 361.316406 24.355469 C 331.402344 24.355469 307.066406 54.382812 307.066406 91.292969 C 307.066406 99.308594 309.761719 107.695312 315.078125 116.210938 C 315.882812 117.5 315.492188 119.203125 314.207031 120.007812 C 313.753906 120.292969 313.25 120.425781 312.75 120.425781 " fill-opacity="1" fill-rule="nonzero"/><path fill="#000000" d="M 361.316406 159.738281 C 356.402344 159.738281 351.488281 158.285156 347.296875 155.375 C 337.636719 148.675781 329.234375 141.582031 322.328125 134.289062 C 321.28125 133.183594 321.328125 131.441406 322.425781 130.390625 C 323.527344 129.34375 325.269531 129.390625 326.3125 130.496094 C 334.597656 139.238281 344 146.386719 350.425781 150.84375 C 357.039062 155.433594 365.589844 155.433594 372.207031 150.84375 C 380.945312 144.785156 393.304688 135.085938 402.578125 123.269531 C 403.519531 122.070312 405.253906 121.871094 406.441406 122.804688 C 407.632812 123.746094 407.839844 125.480469 406.902344 126.675781 C 397.203125 139.03125 384.382812 149.101562 375.339844 155.375 C 371.144531 158.285156 366.230469 159.738281 361.316406 159.738281 " fill-opacity="1" fill-rule="nonzero"/><path fill="#000000" d="M 410.164062 119.972656 C 409.675781 119.972656 409.175781 119.839844 408.726562 119.5625 C 407.433594 118.765625 407.03125 117.066406 407.828125 115.769531 C 412.964844 107.40625 415.570312 99.171875 415.570312 91.292969 C 415.570312 61.964844 399.671875 35.59375 376.90625 27.167969 C 375.484375 26.640625 374.753906 25.054688 375.28125 23.625 C 375.808594 22.203125 377.390625 21.472656 378.8125 21.996094 C 404.089844 31.351562 421.066406 59.199219 421.066406 91.292969 C 421.066406 100.207031 418.1875 109.414062 412.507812 118.660156 C 411.988281 119.503906 411.089844 119.972656 410.164062 119.972656 " fill-opacity="1" fill-rule="nonzero"/><path fill="#000000" d="M 304.71875 64.570312 C 302.75 64.570312 300.792969 64.242188 298.933594 63.59375 C 297.5 63.09375 296.742188 61.523438 297.242188 60.085938 C 297.742188 58.652344 299.308594 57.886719 300.742188 58.390625 C 302.644531 59.054688 304.699219 59.226562 306.695312 58.898438 C 307.523438 58.710938 308.421875 58.914062 309.109375 59.511719 C 310.25 60.515625 310.367188 62.257812 309.367188 63.398438 C 308.949219 63.882812 308.351562 64.203125 307.722656 64.3125 C 306.730469 64.484375 305.722656 64.570312 304.71875 64.570312 " fill-opacity="1" fill-rule="nonzero"/><path fill="#000000" d="M 293.460938 59.40625 C 292.691406 59.40625 291.921875 59.082031 291.378906 58.453125 C 289.292969 56.039062 287.902344 53.089844 287.355469 49.929688 C 286.554688 45.28125 287.605469 40.601562 290.316406 36.75 C 293.027344 32.898438 297.074219 30.335938 301.710938 29.53125 C 310.328125 28.046875 318.601562 32.964844 321.390625 41.246094 C 321.878906 42.6875 321.105469 44.25 319.667969 44.738281 C 318.222656 45.226562 316.667969 44.449219 316.183594 43.011719 C 314.261719 37.320312 308.5625 33.925781 302.648438 34.960938 C 299.457031 35.511719 296.675781 37.277344 294.808594 39.925781 C 292.945312 42.574219 292.222656 45.792969 292.773438 48.984375 C 293.148438 51.164062 294.105469 53.191406 295.539062 54.847656 C 296.53125 56 296.40625 57.738281 295.257812 58.730469 C 294.738281 59.183594 294.097656 59.40625 293.460938 59.40625 " fill-opacity="1" fill-rule="nonzero"/><path fill="#000000" d="M 413.957031 61.09375 C 412.976562 61.09375 411.984375 61.007812 410.980469 60.832031 C 409.488281 60.574219 408.484375 59.144531 408.742188 57.648438 C 409.003906 56.148438 410.421875 55.148438 411.925781 55.40625 C 415.8125 56.074219 419.535156 54.757812 422.140625 51.78125 C 423.140625 50.636719 424.878906 50.523438 426.019531 51.523438 C 427.164062 52.527344 427.277344 54.269531 426.273438 55.414062 C 423.042969 59.101562 418.667969 61.09375 413.957031 61.09375 " fill-opacity="1" fill-rule="nonzero"/><path fill="#000000" d="M 427.882812 48.515625 C 427.726562 48.515625 427.566406 48.5 427.40625 48.476562 C 425.910156 48.214844 424.910156 46.789062 425.167969 45.285156 C 425.722656 42.101562 425 38.886719 423.132812 36.242188 C 421.265625 33.59375 418.476562 31.828125 415.28125 31.269531 C 409.363281 30.257812 403.671875 33.628906 401.765625 39.308594 C 401.28125 40.75 399.730469 41.527344 398.28125 41.042969 C 396.84375 40.558594 396.066406 38.996094 396.550781 37.554688 C 399.328125 29.28125 407.605469 24.359375 416.214844 25.84375 C 420.859375 26.648438 424.910156 29.214844 427.625 33.0625 C 430.339844 36.914062 431.394531 41.589844 430.585938 46.234375 C 430.355469 47.570312 429.191406 48.515625 427.882812 48.515625 " fill-opacity="1" fill-rule="nonzero"/><path fill="#000000" d="M 301.527344 74.980469 C 288.363281 74.980469 276.355469 66.769531 271.773438 53.996094 C 271.152344 52.269531 270.679688 50.46875 270.363281 48.644531 C 270.105469 47.144531 271.105469 45.71875 272.601562 45.457031 C 274.113281 45.203125 275.523438 46.203125 275.78125 47.703125 C 276.042969 49.214844 276.433594 50.703125 276.949219 52.132812 C 281.242188 64.097656 293.425781 71.226562 305.941406 69.097656 C 306.847656 68.875 307.84375 69.117188 308.550781 69.824219 C 309.625 70.898438 309.625 72.644531 308.550781 73.71875 C 308.144531 74.125 307.574219 74.40625 306.992188 74.507812 C 305.160156 74.824219 303.332031 74.980469 301.527344 74.980469 " fill-opacity="1" fill-rule="nonzero"/><path fill="#000000" d="M 272.945312 41.8125 C 272.8125 41.8125 272.679688 41.804688 272.542969 41.78125 C 271.042969 41.5625 270 40.164062 270.21875 38.660156 C 271.867188 27.304688 279.527344 17.703125 290.21875 13.605469 C 292.128906 12.871094 294.136719 12.316406 296.175781 11.964844 C 297.679688 11.707031 299.097656 12.710938 299.355469 14.210938 C 299.613281 15.710938 298.609375 17.132812 297.113281 17.394531 C 295.425781 17.6875 293.765625 18.140625 292.183594 18.75 C 283.351562 22.136719 277.023438 30.070312 275.660156 39.453125 C 275.460938 40.824219 274.285156 41.8125 272.945312 41.8125 " fill-opacity="1" fill-rule="nonzero"/><path fill="#000000" d="M 328.960938 36.664062 C 327.8125 36.664062 326.742188 35.941406 326.355469 34.792969 C 323.644531 26.746094 317.148438 20.496094 308.984375 18.074219 C 307.527344 17.644531 306.699219 16.113281 307.128906 14.652344 C 307.558594 13.195312 309.09375 12.355469 310.546875 12.792969 C 320.421875 15.722656 328.28125 23.289062 331.566406 33.027344 C 332.050781 34.46875 331.28125 36.03125 329.84375 36.519531 C 329.550781 36.621094 329.253906 36.664062 328.960938 36.664062 " fill-opacity="1" fill-rule="nonzero"/><g clip-path="url(#0a5bb8feef)"><path fill="#000000" d="M 390.042969 33.808594 C 389.847656 33.808594 389.652344 33.789062 389.457031 33.746094 C 387.972656 33.421875 387.03125 31.957031 387.351562 30.46875 C 390.09375 17.785156 400.128906 8.15625 412.917969 5.9375 C 415.179688 5.546875 417.472656 5.40625 419.734375 5.496094 C 421.25 5.5625 422.425781 6.847656 422.359375 8.367188 C 422.296875 9.886719 421.070312 11.128906 419.496094 11 C 417.628906 10.921875 415.726562 11.042969 413.855469 11.367188 C 403.285156 13.199219 394.992188 21.15625 392.726562 31.636719 C 392.449219 32.925781 391.308594 33.808594 390.042969 33.808594 " fill-opacity="1" fill-rule="nonzero"/></g><g clip-path="url(#cc7a86d96f)"><path fill="#000000" d="M 443.730469 53.792969 C 443.289062 53.792969 442.839844 53.683594 442.421875 53.460938 C 441.085938 52.730469 440.59375 51.058594 441.320312 49.722656 C 444.160156 44.484375 445.125 38.605469 444.109375 32.722656 C 442.695312 24.53125 437.410156 17.429688 429.976562 13.71875 C 428.613281 13.039062 428.0625 11.386719 428.742188 10.023438 C 429.414062 8.664062 431.0625 8.105469 432.425781 8.785156 C 441.421875 13.273438 447.8125 21.871094 449.527344 31.78125 C 450.757812 38.902344 449.589844 46.015625 446.148438 52.355469 C 445.652344 53.273438 444.707031 53.792969 443.730469 53.792969 " fill-opacity="1" fill-rule="nonzero"/></g><path fill="#000000" d="M 418.222656 68.957031 C 416.835938 68.957031 415.445312 68.867188 414.066406 68.683594 C 412.558594 68.492188 411.496094 67.109375 411.695312 65.601562 C 411.886719 64.089844 413.261719 63.011719 414.773438 63.226562 C 417.4375 63.570312 420.136719 63.511719 422.796875 63.054688 C 428.492188 62.066406 433.574219 59.296875 437.5 55.050781 C 438.53125 53.933594 440.269531 53.867188 441.386719 54.902344 C 442.5 55.9375 442.566406 57.679688 441.535156 58.796875 C 436.785156 63.933594 430.628906 67.285156 423.734375 68.484375 C 421.90625 68.796875 420.0625 68.957031 418.222656 68.957031 " fill-opacity="1" fill-rule="nonzero"/><path fill="#000000" d="M 237.082031 192.363281 C 236.476562 192.363281 235.867188 192.164062 235.359375 191.753906 C 234.175781 190.800781 233.992188 189.066406 234.941406 187.882812 L 248.25 171.335938 C 249.203125 170.148438 250.929688 169.964844 252.113281 170.921875 C 253.296875 171.871094 253.484375 173.609375 252.53125 174.792969 L 239.226562 191.335938 C 238.683594 192.015625 237.886719 192.363281 237.082031 192.363281 " fill-opacity="1" fill-rule="nonzero"/><g clip-path="url(#6492b14be5)"><path fill="#000000" d="M 259.6875 203.230469 C 259.285156 203.230469 258.882812 203.144531 258.5 202.960938 L 235.894531 192.09375 C 234.523438 191.4375 233.949219 189.789062 234.605469 188.417969 C 235.265625 187.046875 236.910156 186.464844 238.273438 187.125 L 260.878906 197.996094 C 262.246094 198.652344 262.824219 200.296875 262.167969 201.667969 C 261.695312 202.65625 260.710938 203.230469 259.6875 203.230469 " fill-opacity="1" fill-rule="nonzero"/></g><path fill="#000000" d="M 216.566406 192.363281 C 215.765625 192.363281 214.96875 192.015625 214.425781 191.335938 L 201.117188 174.792969 C 200.167969 173.609375 200.351562 171.871094 201.535156 170.921875 C 202.71875 169.964844 204.449219 170.148438 205.402344 171.335938 L 218.707031 187.882812 C 219.660156 189.066406 219.472656 190.800781 218.289062 191.753906 C 217.78125 192.164062 217.171875 192.363281 216.566406 192.363281 " fill-opacity="1" fill-rule="nonzero"/><g clip-path="url(#538b760d7c)"><path fill="#000000" d="M 193.964844 203.230469 C 192.9375 203.230469 191.957031 202.65625 191.484375 201.667969 C 190.824219 200.296875 191.402344 198.652344 192.773438 197.996094 L 215.375 187.125 C 216.742188 186.464844 218.386719 187.046875 219.042969 188.417969 C 219.703125 189.789062 219.125 191.4375 217.753906 192.09375 L 195.152344 202.960938 C 194.765625 203.144531 194.363281 203.230469 193.964844 203.230469 " fill-opacity="1" fill-rule="nonzero"/></g><path fill="#e1b49a" d="M 193.972656 72.214844 L 171.59375 110.066406 C 171.59375 110.09375 171.535156 110.09375 171.507812 110.09375 C 155.976562 112.792969 141.15625 102.492188 138.1875 87.035156 C 138.160156 86.84375 138.105469 86.652344 138.078125 86.457031 C 135.355469 70.703125 145.914062 55.714844 161.640625 52.988281 C 170.328125 51.472656 178.796875 54.007812 185.09375 59.269531 C 189.105469 62.601562 192.210938 67.039062 193.972656 72.214844 " fill-opacity="1" fill-rule="nonzero"/><path fill="#a67a64" d="M 193.972656 72.214844 L 171.59375 110.066406 C 171.59375 110.09375 171.535156 110.09375 171.507812 110.09375 C 155.976562 112.792969 141.15625 102.492188 138.1875 87.035156 C 150.0625 93.621094 164.25 94.613281 175.714844 75.082031 C 179.402344 68.800781 182.507812 63.59375 185.09375 59.269531 C 189.105469 62.601562 192.210938 67.039062 193.972656 72.214844 " fill-opacity="1" fill-rule="nonzero"/><path fill="#e1b49a" d="M 288.25 104.058594 C 285.253906 104.585938 282.285156 104.640625 279.425781 104.253906 L 277.71875 101.828125 L 255.039062 69.351562 C 257.457031 58.167969 266.449219 49.023438 278.378906 46.957031 C 281.488281 46.40625 284.59375 46.40625 287.535156 46.816406 C 299.578125 48.609375 309.640625 57.917969 311.8125 70.5625 C 314.535156 86.320312 303.976562 101.332031 288.25 104.058594 " fill-opacity="1" fill-rule="nonzero"/><path fill="#a67a64" d="M 288.25 104.058594 C 285.253906 104.585938 282.285156 104.640625 279.425781 104.253906 L 277.71875 101.828125 C 287.261719 95.851562 298.425781 82.960938 291.027344 56.707031 C 289.957031 52.90625 288.773438 49.628906 287.535156 46.816406 C 299.578125 48.609375 309.640625 57.917969 311.8125 70.5625 C 314.535156 86.320312 303.976562 101.332031 288.25 104.058594 " fill-opacity="1" fill-rule="nonzero"/><path fill="#e1b49a" d="M 283.328125 129.597656 C 283.328125 156.457031 255.53125 179.785156 238.761719 191.410156 C 231.253906 196.617188 221.355469 196.617188 213.851562 191.410156 C 207.363281 186.921875 199.222656 180.667969 191.71875 173.148438 C 179.757812 161.21875 169.308594 146.070312 169.308594 129.597656 C 169.308594 91.113281 194.824219 59.902344 226.304688 59.902344 C 231.035156 59.902344 235.597656 60.589844 239.972656 61.941406 C 264.851562 69.40625 283.328125 96.871094 283.328125 129.597656 " fill-opacity="1" fill-rule="nonzero"/><path fill="#a67a64" d="M 283.328125 129.597656 C 283.328125 156.457031 255.53125 179.785156 238.761719 191.410156 C 231.253906 196.617188 221.355469 196.617188 213.851562 191.410156 C 207.363281 186.921875 199.222656 180.667969 191.71875 173.148438 C 220.285156 162.902344 253.5 140.175781 243.738281 90.507812 C 241.566406 79.488281 240.382812 70.011719 239.972656 61.941406 C 264.851562 69.40625 283.328125 96.871094 283.328125 129.597656 " fill-opacity="1" fill-rule="nonzero"/><path fill="#000000" d="M 198.609375 144.859375 C 198.609375 147.433594 196.53125 149.519531 193.960938 149.519531 C 191.394531 149.519531 189.3125 147.433594 189.3125 144.859375 C 189.3125 142.289062 191.394531 140.203125 193.960938 140.203125 C 196.53125 140.203125 198.609375 142.289062 198.609375 144.859375 " fill-opacity="1" fill-rule="nonzero"/><path fill="#000000" d="M 193.960938 141.578125 C 192.15625 141.578125 190.6875 143.050781 190.6875 144.859375 C 190.6875 146.667969 192.15625 148.140625 193.960938 148.140625 C 195.765625 148.140625 197.234375 146.667969 197.234375 144.859375 C 197.234375 143.050781 195.765625 141.578125 193.960938 141.578125 Z M 193.960938 150.894531 C 190.640625 150.894531 187.9375 148.1875 187.9375 144.859375 C 187.9375 141.53125 190.640625 138.824219 193.960938 138.824219 C 197.28125 138.824219 199.984375 141.53125 199.984375 144.859375 C 199.984375 148.1875 197.28125 150.894531 193.960938 150.894531 " fill-opacity="1" fill-rule="nonzero"/><path fill="#000000" d="M 259.6875 144.859375 C 259.6875 147.433594 257.605469 149.519531 255.039062 149.519531 C 252.472656 149.519531 250.390625 147.433594 250.390625 144.859375 C 250.390625 142.289062 252.472656 140.203125 255.039062 140.203125 C 257.605469 140.203125 259.6875 142.289062 259.6875 144.859375 " fill-opacity="1" fill-rule="nonzero"/><path fill="#000000" d="M 255.039062 141.578125 C 253.234375 141.578125 251.765625 143.050781 251.765625 144.859375 C 251.765625 146.667969 253.234375 148.140625 255.039062 148.140625 C 256.84375 148.140625 258.3125 146.667969 258.3125 144.859375 C 258.3125 143.050781 256.84375 141.578125 255.039062 141.578125 Z M 255.039062 150.894531 C 251.71875 150.894531 249.015625 148.1875 249.015625 144.859375 C 249.015625 141.53125 251.71875 138.824219 255.039062 138.824219 C 258.359375 138.824219 261.0625 141.53125 261.0625 144.859375 C 261.0625 148.1875 258.359375 150.894531 255.039062 150.894531 " fill-opacity="1" fill-rule="nonzero"/><path fill="#000000" d="M 240.78125 187.554688 C 240.78125 195.558594 234.304688 202.046875 226.316406 202.046875 C 218.328125 202.046875 211.851562 195.558594 211.851562 187.554688 C 211.851562 179.554688 218.328125 173.066406 226.316406 173.066406 C 234.304688 173.066406 240.78125 179.554688 240.78125 187.554688 " fill-opacity="1" fill-rule="nonzero"/><g clip-path="url(#5a9fe61011)"><path fill="#000000" d="M 226.316406 174.441406 C 219.101562 174.441406 213.226562 180.324219 213.226562 187.554688 C 213.226562 194.789062 219.101562 200.671875 226.316406 200.671875 C 233.535156 200.671875 239.40625 194.789062 239.40625 187.554688 C 239.40625 180.324219 233.535156 174.441406 226.316406 174.441406 Z M 226.316406 203.425781 C 217.585938 203.425781 210.476562 196.308594 210.476562 187.554688 C 210.476562 178.804688 217.585938 171.6875 226.316406 171.6875 C 235.050781 171.6875 242.15625 178.804688 242.15625 187.554688 C 242.15625 196.308594 235.050781 203.425781 226.316406 203.425781 " fill-opacity="1" fill-rule="nonzero"/></g><path fill="#ffe3e6" d="M 183.800781 80.425781 L 172.308594 99.875 C 172.28125 99.902344 172.28125 99.902344 172.25 99.902344 C 164.882812 101.195312 157.816406 96.761719 155.589844 89.820312 C 155.371094 89.15625 155.207031 88.46875 155.066406 87.753906 C 153.664062 79.652344 159.082031 71.941406 167.191406 70.535156 C 170.820312 69.902344 174.339844 70.644531 177.285156 72.410156 C 180.28125 74.171875 182.644531 76.980469 183.800781 80.425781 " fill-opacity="1" fill-rule="nonzero"/><path fill="#ffbcd0" d="M 183.800781 80.425781 L 172.308594 99.875 C 172.28125 99.902344 172.28125 99.902344 172.25 99.902344 C 164.882812 101.195312 157.816406 96.761719 155.589844 89.820312 C 163.316406 88.6875 172.96875 84.667969 177.285156 72.410156 C 180.28125 74.171875 182.644531 76.980469 183.800781 80.425781 " fill-opacity="1" fill-rule="nonzero"/><path fill="#ffe3e6" d="M 292.871094 84.0625 C 291.46875 92.1875 284.539062 97.835938 276.457031 96.429688 L 273.074219 91.003906 L 264.167969 76.734375 C 266.449219 69.902344 273.433594 65.605469 280.746094 66.84375 C 281.046875 66.898438 281.324219 66.953125 281.625 67.039062 C 289.242188 68.828125 294.21875 76.265625 292.871094 84.0625 " fill-opacity="1" fill-rule="nonzero"/><path fill="#ffbcd0" d="M 292.871094 84.0625 C 291.46875 92.1875 284.539062 97.835938 276.457031 96.429688 L 273.074219 91.003906 C 280.332031 89.351562 288.636719 84.832031 283.632812 72.410156 C 282.78125 70.316406 282.121094 68.523438 281.625 67.039062 C 289.242188 68.828125 294.21875 76.265625 292.871094 84.0625 " fill-opacity="1" fill-rule="nonzero"/><path fill="#000000" d="M 177.75 158.726562 C 176.832031 158.726562 175.9375 158.269531 175.417969 157.433594 C 169.542969 148.023438 166.566406 138.65625 166.566406 129.59375 C 166.566406 89.644531 193.371094 57.144531 226.316406 57.144531 C 229.179688 57.144531 232.050781 57.390625 234.847656 57.875 C 236.34375 58.136719 237.34375 59.5625 237.085938 61.0625 C 236.828125 62.558594 235.410156 63.558594 233.90625 63.304688 C 231.421875 62.871094 228.867188 62.652344 226.316406 62.652344 C 196.402344 62.652344 172.066406 92.679688 172.066406 129.59375 C 172.066406 137.609375 174.761719 145.992188 180.078125 154.511719 C 180.882812 155.800781 180.492188 157.5 179.207031 158.304688 C 178.753906 158.59375 178.25 158.726562 177.75 158.726562 " fill-opacity="1" fill-rule="nonzero"/><path fill="#000000" d="M 226.316406 198.035156 C 221.402344 198.035156 216.488281 196.582031 212.296875 193.675781 C 202.636719 186.972656 194.234375 179.878906 187.328125 172.585938 C 186.28125 171.484375 186.328125 169.738281 187.429688 168.691406 C 188.527344 167.644531 190.269531 167.6875 191.3125 168.792969 C 199.597656 177.535156 209 184.6875 215.425781 189.144531 C 222.039062 193.734375 230.589844 193.734375 237.207031 189.144531 C 245.945312 183.085938 258.304688 173.386719 267.578125 161.566406 C 268.519531 160.371094 270.253906 160.171875 271.441406 161.105469 C 272.632812 162.046875 272.839844 163.777344 271.902344 164.972656 C 262.203125 177.328125 249.382812 187.402344 240.339844 193.675781 C 236.144531 196.582031 231.230469 198.035156 226.316406 198.035156 " fill-opacity="1" fill-rule="nonzero"/><path fill="#000000" d="M 275.164062 158.269531 C 274.675781 158.269531 274.175781 158.136719 273.726562 157.859375 C 272.433594 157.0625 272.03125 155.367188 272.828125 154.070312 C 277.964844 145.707031 280.570312 137.46875 280.570312 129.59375 C 280.570312 100.261719 264.671875 73.890625 241.90625 65.464844 C 240.484375 64.9375 239.753906 63.351562 240.28125 61.925781 C 240.808594 60.5 242.390625 59.769531 243.8125 60.292969 C 269.089844 69.652344 286.066406 97.5 286.066406 129.59375 C 286.066406 138.503906 283.1875 147.710938 277.507812 156.957031 C 276.988281 157.804688 276.089844 158.269531 275.164062 158.269531 " fill-opacity="1" fill-rule="nonzero"/><path fill="#000000" d="M 169.71875 102.867188 C 167.75 102.867188 165.792969 102.539062 163.933594 101.890625 C 162.5 101.390625 161.742188 99.820312 162.242188 98.382812 C 162.742188 96.949219 164.308594 96.1875 165.742188 96.6875 C 167.644531 97.351562 169.699219 97.527344 171.695312 97.199219 C 172.523438 97.007812 173.421875 97.210938 174.109375 97.8125 C 175.25 98.8125 175.367188 100.554688 174.367188 101.699219 C 173.949219 102.179688 173.351562 102.5 172.722656 102.609375 C 171.730469 102.78125 170.722656 102.867188 169.71875 102.867188 " fill-opacity="1" fill-rule="nonzero"/><path fill="#000000" d="M 158.460938 97.703125 C 157.691406 97.703125 156.921875 97.378906 156.378906 96.75 C 154.292969 94.335938 152.902344 91.390625 152.355469 88.226562 C 151.554688 83.578125 152.605469 78.902344 155.316406 75.050781 C 158.027344 71.195312 162.074219 68.632812 166.710938 67.828125 C 175.328125 66.34375 183.601562 71.265625 186.390625 79.546875 C 186.878906 80.988281 186.105469 82.550781 184.667969 83.035156 C 183.222656 83.523438 181.667969 82.75 181.183594 81.308594 C 179.261719 75.617188 173.5625 72.222656 167.648438 73.257812 C 164.457031 73.8125 161.675781 75.574219 159.808594 78.222656 C 157.945312 80.875 157.222656 84.089844 157.773438 87.285156 C 158.148438 89.460938 159.105469 91.488281 160.539062 93.148438 C 161.53125 94.296875 161.40625 96.035156 160.257812 97.03125 C 159.738281 97.484375 159.097656 97.703125 158.460938 97.703125 " fill-opacity="1" fill-rule="nonzero"/><path fill="#000000" d="M 278.957031 99.394531 C 277.976562 99.394531 276.984375 99.304688 275.980469 99.132812 C 274.488281 98.871094 273.484375 97.445312 273.742188 95.945312 C 274.003906 94.449219 275.421875 93.449219 276.925781 93.703125 C 280.8125 94.371094 284.535156 93.058594 287.140625 90.078125 C 288.140625 88.933594 289.878906 88.824219 291.019531 89.824219 C 292.164062 90.828125 292.277344 92.566406 291.273438 93.710938 C 288.042969 97.402344 283.667969 99.394531 278.957031 99.394531 " fill-opacity="1" fill-rule="nonzero"/><path fill="#000000" d="M 292.882812 86.8125 C 292.726562 86.8125 292.566406 86.800781 292.40625 86.773438 C 290.910156 86.511719 289.910156 85.085938 290.167969 83.585938 C 290.722656 80.398438 290 77.183594 288.132812 74.542969 C 286.265625 71.890625 283.476562 70.125 280.28125 69.570312 C 274.363281 68.554688 268.671875 71.929688 266.765625 77.609375 C 266.28125 79.050781 264.730469 79.824219 263.28125 79.34375 C 261.84375 78.855469 261.066406 77.296875 261.550781 75.855469 C 264.328125 67.578125 272.605469 62.660156 281.214844 64.140625 C 285.859375 64.949219 289.910156 67.511719 292.625 71.363281 C 295.339844 75.214844 296.394531 79.890625 295.585938 84.53125 C 295.355469 85.871094 294.191406 86.8125 292.882812 86.8125 " fill-opacity="1" fill-rule="nonzero"/><path fill="#000000" d="M 166.527344 113.277344 C 153.363281 113.277344 141.355469 105.070312 136.773438 92.296875 C 136.152344 90.570312 135.679688 88.765625 135.363281 86.941406 C 135.105469 85.441406 136.105469 84.015625 137.601562 83.757812 C 139.113281 83.5 140.523438 84.503906 140.78125 86 C 141.042969 87.511719 141.433594 89.003906 141.949219 90.429688 C 146.242188 102.394531 158.425781 109.523438 170.941406 107.394531 C 171.847656 107.171875 172.84375 107.414062 173.550781 108.121094 C 174.625 109.199219 174.625 110.941406 173.550781 112.015625 C 173.144531 112.421875 172.574219 112.703125 171.992188 112.804688 C 170.160156 113.121094 168.332031 113.277344 166.527344 113.277344 " fill-opacity="1" fill-rule="nonzero"/><path fill="#000000" d="M 137.945312 80.109375 C 137.8125 80.109375 137.679688 80.101562 137.542969 80.082031 C 136.042969 79.863281 135 78.464844 135.21875 76.960938 C 136.867188 65.605469 144.53125 56.003906 155.21875 51.902344 C 157.128906 51.167969 159.136719 50.613281 161.175781 50.261719 C 162.679688 50.007812 164.097656 51.007812 164.355469 52.507812 C 164.613281 54.007812 163.609375 55.433594 162.113281 55.691406 C 160.425781 55.984375 158.765625 56.4375 157.183594 57.046875 C 148.351562 60.4375 142.023438 68.371094 140.660156 77.75 C 140.460938 79.121094 139.285156 80.109375 137.945312 80.109375 " fill-opacity="1" fill-rule="nonzero"/><path fill="#000000" d="M 193.960938 74.964844 C 192.8125 74.964844 191.742188 74.238281 191.355469 73.089844 C 188.644531 65.042969 182.148438 58.796875 173.984375 56.375 C 172.527344 55.941406 171.699219 54.410156 172.128906 52.949219 C 172.558594 51.492188 174.09375 50.65625 175.546875 51.089844 C 185.421875 54.019531 193.28125 61.585938 196.566406 71.328125 C 197.050781 72.769531 196.28125 74.332031 194.84375 74.816406 C 194.550781 74.917969 194.253906 74.964844 193.960938 74.964844 " fill-opacity="1" fill-rule="nonzero"/><g clip-path="url(#c8e73cc864)"><path fill="#000000" d="M 255.042969 72.105469 C 254.847656 72.105469 254.652344 72.089844 254.457031 72.042969 C 252.972656 71.722656 252.03125 70.253906 252.351562 68.769531 C 255.09375 56.085938 265.128906 46.457031 277.917969 44.238281 C 280.179688 43.847656 282.472656 43.703125 284.734375 43.796875 C 286.25 43.859375 287.425781 45.144531 287.359375 46.667969 C 287.296875 48.1875 286.070312 49.429688 284.496094 49.300781 C 282.628906 49.21875 280.726562 49.34375 278.855469 49.664062 C 268.285156 51.496094 259.992188 59.453125 257.726562 69.933594 C 257.449219 71.222656 256.308594 72.105469 255.042969 72.105469 " fill-opacity="1" fill-rule="nonzero"/></g><g clip-path="url(#e085772a7b)"><path fill="#000000" d="M 308.730469 92.09375 C 308.289062 92.09375 307.839844 91.984375 307.421875 91.757812 C 306.085938 91.027344 305.59375 89.359375 306.320312 88.019531 C 309.160156 82.785156 310.125 76.90625 309.109375 71.023438 C 307.695312 62.832031 302.410156 55.726562 294.976562 52.015625 C 293.613281 51.335938 293.0625 49.683594 293.742188 48.320312 C 294.414062 46.960938 296.0625 46.402344 297.425781 47.082031 C 306.421875 51.574219 312.8125 60.171875 314.527344 70.082031 C 315.757812 77.203125 314.589844 84.316406 311.148438 90.652344 C 310.652344 91.574219 309.707031 92.09375 308.730469 92.09375 " fill-opacity="1" fill-rule="nonzero"/></g><path fill="#000000" d="M 283.222656 107.257812 C 281.835938 107.257812 280.445312 107.164062 279.066406 106.984375 C 277.558594 106.789062 276.496094 105.40625 276.695312 103.898438 C 276.886719 102.390625 278.261719 101.3125 279.773438 101.523438 C 282.4375 101.867188 285.136719 101.8125 287.796875 101.355469 C 293.492188 100.363281 298.574219 97.59375 302.5 93.351562 C 303.53125 92.230469 305.269531 92.167969 306.386719 93.203125 C 307.5 94.234375 307.566406 95.980469 306.535156 97.09375 C 301.785156 102.234375 295.628906 105.585938 288.734375 106.78125 C 286.90625 107.097656 285.0625 107.257812 283.222656 107.257812 " fill-opacity="1" fill-rule="nonzero"/><path fill="#000000" d="M 102.082031 154.066406 C 101.476562 154.066406 100.867188 153.867188 100.359375 153.457031 C 99.175781 152.503906 98.992188 150.765625 99.941406 149.582031 L 113.25 133.039062 C 114.203125 131.851562 115.929688 131.664062 117.113281 132.621094 C 118.296875 133.574219 118.484375 135.308594 117.53125 136.492188 L 104.226562 153.039062 C 103.683594 153.714844 102.886719 154.066406 102.082031 154.066406 " fill-opacity="1" fill-rule="nonzero"/><path fill="#000000" d="M 124.6875 164.933594 C 124.285156 164.933594 123.882812 164.847656 123.5 164.660156 L 100.894531 153.792969 C 99.523438 153.136719 98.949219 151.492188 99.605469 150.117188 C 100.265625 148.746094 101.910156 148.164062 103.273438 148.828125 L 125.878906 159.695312 C 127.246094 160.351562 127.824219 162 127.167969 163.371094 C 126.695312 164.359375 125.710938 164.933594 124.6875 164.933594 " fill-opacity="1" fill-rule="nonzero"/><path fill="#000000" d="M 81.566406 154.066406 C 80.765625 154.066406 79.96875 153.714844 79.425781 153.039062 L 66.117188 136.492188 C 65.167969 135.308594 65.351562 133.574219 66.535156 132.621094 C 67.71875 131.664062 69.449219 131.851562 70.402344 133.039062 L 83.707031 149.582031 C 84.660156 150.765625 84.472656 152.503906 83.289062 153.457031 C 82.78125 153.867188 82.171875 154.066406 81.566406 154.066406 " fill-opacity="1" fill-rule="nonzero"/><path fill="#000000" d="M 58.964844 164.933594 C 57.9375 164.933594 56.957031 164.359375 56.484375 163.371094 C 55.824219 162 56.402344 160.351562 57.773438 159.695312 L 80.375 148.828125 C 81.742188 148.164062 83.386719 148.746094 84.042969 150.117188 C 84.703125 151.492188 84.125 153.136719 82.753906 153.792969 L 60.152344 164.660156 C 59.765625 164.847656 59.363281 164.933594 58.964844 164.933594 " fill-opacity="1" fill-rule="nonzero"/><path fill="#ededed" d="M 58.972656 33.917969 L 36.59375 71.769531 C 36.59375 71.796875 36.535156 71.796875 36.507812 71.796875 C 20.976562 74.496094 6.15625 64.191406 3.1875 48.738281 C 3.160156 48.546875 3.105469 48.351562 3.078125 48.160156 C 0.355469 32.402344 10.914062 17.417969 26.640625 14.691406 C 35.328125 13.175781 43.796875 15.710938 50.09375 20.972656 C 54.105469 24.304688 57.210938 28.738281 58.972656 33.917969 " fill-opacity="1" fill-rule="nonzero"/><path fill="#d8d6d6" d="M 58.972656 33.917969 L 36.59375 71.769531 C 36.59375 71.796875 36.535156 71.796875 36.507812 71.796875 C 20.976562 74.496094 6.15625 64.191406 3.1875 48.738281 C 15.0625 55.320312 29.25 56.3125 40.714844 36.78125 C 44.402344 30.5 47.507812 25.296875 50.09375 20.972656 C 54.105469 24.304688 57.210938 28.738281 58.972656 33.917969 " fill-opacity="1" fill-rule="nonzero"/><path fill="#ededed" d="M 153.25 65.761719 C 150.253906 66.285156 147.285156 66.339844 144.425781 65.957031 L 142.71875 63.53125 L 120.039062 31.054688 C 122.457031 19.867188 131.449219 10.722656 143.378906 8.65625 C 146.488281 8.105469 149.59375 8.105469 152.535156 8.519531 C 164.578125 10.308594 174.640625 19.621094 176.8125 32.265625 C 179.535156 48.023438 168.976562 63.035156 153.25 65.761719 " fill-opacity="1" fill-rule="nonzero"/><path fill="#d8d6d6" d="M 153.25 65.761719 C 150.253906 66.285156 147.285156 66.339844 144.425781 65.957031 L 142.71875 63.53125 C 152.261719 57.554688 163.425781 44.660156 156.027344 18.410156 C 154.957031 14.605469 153.773438 11.328125 152.535156 8.519531 C 164.578125 10.308594 174.640625 19.621094 176.8125 32.265625 C 179.535156 48.023438 168.976562 63.035156 153.25 65.761719 " fill-opacity="1" fill-rule="nonzero"/><path fill="#ededed" d="M 148.328125 91.296875 C 148.328125 118.15625 120.53125 141.488281 103.761719 153.113281 C 96.253906 158.320312 86.355469 158.320312 78.851562 153.113281 C 72.363281 148.625 64.222656 142.371094 56.71875 134.851562 C 44.757812 122.921875 34.308594 107.769531 34.308594 91.296875 C 34.308594 52.816406 59.824219 21.605469 91.304688 21.605469 C 96.035156 21.605469 100.597656 22.292969 104.972656 23.644531 C 129.855469 31.109375 148.328125 58.574219 148.328125 91.296875 " fill-opacity="1" fill-rule="nonzero"/><path fill="#d8d6d6" d="M 148.328125 91.296875 C 148.328125 118.15625 120.53125 141.488281 103.761719 153.113281 C 96.253906 158.320312 86.355469 158.320312 78.851562 153.113281 C 72.363281 148.625 64.222656 142.371094 56.71875 134.851562 C 85.285156 124.601562 118.5 101.875 108.738281 52.207031 C 106.566406 41.191406 105.382812 31.714844 104.972656 23.644531 C 129.855469 31.109375 148.328125 58.574219 148.328125 91.296875 " fill-opacity="1" fill-rule="nonzero"/><path fill="#000000" d="M 63.609375 106.5625 C 63.609375 109.132812 61.53125 111.21875 58.960938 111.21875 C 56.394531 111.21875 54.3125 109.132812 54.3125 106.5625 C 54.3125 103.988281 56.394531 101.902344 58.960938 101.902344 C 61.53125 101.902344 63.609375 103.988281 63.609375 106.5625 " fill-opacity="1" fill-rule="nonzero"/><path fill="#000000" d="M 58.960938 103.28125 C 57.15625 103.28125 55.6875 104.753906 55.6875 106.558594 C 55.6875 108.371094 57.15625 109.84375 58.960938 109.84375 C 60.765625 109.84375 62.234375 108.371094 62.234375 106.558594 C 62.234375 104.753906 60.765625 103.28125 58.960938 103.28125 Z M 58.960938 112.597656 C 55.640625 112.597656 52.9375 109.886719 52.9375 106.558594 C 52.9375 103.230469 55.640625 100.527344 58.960938 100.527344 C 62.28125 100.527344 64.984375 103.230469 64.984375 106.558594 C 64.984375 109.886719 62.28125 112.597656 58.960938 112.597656 " fill-opacity="1" fill-rule="nonzero"/><path fill="#000000" d="M 124.6875 106.5625 C 124.6875 109.132812 122.605469 111.21875 120.039062 111.21875 C 117.472656 111.21875 115.390625 109.132812 115.390625 106.5625 C 115.390625 103.988281 117.472656 101.902344 120.039062 101.902344 C 122.605469 101.902344 124.6875 103.988281 124.6875 106.5625 " fill-opacity="1" fill-rule="nonzero"/><path fill="#000000" d="M 120.039062 103.28125 C 118.234375 103.28125 116.765625 104.753906 116.765625 106.558594 C 116.765625 108.371094 118.234375 109.84375 120.039062 109.84375 C 121.84375 109.84375 123.3125 108.371094 123.3125 106.558594 C 123.3125 104.753906 121.84375 103.28125 120.039062 103.28125 Z M 120.039062 112.597656 C 116.71875 112.597656 114.015625 109.886719 114.015625 106.558594 C 114.015625 103.230469 116.71875 100.527344 120.039062 100.527344 C 123.359375 100.527344 126.0625 103.230469 126.0625 106.558594 C 126.0625 109.886719 123.359375 112.597656 120.039062 112.597656 " fill-opacity="1" fill-rule="nonzero"/><path fill="#000000" d="M 105.78125 149.257812 C 105.78125 157.261719 99.304688 163.75 91.316406 163.75 C 83.328125 163.75 76.851562 157.261719 76.851562 149.257812 C 76.851562 141.253906 83.328125 134.765625 91.316406 134.765625 C 99.304688 134.765625 105.78125 141.253906 105.78125 149.257812 " fill-opacity="1" fill-rule="nonzero"/><g clip-path="url(#7e439f2872)"><path fill="#000000" d="M 91.316406 136.144531 C 84.101562 136.144531 78.226562 142.027344 78.226562 149.257812 C 78.226562 156.488281 84.101562 162.371094 91.316406 162.371094 C 98.535156 162.371094 104.40625 156.488281 104.40625 149.257812 C 104.40625 142.027344 98.535156 136.144531 91.316406 136.144531 Z M 91.316406 165.125 C 82.585938 165.125 75.476562 158.007812 75.476562 149.257812 C 75.476562 140.507812 82.585938 133.390625 91.316406 133.390625 C 100.050781 133.390625 107.15625 140.507812 107.15625 149.257812 C 107.15625 158.007812 100.050781 165.125 91.316406 165.125 " fill-opacity="1" fill-rule="nonzero"/></g><path fill="#ffe3e6" d="M 48.800781 42.125 L 37.308594 61.574219 C 37.28125 61.601562 37.28125 61.601562 37.25 61.601562 C 29.882812 62.898438 22.816406 58.460938 20.589844 51.519531 C 20.371094 50.859375 20.207031 50.171875 20.066406 49.453125 C 18.664062 41.355469 24.082031 33.640625 32.191406 32.238281 C 35.820312 31.605469 39.339844 32.347656 42.285156 34.109375 C 45.28125 35.875 47.644531 38.683594 48.800781 42.125 " fill-opacity="1" fill-rule="nonzero"/><path fill="#ffbcd0" d="M 48.800781 42.125 L 37.308594 61.574219 C 37.28125 61.601562 37.28125 61.601562 37.25 61.601562 C 29.882812 62.898438 22.816406 58.460938 20.589844 51.519531 C 28.316406 50.390625 37.96875 46.367188 42.285156 34.109375 C 45.28125 35.875 47.644531 38.683594 48.800781 42.125 " fill-opacity="1" fill-rule="nonzero"/><path fill="#ffe3e6" d="M 157.871094 45.761719 C 156.46875 53.890625 149.539062 59.535156 141.457031 58.132812 L 138.074219 52.703125 L 129.167969 38.4375 C 131.449219 31.605469 138.433594 27.308594 145.746094 28.546875 C 146.046875 28.601562 146.324219 28.65625 146.625 28.738281 C 154.242188 30.527344 159.21875 37.96875 157.871094 45.761719 " fill-opacity="1" fill-rule="nonzero"/><path fill="#ffbcd0" d="M 157.871094 45.761719 C 156.46875 53.890625 149.539062 59.535156 141.457031 58.132812 L 138.074219 52.703125 C 145.332031 51.050781 153.636719 46.535156 148.632812 34.109375 C 147.78125 32.015625 147.121094 30.226562 146.625 28.738281 C 154.242188 30.527344 159.21875 37.96875 157.871094 45.761719 " fill-opacity="1" fill-rule="nonzero"/><path fill="#000000" d="M 42.75 120.425781 C 41.832031 120.425781 40.9375 119.972656 40.417969 119.132812 C 34.542969 109.726562 31.566406 100.359375 31.566406 91.292969 C 31.566406 51.34375 58.371094 18.847656 91.316406 18.847656 C 94.179688 18.847656 97.050781 19.09375 99.847656 19.578125 C 101.34375 19.839844 102.34375 21.265625 102.085938 22.761719 C 101.828125 24.261719 100.410156 25.261719 98.90625 25.003906 C 96.421875 24.574219 93.867188 24.355469 91.316406 24.355469 C 61.402344 24.355469 37.066406 54.382812 37.066406 91.292969 C 37.066406 99.308594 39.761719 107.695312 45.078125 116.210938 C 45.882812 117.5 45.492188 119.203125 44.207031 120.007812 C 43.753906 120.292969 43.25 120.425781 42.75 120.425781 " fill-opacity="1" fill-rule="nonzero"/><path fill="#000000" d="M 91.316406 159.738281 C 86.402344 159.738281 81.488281 158.285156 77.296875 155.375 C 67.636719 148.675781 59.234375 141.582031 52.328125 134.289062 C 51.28125 133.183594 51.328125 131.441406 52.429688 130.390625 C 53.527344 129.34375 55.269531 129.390625 56.3125 130.496094 C 64.597656 139.238281 74 146.386719 80.425781 150.84375 C 87.039062 155.433594 95.589844 155.433594 102.207031 150.84375 C 110.945312 144.785156 123.304688 135.085938 132.578125 123.269531 C 133.519531 122.070312 135.253906 121.871094 136.441406 122.804688 C 137.632812 123.746094 137.839844 125.480469 136.902344 126.675781 C 127.203125 139.03125 114.382812 149.101562 105.339844 155.375 C 101.144531 158.285156 96.230469 159.738281 91.316406 159.738281 " fill-opacity="1" fill-rule="nonzero"/><path fill="#000000" d="M 140.164062 119.972656 C 139.675781 119.972656 139.175781 119.839844 138.726562 119.5625 C 137.433594 118.765625 137.03125 117.066406 137.828125 115.769531 C 142.964844 107.40625 145.570312 99.171875 145.570312 91.292969 C 145.570312 61.964844 129.671875 35.59375 106.90625 27.167969 C 105.484375 26.640625 104.753906 25.054688 105.28125 23.625 C 105.808594 22.203125 107.390625 21.472656 108.8125 21.996094 C 134.089844 31.351562 151.066406 59.199219 151.066406 91.292969 C 151.066406 100.207031 148.1875 109.414062 142.507812 118.660156 C 141.988281 119.503906 141.089844 119.972656 140.164062 119.972656 " fill-opacity="1" fill-rule="nonzero"/><path fill="#000000" d="M 34.71875 64.570312 C 32.75 64.570312 30.792969 64.242188 28.933594 63.59375 C 27.5 63.09375 26.742188 61.523438 27.242188 60.085938 C 27.742188 58.652344 29.308594 57.886719 30.742188 58.390625 C 32.644531 59.054688 34.699219 59.226562 36.695312 58.898438 C 37.523438 58.710938 38.421875 58.914062 39.109375 59.511719 C 40.25 60.515625 40.367188 62.257812 39.367188 63.398438 C 38.949219 63.882812 38.351562 64.203125 37.722656 64.3125 C 36.730469 64.484375 35.722656 64.570312 34.71875 64.570312 " fill-opacity="1" fill-rule="nonzero"/><path fill="#000000" d="M 23.460938 59.40625 C 22.691406 59.40625 21.921875 59.082031 21.378906 58.453125 C 19.292969 56.039062 17.902344 53.089844 17.355469 49.929688 C 16.554688 45.28125 17.605469 40.601562 20.316406 36.75 C 23.027344 32.898438 27.074219 30.335938 31.710938 29.53125 C 40.328125 28.046875 48.601562 32.964844 51.390625 41.246094 C 51.878906 42.6875 51.105469 44.25 49.667969 44.738281 C 48.222656 45.226562 46.667969 44.449219 46.183594 43.011719 C 44.261719 37.320312 38.5625 33.925781 32.648438 34.960938 C 29.457031 35.511719 26.675781 37.277344 24.808594 39.925781 C 22.945312 42.574219 22.222656 45.792969 22.773438 48.984375 C 23.148438 51.164062 24.105469 53.191406 25.539062 54.847656 C 26.53125 56 26.40625 57.738281 25.257812 58.730469 C 24.738281 59.183594 24.097656 59.40625 23.460938 59.40625 " fill-opacity="1" fill-rule="nonzero"/><path fill="#000000" d="M 143.957031 61.09375 C 142.976562 61.09375 141.984375 61.007812 140.980469 60.832031 C 139.488281 60.574219 138.484375 59.144531 138.742188 57.648438 C 139.003906 56.148438 140.421875 55.148438 141.925781 55.40625 C 145.8125 56.074219 149.535156 54.757812 152.140625 51.78125 C 153.140625 50.636719 154.878906 50.523438 156.019531 51.523438 C 157.164062 52.527344 157.277344 54.269531 156.273438 55.414062 C 153.042969 59.101562 148.667969 61.09375 143.957031 61.09375 " fill-opacity="1" fill-rule="nonzero"/><path fill="#000000" d="M 157.882812 48.515625 C 157.726562 48.515625 157.566406 48.5 157.40625 48.476562 C 155.910156 48.214844 154.910156 46.789062 155.167969 45.285156 C 155.722656 42.101562 155 38.886719 153.132812 36.242188 C 151.265625 33.59375 148.476562 31.828125 145.28125 31.269531 C 139.363281 30.257812 133.671875 33.628906 131.765625 39.308594 C 131.28125 40.75 129.730469 41.527344 128.28125 41.042969 C 126.84375 40.558594 126.066406 38.996094 126.550781 37.554688 C 129.332031 29.28125 137.605469 24.359375 146.214844 25.84375 C 150.859375 26.648438 154.910156 29.214844 157.625 33.0625 C 160.339844 36.914062 161.394531 41.589844 160.585938 46.234375 C 160.355469 47.570312 159.191406 48.515625 157.882812 48.515625 " fill-opacity="1" fill-rule="nonzero"/><path fill="#000000" d="M 31.527344 74.980469 C 18.363281 74.980469 6.355469 66.769531 1.773438 53.996094 C 1.152344 52.269531 0.679688 50.46875 0.363281 48.644531 C 0.105469 47.144531 1.105469 45.71875 2.601562 45.457031 C 4.113281 45.203125 5.523438 46.203125 5.78125 47.703125 C 6.042969 49.214844 6.433594 50.703125 6.949219 52.132812 C 11.242188 64.097656 23.425781 71.226562 35.941406 69.097656 C 36.847656 68.875 37.84375 69.117188 38.550781 69.824219 C 39.625 70.898438 39.625 72.644531 38.550781 73.71875 C 38.144531 74.125 37.574219 74.40625 36.992188 74.507812 C 35.160156 74.824219 33.332031 74.980469 31.527344 74.980469 " fill-opacity="1" fill-rule="nonzero"/><path fill="#000000" d="M 2.945312 41.8125 C 2.8125 41.8125 2.679688 41.804688 2.542969 41.78125 C 1.042969 41.5625 0 40.164062 0.21875 38.660156 C 1.867188 27.304688 9.53125 17.703125 20.21875 13.605469 C 22.128906 12.871094 24.136719 12.316406 26.175781 11.964844 C 27.679688 11.707031 29.097656 12.710938 29.355469 14.210938 C 29.613281 15.710938 28.609375 17.132812 27.113281 17.394531 C 25.425781 17.6875 23.765625 18.140625 22.183594 18.75 C 13.351562 22.136719 7.023438 30.070312 5.660156 39.453125 C 5.460938 40.824219 4.285156 41.8125 2.945312 41.8125 " fill-opacity="1" fill-rule="nonzero"/><path fill="#000000" d="M 58.960938 36.664062 C 57.8125 36.664062 56.742188 35.941406 56.355469 34.792969 C 53.644531 26.746094 47.148438 20.496094 38.984375 18.074219 C 37.527344 17.644531 36.699219 16.113281 37.128906 14.652344 C 37.558594 13.195312 39.09375 12.355469 40.546875 12.792969 C 50.421875 15.722656 58.28125 23.289062 61.566406 33.027344 C 62.050781 34.46875 61.28125 36.03125 59.84375 36.519531 C 59.550781 36.621094 59.253906 36.664062 58.960938 36.664062 " fill-opacity="1" fill-rule="nonzero"/><g clip-path="url(#407d5c7b1a)"><path fill="#000000" d="M 120.042969 33.808594 C 119.847656 33.808594 119.652344 33.789062 119.457031 33.746094 C 117.972656 33.421875 117.03125 31.957031 117.351562 30.46875 C 120.09375 17.785156 130.128906 8.15625 142.917969 5.9375 C 145.179688 5.546875 147.472656 5.40625 149.734375 5.496094 C 151.25 5.5625 152.425781 6.847656 152.359375 8.367188 C 152.296875 9.886719 151.070312 11.128906 149.496094 11 C 147.628906 10.921875 145.726562 11.042969 143.855469 11.367188 C 133.285156 13.199219 124.992188 21.15625 122.726562 31.636719 C 122.449219 32.925781 121.308594 33.808594 120.042969 33.808594 " fill-opacity="1" fill-rule="nonzero"/></g><g clip-path="url(#e15a643421)"><path fill="#000000" d="M 173.730469 53.792969 C 173.289062 53.792969 172.839844 53.683594 172.421875 53.460938 C 171.085938 52.730469 170.59375 51.058594 171.320312 49.722656 C 174.160156 44.484375 175.125 38.605469 174.109375 32.722656 C 172.695312 24.53125 167.410156 17.429688 159.976562 13.71875 C 158.613281 13.039062 158.0625 11.386719 158.742188 10.023438 C 159.414062 8.664062 161.0625 8.105469 162.425781 8.785156 C 171.421875 13.273438 177.8125 21.871094 179.527344 31.78125 C 180.757812 38.902344 179.589844 46.015625 176.148438 52.355469 C 175.652344 53.273438 174.707031 53.792969 173.730469 53.792969 " fill-opacity="1" fill-rule="nonzero"/></g><path fill="#000000" d="M 148.222656 68.957031 C 146.835938 68.957031 145.445312 68.867188 144.066406 68.683594 C 142.558594 68.492188 141.496094 67.109375 141.695312 65.601562 C 141.886719 64.089844 143.261719 63.011719 144.773438 63.226562 C 147.4375 63.570312 150.136719 63.511719 152.796875 63.054688 C 158.492188 62.066406 163.574219 59.296875 167.5 55.050781 C 168.53125 53.933594 170.269531 53.867188 171.386719 54.902344 C 172.5 55.9375 172.566406 57.679688 171.535156 58.796875 C 166.785156 63.933594 160.628906 67.285156 153.734375 68.484375 C 151.90625 68.796875 150.0625 68.957031 148.222656 68.957031 " fill-opacity="1" fill-rule="nonzero"/><g fill="#ff9ab8" fill-opacity="1"><g transform="translate(3.222665, 249.517876)"><g><path d="M 19.113281 -12.691406 C 22.761719 -13.769531 25.332031 -17.164062 25.332031 -21.375 C 25.332031 -26.617188 21.425781 -30.832031 16.132812 -30.832031 L 3.03125 -30.832031 L 3.03125 0 L 9.8125 0 L 9.8125 -11.921875 L 12.539062 -11.921875 L 20.144531 0 L 27.746094 0 Z M 15.105469 -17.523438 L 9.8125 -17.523438 L 9.8125 -24.820312 L 15.105469 -24.820312 C 17.265625 -24.820312 18.859375 -23.277344 18.859375 -21.171875 C 18.859375 -19.011719 17.265625 -17.523438 15.105469 -17.523438 Z M 15.105469 -17.523438 "/></g></g></g><g fill="#ff9ab8" fill-opacity="1"><g transform="translate(30.706679, 249.517876)"><g><path d="M 17.726562 0.410156 C 26.515625 0.410156 33.554688 -6.679688 33.554688 -15.414062 C 33.554688 -24.152344 26.515625 -31.242188 17.726562 -31.242188 C 8.992188 -31.242188 1.902344 -24.152344 1.902344 -15.414062 C 1.902344 -6.679688 8.992188 0.410156 17.726562 0.410156 Z M 17.726562 -6.21875 C 12.539062 -6.21875 8.582031 -10.226562 8.582031 -15.414062 C 8.582031 -20.605469 12.539062 -24.613281 17.726562 -24.613281 C 22.96875 -24.613281 26.925781 -20.605469 26.925781 -15.414062 C 26.925781 -10.226562 22.96875 -6.21875 17.726562 -6.21875 Z M 17.726562 -6.21875 "/></g></g></g><g fill="#ff9ab8" fill-opacity="1"><g transform="translate(66.204727, 249.517876)"><g><path d="M 24.820312 -30.832031 L 2.464844 -30.832031 L 2.464844 -24.820312 L 14.285156 -24.820312 L 1.183594 0 L 24.820312 0 L 24.820312 -6.011719 L 11.820312 -6.011719 Z M 24.820312 -30.832031 "/></g></g></g><g fill="#ff9ab8" fill-opacity="1"><g transform="translate(92.507184, 249.517876)"><g><path d="M 22.042969 -30.832031 L -0.257812 -30.832031 L -0.257812 -24.820312 L 7.554688 -24.820312 L 7.554688 0 L 14.285156 0 L 14.285156 -24.820312 L 22.042969 -24.820312 Z M 22.042969 -30.832031 "/></g></g></g><g fill="#ff9ab8" fill-opacity="1"><g transform="translate(114.288905, 249.517876)"><g><path d="M 17.726562 0.410156 C 26.515625 0.410156 33.554688 -6.679688 33.554688 -15.414062 C 33.554688 -24.152344 26.515625 -31.242188 17.726562 -31.242188 C 8.992188 -31.242188 1.902344 -24.152344 1.902344 -15.414062 C 1.902344 -6.679688 8.992188 0.410156 17.726562 0.410156 Z M 17.726562 -6.21875 C 12.539062 -6.21875 8.582031 -10.226562 8.582031 -15.414062 C 8.582031 -20.605469 12.539062 -24.613281 17.726562 -24.613281 C 22.96875 -24.613281 26.925781 -20.605469 26.925781 -15.414062 C 26.925781 -10.226562 22.96875 -6.21875 17.726562 -6.21875 Z M 17.726562 -6.21875 "/></g></g></g><g fill="#ff9ab8" fill-opacity="1"><g transform="translate(149.786953, 249.517876)"><g><path d="M 29.90625 -30.832031 L 20.089844 -9.507812 L 10.378906 -30.832031 L 3.03125 -30.832031 L 3.03125 0 L 9.8125 0 L 9.8125 -18.394531 L 18.140625 0 L 22.042969 0 L 30.417969 -18.34375 L 30.417969 0 L 37.203125 0 L 37.203125 -30.832031 Z M 29.90625 -30.832031 "/></g></g></g><g fill="#ff9ab8" fill-opacity="1"><g transform="translate(190.011215, 249.517876)"><g><path d="M 3.289062 0 L 10.070312 0 L 10.070312 -30.832031 L 3.289062 -30.832031 Z M 3.289062 0 "/></g></g></g><g fill="#ff9ab8" fill-opacity="1"><g transform="translate(203.31655, 249.517876)"><g><path d="M 9.8125 -6.011719 L 9.8125 -30.832031 L 3.03125 -30.832031 L 3.03125 0 L 20.039062 0 L 20.039062 -6.011719 Z M 9.8125 -6.011719 "/></g></g></g><g fill="#ff9ab8" fill-opacity="1"><g transform="translate(223.454374, 249.517876)"><g><path d="M 21.785156 -41.109375 L 15.570312 -41.109375 L 11.046875 -33.453125 L 15.363281 -33.453125 Z M 27.695312 -30.832031 L 20.144531 -30.832031 L 13.566406 -20.398438 L 6.988281 -30.832031 L -0.667969 -30.832031 L 10.175781 -14.492188 L 10.175781 0 L 16.957031 0 L 16.957031 -14.542969 Z M 27.695312 -30.832031 "/></g></g></g><g fill="#ff9ab8" fill-opacity="1"><g transform="translate(250.527408, 249.517876)"><g/></g></g><g fill="#ff9ab8" fill-opacity="1"><g transform="translate(262.856676, 249.517876)"><g><path d="M 22.300781 0 L 31.34375 0 L 16.496094 -17.109375 L 29.804688 -30.832031 L 21.066406 -30.832031 L 10.996094 -19.9375 L 9.8125 -19.9375 L 9.8125 -30.832031 L 3.03125 -30.832031 L 3.03125 0 L 9.8125 0 L 9.8125 -14.078125 L 10.789062 -14.078125 Z M 22.300781 0 "/></g></g></g><g fill="#ff9ab8" fill-opacity="1"><g transform="translate(293.114761, 249.517876)"><g><path d="M 17.726562 0.410156 C 26.515625 0.410156 33.554688 -6.679688 33.554688 -15.414062 C 33.554688 -24.152344 26.515625 -31.242188 17.726562 -31.242188 C 8.992188 -31.242188 1.902344 -24.152344 1.902344 -15.414062 C 1.902344 -6.679688 8.992188 0.410156 17.726562 0.410156 Z M 17.726562 -6.21875 C 12.539062 -6.21875 8.582031 -10.226562 8.582031 -15.414062 C 8.582031 -20.605469 12.539062 -24.613281 17.726562 -24.613281 C 22.96875 -24.613281 26.925781 -20.605469 26.925781 -15.414062 C 26.925781 -10.226562 22.96875 -6.21875 17.726562 -6.21875 Z M 17.726562 -6.21875 "/></g></g></g><g fill="#ff9ab8" fill-opacity="1"><g transform="translate(328.61282, 249.517876)"><g><path d="M 15.621094 -33.453125 L 20.707031 -41.109375 L 16.597656 -41.109375 L 13.667969 -37.097656 L 10.738281 -41.109375 L 6.628906 -41.109375 L 11.664062 -33.453125 Z M 24.820312 -30.832031 L 2.464844 -30.832031 L 2.464844 -24.820312 L 14.285156 -24.820312 L 1.183594 0 L 24.820312 0 L 24.820312 -6.011719 L 11.820312 -6.011719 Z M 24.820312 -30.832031 "/></g></g></g><g fill="#ff9ab8" fill-opacity="1"><g transform="translate(354.915278, 249.517876)"><g><path d="M 4.109375 -33.453125 L 8.425781 -33.453125 L 14.851562 -41.109375 L 8.632812 -41.109375 Z M 3.289062 0 L 10.070312 0 L 10.070312 -30.832031 L 3.289062 -30.832031 Z M 3.289062 0 "/></g></g></g><g fill="#ff9ab8" fill-opacity="1"><g transform="translate(368.220636, 249.517876)"><g><path d="M 10.121094 -33.453125 L 14.078125 -33.453125 L 19.167969 -41.109375 L 15.054688 -41.109375 L 12.125 -37.097656 L 9.199219 -41.109375 L 5.085938 -41.109375 Z M 12.539062 0.410156 C 18.292969 0.410156 23.175781 -2.980469 23.175781 -8.734375 C 23.175781 -20.144531 8.992188 -17.316406 8.992188 -22.660156 C 8.992188 -24.40625 10.328125 -25.230469 11.972656 -25.230469 C 13.71875 -25.230469 15.464844 -24.253906 17.007812 -22.558594 L 21.53125 -26.875 C 19.269531 -29.496094 15.828125 -31.242188 12.023438 -31.242188 C 7.140625 -31.242188 2.15625 -28.3125 2.15625 -22.148438 C 2.15625 -11.664062 16.390625 -14.183594 16.390625 -8.785156 C 16.390625 -7.089844 14.953125 -5.960938 12.589844 -5.960938 C 9.761719 -5.960938 7.554688 -7.554688 6.421875 -9.96875 L 0.820312 -6.472656 C 2.824219 -2.621094 7.140625 0.410156 12.539062 0.410156 Z M 12.539062 0.410156 "/></g></g></g><g fill="#ff9ab8" fill-opacity="1"><g transform="translate(392.57096, 249.517876)"><g><path d="M 21.839844 -24.871094 L 21.839844 -30.832031 L 3.289062 -30.832031 L 3.289062 0 L 21.839844 0 L 21.839844 -5.960938 L 10.070312 -5.960938 L 10.070312 -12.433594 L 20.144531 -12.433594 L 20.144531 -18.394531 L 10.070312 -18.394531 L 10.070312 -24.871094 Z M 21.839844 -24.871094 "/></g></g></g><g fill="#ff9ab8" fill-opacity="1"><g transform="translate(416.510304, 249.517876)"><g><path d="M 22.300781 0 L 31.34375 0 L 16.496094 -17.109375 L 29.804688 -30.832031 L 21.066406 -30.832031 L 10.996094 -19.9375 L 9.8125 -19.9375 L 9.8125 -30.832031 L 3.03125 -30.832031 L 3.03125 0 L 9.8125 0 L 9.8125 -14.078125 L 10.789062 -14.078125 Z M 22.300781 0 "/></g></g></g><g fill="#737373" fill-opacity="1"><g transform="translate(0.937509, 289.923432)"><g><path d="M 10.226562 0.324219 C 13.984375 0.324219 17.136719 -2.101562 18.226562 -5.496094 L 15.558594 -5.496094 C 14.589844 -3.515625 12.570312 -2.183594 10.226562 -2.183594 C 6.953125 -2.183594 4.324219 -4.769531 4.324219 -8.082031 C 4.324219 -11.398438 6.953125 -13.984375 10.226562 -13.984375 C 12.570312 -13.984375 14.589844 -12.648438 15.558594 -10.667969 L 18.226562 -10.667969 C 17.136719 -14.066406 13.984375 -16.488281 10.226562 -16.488281 C 5.578125 -16.488281 1.820312 -12.730469 1.820312 -8.082031 C 1.820312 -3.433594 5.578125 0.324219 10.226562 0.324219 Z M 10.226562 0.324219 "/></g></g></g><g fill="#737373" fill-opacity="1"><g transform="translate(20.215458, 289.923432)"><g><path d="M 9.054688 -16.488281 C 7.71875 -16.488281 6.464844 -16.046875 5.457031 -15.316406 L 5.457031 -29.746094 L 2.949219 -29.746094 L 2.949219 0 L 5.457031 0 L 5.457031 -10.347656 C 5.457031 -12.40625 7.074219 -13.984375 9.054688 -13.984375 C 11.035156 -13.984375 12.691406 -12.40625 12.691406 -10.347656 L 12.691406 0 L 15.15625 0 L 15.15625 -10.347656 C 15.15625 -13.78125 12.449219 -16.488281 9.054688 -16.488281 Z M 9.054688 -16.488281 "/></g></g></g><g fill="#737373" fill-opacity="1"><g transform="translate(38.119291, 289.923432)"><g><path d="M 10.226562 0.324219 C 14.871094 0.324219 18.632812 -3.433594 18.632812 -8.082031 C 18.632812 -12.730469 14.871094 -16.488281 10.226562 -16.488281 C 5.578125 -16.488281 1.820312 -12.730469 1.820312 -8.082031 C 1.820312 -3.433594 5.578125 0.324219 10.226562 0.324219 Z M 10.226562 -2.183594 C 6.953125 -2.183594 4.324219 -4.808594 4.324219 -8.082031 C 4.324219 -11.355469 6.953125 -13.984375 10.226562 -13.984375 C 13.457031 -13.984375 16.125 -11.355469 16.125 -8.082031 C 16.125 -4.808594 13.457031 -2.183594 10.226562 -2.183594 Z M 10.226562 -2.183594 "/></g></g></g><g fill="#737373" fill-opacity="1"><g transform="translate(58.569275, 289.923432)"><g><path d="M 13.054688 -16.167969 L 8.082031 -2.910156 L 3.070312 -16.167969 L 0.363281 -16.167969 L 6.832031 0 L 9.253906 0 L 15.761719 -16.167969 Z M 13.054688 -16.167969 "/></g></g></g><g fill="#737373" fill-opacity="1"><g transform="translate(74.694857, 289.923432)"><g><path d="M 20.289062 -2.101562 C 19.398438 -2.101562 18.632812 -2.707031 18.632812 -4.203125 L 18.632812 -16.167969 L 16.125 -16.167969 L 16.125 -14.066406 C 14.628906 -15.558594 12.527344 -16.488281 10.226562 -16.488281 C 5.578125 -16.488281 1.820312 -12.730469 1.820312 -8.082031 C 1.820312 -3.433594 5.578125 0.324219 10.226562 0.324219 C 12.648438 0.324219 14.832031 -0.808594 16.367188 -2.464844 C 16.894531 -0.808594 18.1875 0.324219 20.085938 0.324219 C 20.53125 0.324219 20.976562 0.203125 21.300781 0 L 21.300781 -2.101562 Z M 10.226562 -2.183594 C 6.953125 -2.183594 4.324219 -4.808594 4.324219 -8.082031 C 4.324219 -11.355469 6.953125 -13.984375 10.226562 -13.984375 C 13.457031 -13.984375 16.125 -11.355469 16.125 -8.082031 C 16.125 -4.808594 13.457031 -2.183594 10.226562 -2.183594 Z M 10.226562 -2.183594 "/></g></g></g><g fill="#737373" fill-opacity="1"><g transform="translate(96.478536, 289.923432)"><g><path d="M 10.386719 -13.742188 L 10.386719 -16.167969 L 6.0625 -16.167969 L 6.0625 -23.199219 L 3.554688 -23.199219 L 3.554688 -16.167969 L 0.847656 -16.167969 L 0.847656 -13.742188 L 3.554688 -13.742188 L 3.554688 -4.242188 C 3.554688 -1.699219 5.699219 0.324219 8.203125 0.324219 C 9.011719 0.324219 9.902344 0.0820312 10.347656 -0.203125 L 10.347656 -2.101562 L 8.488281 -2.101562 C 7.195312 -2.101562 6.0625 -3.070312 6.0625 -4.566406 L 6.0625 -13.742188 Z M 10.386719 -13.742188 "/></g></g></g><g fill="#737373" fill-opacity="1"><g transform="translate(108.198887, 289.923432)"><g><path d="M 18.632812 -8.246094 C 18.511719 -12.894531 14.832031 -16.488281 10.226562 -16.488281 C 5.578125 -16.488281 1.820312 -12.730469 1.820312 -8.082031 C 1.820312 -3.433594 5.578125 0.324219 10.226562 0.324219 C 14.066406 0.324219 17.257812 -2.222656 18.308594 -5.699219 L 15.640625 -5.699219 C 14.75 -3.597656 12.648438 -2.183594 10.226562 -2.183594 C 7.03125 -2.183594 4.484375 -4.605469 4.324219 -7.71875 L 18.589844 -7.71875 Z M 10.226562 -13.984375 C 12.8125 -13.984375 14.996094 -12.328125 15.761719 -9.984375 L 4.648438 -9.984375 C 5.457031 -12.328125 7.636719 -13.984375 10.226562 -13.984375 Z M 10.226562 -13.984375 "/></g></g></g><g fill="#737373" fill-opacity="1"><g transform="translate(128.487212, 289.923432)"><g><path d="M 2.949219 0 L 5.457031 0 L 5.457031 -29.746094 L 2.949219 -29.746094 Z M 2.949219 0 "/></g></g></g><g fill="#737373" fill-opacity="1"><g transform="translate(136.893526, 289.923432)"><g><path d="M 6.953125 0.324219 C 9.78125 0.324219 12.125 -1.578125 12.125 -4.363281 C 12.125 -7.273438 9.699219 -8.40625 7.597656 -9.253906 C 5.617188 -10.105469 4.605469 -10.546875 4.605469 -11.964844 C 4.605469 -13.335938 5.535156 -13.984375 6.871094 -13.984375 C 7.921875 -13.984375 8.851562 -13.539062 9.296875 -12.691406 L 11.476562 -13.820312 C 10.871094 -15.277344 8.8125 -16.488281 6.75 -16.488281 C 4.363281 -16.488281 2.0625 -14.832031 2.0625 -11.882812 C 2.0625 -9.335938 3.757812 -8.042969 6.628906 -6.953125 C 8.566406 -6.183594 9.617188 -5.65625 9.617188 -4.363281 C 9.617188 -2.949219 8.40625 -2.140625 6.953125 -2.140625 C 5.457031 -2.140625 4 -2.992188 3.757812 -4.164062 L 1.332031 -3.191406 C 1.941406 -1.253906 4.363281 0.324219 6.953125 0.324219 Z M 6.953125 0.324219 "/></g></g></g><g fill="#737373" fill-opacity="1"><g transform="translate(150.27089, 289.923432)"><g><path d="M 17.097656 0 L 8.890625 -8.972656 L 16.410156 -16.167969 L 13.054688 -16.167969 L 5.699219 -9.09375 L 5.699219 -29.746094 L 3.191406 -29.746094 L 3.191406 0 L 5.699219 0 L 5.699219 -9.011719 L 13.660156 0 Z M 17.097656 0 "/></g></g></g><g fill="#737373" fill-opacity="1"><g transform="translate(166.96228, 289.923432)"><g><path d="M 15.679688 -24.25 L 12.769531 -24.25 L 9.214844 -18.269531 L 10.914062 -18.269531 Z M 20.289062 -2.101562 C 19.398438 -2.101562 18.632812 -2.707031 18.632812 -4.203125 L 18.632812 -16.167969 L 16.125 -16.167969 L 16.125 -14.066406 C 14.628906 -15.558594 12.527344 -16.488281 10.226562 -16.488281 C 5.578125 -16.488281 1.820312 -12.730469 1.820312 -8.082031 C 1.820312 -3.433594 5.578125 0.324219 10.226562 0.324219 C 12.648438 0.324219 14.832031 -0.808594 16.367188 -2.464844 C 16.894531 -0.808594 18.1875 0.324219 20.085938 0.324219 C 20.53125 0.324219 20.976562 0.203125 21.300781 0 L 21.300781 -2.101562 Z M 10.226562 -2.183594 C 6.953125 -2.183594 4.324219 -4.808594 4.324219 -8.082031 C 4.324219 -11.355469 6.953125 -13.984375 10.226562 -13.984375 C 13.457031 -13.984375 16.125 -11.355469 16.125 -8.082031 C 16.125 -4.808594 13.457031 -2.183594 10.226562 -2.183594 Z M 10.226562 -2.183594 "/></g></g></g><g fill="#737373" fill-opacity="1"><g transform="translate(188.745958, 289.923432)"><g/></g></g><g fill="#737373" fill-opacity="1"><g transform="translate(198.485955, 289.923432)"><g><path d="M 6.953125 0.324219 C 9.78125 0.324219 12.125 -1.578125 12.125 -4.363281 C 12.125 -7.273438 9.699219 -8.40625 7.597656 -9.253906 C 5.617188 -10.105469 4.605469 -10.546875 4.605469 -11.964844 C 4.605469 -13.335938 5.535156 -13.984375 6.871094 -13.984375 C 7.921875 -13.984375 8.851562 -13.539062 9.296875 -12.691406 L 11.476562 -13.820312 C 10.871094 -15.277344 8.8125 -16.488281 6.75 -16.488281 C 4.363281 -16.488281 2.0625 -14.832031 2.0625 -11.882812 C 2.0625 -9.335938 3.757812 -8.042969 6.628906 -6.953125 C 8.566406 -6.183594 9.617188 -5.65625 9.617188 -4.363281 C 9.617188 -2.949219 8.40625 -2.140625 6.953125 -2.140625 C 5.457031 -2.140625 4 -2.992188 3.757812 -4.164062 L 1.332031 -3.191406 C 1.941406 -1.253906 4.363281 0.324219 6.953125 0.324219 Z M 6.953125 0.324219 "/></g></g></g><g fill="#737373" fill-opacity="1"><g transform="translate(211.863319, 289.923432)"><g><path d="M 10.386719 -13.742188 L 10.386719 -16.167969 L 6.0625 -16.167969 L 6.0625 -23.199219 L 3.554688 -23.199219 L 3.554688 -16.167969 L 0.847656 -16.167969 L 0.847656 -13.742188 L 3.554688 -13.742188 L 3.554688 -4.242188 C 3.554688 -1.699219 5.699219 0.324219 8.203125 0.324219 C 9.011719 0.324219 9.902344 0.0820312 10.347656 -0.203125 L 10.347656 -2.101562 L 8.488281 -2.101562 C 7.195312 -2.101562 6.0625 -3.070312 6.0625 -4.566406 L 6.0625 -13.742188 Z M 10.386719 -13.742188 "/></g></g></g><g fill="#737373" fill-opacity="1"><g transform="translate(223.58367, 289.923432)"><g><path d="M 20.289062 -2.101562 C 19.398438 -2.101562 18.632812 -2.707031 18.632812 -4.203125 L 18.632812 -16.167969 L 16.125 -16.167969 L 16.125 -14.066406 C 14.628906 -15.558594 12.527344 -16.488281 10.226562 -16.488281 C 5.578125 -16.488281 1.820312 -12.730469 1.820312 -8.082031 C 1.820312 -3.433594 5.578125 0.324219 10.226562 0.324219 C 12.648438 0.324219 14.832031 -0.808594 16.367188 -2.464844 C 16.894531 -0.808594 18.1875 0.324219 20.085938 0.324219 C 20.53125 0.324219 20.976562 0.203125 21.300781 0 L 21.300781 -2.101562 Z M 10.226562 -2.183594 C 6.953125 -2.183594 4.324219 -4.808594 4.324219 -8.082031 C 4.324219 -11.355469 6.953125 -13.984375 10.226562 -13.984375 C 13.457031 -13.984375 16.125 -11.355469 16.125 -8.082031 C 16.125 -4.808594 13.457031 -2.183594 10.226562 -2.183594 Z M 10.226562 -2.183594 "/></g></g></g><g fill="#737373" fill-opacity="1"><g transform="translate(245.36736, 289.923432)"><g><path d="M 9.375 -16.488281 C 7.882812 -16.488281 6.507812 -15.882812 5.457031 -14.871094 L 5.457031 -16.167969 L 2.949219 -16.167969 L 2.949219 0 L 5.457031 0 L 5.457031 -10.304688 C 5.457031 -12.367188 7.113281 -13.984375 9.175781 -13.984375 C 11.234375 -13.984375 12.851562 -12.367188 12.851562 -10.304688 L 12.851562 0 L 15.359375 0 L 15.359375 -10.304688 C 15.359375 -13.742188 12.488281 -16.488281 9.375 -16.488281 Z M 9.375 -16.488281 "/></g></g></g><g fill="#737373" fill-opacity="1"><g transform="translate(263.473285, 289.923432)"><g><path d="M 4.527344 -19.199219 C 5.457031 -19.199219 6.265625 -19.964844 6.265625 -20.894531 C 6.265625 -21.90625 5.457031 -22.632812 4.527344 -22.632812 C 3.554688 -22.632812 2.75 -21.90625 2.75 -20.894531 C 2.75 -19.964844 3.554688 -19.199219 4.527344 -19.199219 Z M 3.273438 0 L 5.78125 0 L 5.78125 -16.167969 L 3.273438 -16.167969 Z M 3.273438 0 "/></g></g></g><g fill="#737373" fill-opacity="1"><g transform="translate(272.485827, 289.923432)"><g><path d="M 10.226562 0.324219 C 13.984375 0.324219 17.136719 -2.101562 18.226562 -5.496094 L 15.558594 -5.496094 C 14.589844 -3.515625 12.570312 -2.183594 10.226562 -2.183594 C 6.953125 -2.183594 4.324219 -4.769531 4.324219 -8.082031 C 4.324219 -11.398438 6.953125 -13.984375 10.226562 -13.984375 C 12.570312 -13.984375 14.589844 -12.648438 15.558594 -10.667969 L 18.226562 -10.667969 C 17.136719 -14.066406 13.984375 -16.488281 10.226562 -16.488281 C 5.578125 -16.488281 1.820312 -12.730469 1.820312 -8.082031 C 1.820312 -3.433594 5.578125 0.324219 10.226562 0.324219 Z M 10.226562 0.324219 "/></g></g></g><g fill="#737373" fill-opacity="1"><g transform="translate(291.763764, 289.923432)"><g><path d="M 18.632812 -8.246094 C 18.511719 -12.894531 14.832031 -16.488281 10.226562 -16.488281 C 5.578125 -16.488281 1.820312 -12.730469 1.820312 -8.082031 C 1.820312 -3.433594 5.578125 0.324219 10.226562 0.324219 C 14.066406 0.324219 17.257812 -2.222656 18.308594 -5.699219 L 15.640625 -5.699219 C 14.75 -3.597656 12.648438 -2.183594 10.226562 -2.183594 C 7.03125 -2.183594 4.484375 -4.605469 4.324219 -7.71875 L 18.589844 -7.71875 Z M 10.226562 -13.984375 C 12.8125 -13.984375 14.996094 -12.328125 15.761719 -9.984375 L 4.648438 -9.984375 C 5.457031 -12.328125 7.636719 -13.984375 10.226562 -13.984375 Z M 10.226562 -13.984375 "/></g></g></g><g fill="#737373" fill-opacity="1"><g transform="translate(312.052077, 289.923432)"><g/></g></g><g fill="#737373" fill-opacity="1"><g transform="translate(321.792097, 289.923432)"><g><path d="M 11.355469 -16.488281 C 9.054688 -16.488281 6.992188 -15.558594 5.457031 -14.066406 L 5.457031 -16.167969 L 2.949219 -16.167969 L 2.949219 9.699219 L 5.457031 9.699219 L 5.457031 -2.101562 C 6.992188 -0.605469 9.054688 0.324219 11.355469 0.324219 C 16.003906 0.324219 19.761719 -3.433594 19.761719 -8.082031 C 19.761719 -12.730469 16.003906 -16.488281 11.355469 -16.488281 Z M 11.355469 -2.183594 C 8.082031 -2.183594 5.457031 -4.808594 5.457031 -8.082031 C 5.457031 -11.355469 8.082031 -13.984375 11.355469 -13.984375 C 14.628906 -13.984375 17.257812 -11.355469 17.257812 -8.082031 C 17.257812 -4.808594 14.628906 -2.183594 11.355469 -2.183594 Z M 11.355469 -2.183594 "/></g></g></g><g fill="#737373" fill-opacity="1"><g transform="translate(343.373684, 289.923432)"><g><path d="M 10.226562 0.324219 C 14.871094 0.324219 18.632812 -3.433594 18.632812 -8.082031 C 18.632812 -12.730469 14.871094 -16.488281 10.226562 -16.488281 C 5.578125 -16.488281 1.820312 -12.730469 1.820312 -8.082031 C 1.820312 -3.433594 5.578125 0.324219 10.226562 0.324219 Z M 10.226562 -2.183594 C 6.953125 -2.183594 4.324219 -4.808594 4.324219 -8.082031 C 4.324219 -11.355469 6.953125 -13.984375 10.226562 -13.984375 C 13.457031 -13.984375 16.125 -11.355469 16.125 -8.082031 C 16.125 -4.808594 13.457031 -2.183594 10.226562 -2.183594 Z M 10.226562 -2.183594 "/></g></g></g><g fill="#737373" fill-opacity="1"><g transform="translate(363.823679, 289.923432)"><g><path d="M 10.386719 -13.742188 L 10.386719 -16.167969 L 6.0625 -16.167969 L 6.0625 -23.199219 L 3.554688 -23.199219 L 3.554688 -16.167969 L 0.847656 -16.167969 L 0.847656 -13.742188 L 3.554688 -13.742188 L 3.554688 -4.242188 C 3.554688 -1.699219 5.699219 0.324219 8.203125 0.324219 C 9.011719 0.324219 9.902344 0.0820312 10.347656 -0.203125 L 10.347656 -2.101562 L 8.488281 -2.101562 C 7.195312 -2.101562 6.0625 -3.070312 6.0625 -4.566406 L 6.0625 -13.742188 Z M 10.386719 -13.742188 "/></g></g></g><g fill="#737373" fill-opacity="1"><g transform="translate(375.544031, 289.923432)"><g><path d="M 17.097656 0 L 8.890625 -8.972656 L 16.410156 -16.167969 L 13.054688 -16.167969 L 5.699219 -9.09375 L 5.699219 -29.746094 L 3.191406 -29.746094 L 3.191406 0 L 5.699219 0 L 5.699219 -9.011719 L 13.660156 0 Z M 17.097656 0 "/></g></g></g><g fill="#737373" fill-opacity="1"><g transform="translate(392.23542, 289.923432)"><g><path d="M 20.289062 -2.101562 C 19.398438 -2.101562 18.632812 -2.707031 18.632812 -4.203125 L 18.632812 -16.167969 L 16.125 -16.167969 L 16.125 -14.066406 C 14.628906 -15.558594 12.527344 -16.488281 10.226562 -16.488281 C 5.578125 -16.488281 1.820312 -12.730469 1.820312 -8.082031 C 1.820312 -3.433594 5.578125 0.324219 10.226562 0.324219 C 12.648438 0.324219 14.832031 -0.808594 16.367188 -2.464844 C 16.894531 -0.808594 18.1875 0.324219 20.085938 0.324219 C 20.53125 0.324219 20.976562 0.203125 21.300781 0 L 21.300781 -2.101562 Z M 10.226562 -2.183594 C 6.953125 -2.183594 4.324219 -4.808594 4.324219 -8.082031 C 4.324219 -11.355469 6.953125 -13.984375 10.226562 -13.984375 C 13.457031 -13.984375 16.125 -11.355469 16.125 -8.082031 C 16.125 -4.808594 13.457031 -2.183594 10.226562 -2.183594 Z M 10.226562 -2.183594 "/></g></g></g><g fill="#737373" fill-opacity="1"><g transform="translate(414.01911, 289.923432)"><g><path d="M 9.375 -16.488281 C 7.882812 -16.488281 6.507812 -15.882812 5.457031 -14.871094 L 5.457031 -16.167969 L 2.949219 -16.167969 L 2.949219 0 L 5.457031 0 L 5.457031 -10.304688 C 5.457031 -12.367188 7.113281 -13.984375 9.175781 -13.984375 C 11.234375 -13.984375 12.851562 -12.367188 12.851562 -10.304688 L 12.851562 0 L 15.359375 0 L 15.359375 -10.304688 C 15.359375 -13.742188 12.488281 -16.488281 9.375 -16.488281 Z M 9.375 -16.488281 "/></g></g></g><g fill="#737373" fill-opacity="1"><g transform="translate(432.125035, 289.923432)"><g><path d="M 8.566406 -17.703125 C 10.386719 -17.703125 11.882812 -19.238281 11.882812 -21.054688 C 11.882812 -22.914062 10.386719 -24.410156 8.566406 -24.410156 C 6.710938 -24.410156 5.171875 -22.914062 5.171875 -21.054688 C 5.171875 -19.238281 6.710938 -17.703125 8.566406 -17.703125 Z M 8.566406 -19.078125 C 7.4375 -19.078125 6.585938 -19.925781 6.585938 -21.054688 C 6.585938 -22.148438 7.4375 -23.078125 8.566406 -23.078125 C 9.617188 -23.078125 10.507812 -22.148438 10.507812 -21.054688 C 10.507812 -19.925781 9.617188 -19.078125 8.566406 -19.078125 Z M 8.488281 0.324219 C 12.085938 0.324219 14.550781 -2.0625 14.550781 -5.820312 L 14.550781 -16.167969 L 12.085938 -16.167969 L 12.085938 -6.101562 C 12.085938 -3.679688 10.589844 -2.183594 8.488281 -2.183594 C 6.425781 -2.183594 4.890625 -3.679688 4.890625 -6.101562 L 4.890625 -16.167969 L 2.425781 -16.167969 L 2.425781 -5.820312 C 2.425781 -2.0625 4.851562 0.324219 8.488281 0.324219 Z M 8.488281 0.324219 "/></g></g></g></svg>